<?xml version="1.0" encoding="utf-8"?>
<!-- Generator: Adobe Illustrator 23.0.0, SVG Export Plug-In . SVG Version: 6.00 Build 0)  -->
<svg version="1.1" id="_x32_" xmlns="http://www.w3.org/2000/svg" xmlns:xlink="http://www.w3.org/1999/xlink" x="0px" y="0px"
	 width="80px" height="80px" viewBox="0 0 80 80" style="enable-background:new 0 0 80 80;" xml:space="preserve">
<style type="text/css">
	.st0{fill:url(#SVGID_1_);}
	.st1{fill:url(#SVGID_2_);}
</style>
<linearGradient id="SVGID_1_" gradientUnits="userSpaceOnUse" x1="68.284256" y1="68.2842789" x2="11.7157478" y2="11.7157707">
	<stop  offset="0" style="stop-color:#E0B073"/>
	<stop  offset="0.1708543" style="stop-color:#A0714C"/>
	<stop  offset="0.3743719" style="stop-color:#E0B073"/>
	<stop  offset="0.4698492" style="stop-color:#A0714C"/>
	<stop  offset="0.6090404" style="stop-color:#FFD492"/>
	<stop  offset="0.6479115" style="stop-color:#F1C687"/>
	<stop  offset="0.7215229" style="stop-color:#CBA169"/>
	<stop  offset="0.7700779" style="stop-color:#AF8552"/>
	<stop  offset="1" style="stop-color:#FFD492"/>
</linearGradient>
<path class="st0" d="M40,0C17.9086914,0,0,17.9086914,0,40c0,22.0914307,17.9086914,40,40,40s40-17.9085693,40-40
	C80,17.9086914,62.0913086,0,40,0z M40,79C18.4953613,79,1,61.5046387,1,40S18.4953613,1,40,1s39,17.4953613,39,39
	S61.5046387,79,40,79z"/>
<linearGradient id="SVGID_2_" gradientUnits="userSpaceOnUse" x1="56.0451927" y1="56.0451775" x2="23.9548721" y2="23.954855">
	<stop  offset="0" style="stop-color:#E0B073"/>
	<stop  offset="0.1708543" style="stop-color:#A0714C"/>
	<stop  offset="0.3743719" style="stop-color:#E0B073"/>
	<stop  offset="0.4698492" style="stop-color:#A0714C"/>
	<stop  offset="0.6090404" style="stop-color:#FFD492"/>
	<stop  offset="0.6479115" style="stop-color:#F1C687"/>
	<stop  offset="0.7215229" style="stop-color:#CBA169"/>
	<stop  offset="0.7700779" style="stop-color:#AF8552"/>
	<stop  offset="1" style="stop-color:#FFD492"/>
</linearGradient>
<path class="st1" d="M63.7677765,39.4580803l-7.5096779-7.5096779v-7.4322567c0-0.4645176-0.3096771-0.7741947-0.7741966-0.7741947
	h-7.4322548l-7.5096779-7.509676c-0.3096771-0.3096781-0.7741928-0.3096781-1.0838737,0l-7.509676,7.509676H24.516161
	c-0.4645157,0-0.7741928,0.3096771-0.7741928,0.7741947v7.4322567l-7.5096779,7.5096779
	c-0.3096771,0.3096771-0.3096771,0.7741928,0,1.0838699l7.5096779,7.5096779v7.4322586
	c0,0.4645157,0.3096771,0.7741928,0.7741928,0.7741928h7.4322586l7.509676,7.5096779
	c0.1548386,0.1548386,0.3096809,0.2322578,0.5419388,0.2322578s0.3870964-0.0774193,0.541935-0.2322578l7.5096779-7.5096779
	h7.4322548c0.4645195,0,0.7741966-0.3096771,0.7741966-0.7741928v-7.4322586l7.5096779-7.5096779
	C64.0774536,40.2322731,64.0774536,39.7677574,63.7677765,39.4580803z M54.941967,47.200016
	c-0.1548386,0.1548386-0.2322578,0.3096771-0.2322578,0.541935v6.9677429h-6.9677429
	c-0.2322578,0-0.3870964,0.0774193-0.541935,0.2322578l-7.1999969,7.2000008l-7.2000008-7.2000008
	c-0.1548386-0.1548386-0.3096771-0.2322578-0.541935-0.2322578h-6.9677429V47.741951
	c0-0.2322578-0.0774193-0.3870964-0.2322578-0.541935l-7.2000008-7.2000008l7.2000008-7.2000008
	c0.1548386-0.1548386,0.2322578-0.3096771,0.2322578-0.541935v-6.967741h6.9677429
	c0.2322578,0,0.3870964-0.0774193,0.541935-0.2322578l7.2000008-7.2000008l7.1999969,7.2000008
	c0.1548386,0.1548386,0.3096771,0.2322578,0.541935,0.2322578h6.9677429v6.967741
	c0,0.2322578,0.0774193,0.3870964,0.2322578,0.541935l7.2000008,7.2000008L54.941967,47.200016z M53.54842,27.1484032
	c0-0.4645157-0.3096771-0.7741928-0.7741928-0.7741928h-6.1161308L40.46455,20.1806602
	c-0.3096771-0.3096771-0.7741966-0.3096771-1.0838737,0L33.18713,26.3742104h-6.1161289
	c-0.4645176,0-0.7741947,0.3096771-0.7741947,0.7741928v6.1161308l-6.1935482,6.1935463
	c-0.1548386,0.1548386-0.2322578,0.3096771-0.2322578,0.541935s0.0774193,0.3870964,0.3096771,0.6193542l6.1935482,6.1935501
	v6.116127c0,0.4645195,0.3096771,0.7741966,0.7741947,0.7741966h6.1161289l6.1935463,6.1935463
	c0.1548386,0.1548386,0.3096809,0.2322578,0.5419388,0.2322578s0.3870964-0.0774193,0.4645157-0.3096771l6.1935463-6.1935463
	h6.1161308c0.4645157,0,0.7741928-0.3096771,0.7741928-0.7741966v-6.116127l6.1935463-6.1935501
	c0.1548424-0.1548386,0.2322617-0.3096771,0.2322617-0.541935s-0.0774193-0.3870964-0.2322617-0.541935L53.54842,33.264534
	V27.1484032z M58.1161613,40.0774345l-5.8838692,5.883873c-0.1548386,0.1548386-0.2322578,0.3096771-0.2322578,0.541935v5.6516113
	h-5.6516151c-0.2322578,0-0.3870964,0.0774193-0.541935,0.2322578l-5.8838692,5.883873l-5.883873-5.883873
	c-0.1548386-0.1548386-0.3096771-0.2322578-0.541935-0.2322578h-5.6516132v-5.7290306
	c0-0.2322578-0.0774193-0.3870964-0.2322578-0.541935l-5.8838711-5.883873l5.9612904-5.9612885
	c0.1548386-0.1548386,0.2322578-0.3096771,0.2322578-0.541935v-5.6516151h5.6516132
	c0.2322578,0,0.3870964-0.0774193,0.541935-0.2322578l5.883873-5.8838711l5.9612885,5.9612904
	c0.1548386,0.1548386,0.3096771,0.2322578,0.541935,0.2322578h5.6516151v5.6516151
	c0,0.2322578,0.0774193,0.3870964,0.2322578,0.541935L58.1161613,40.0774345z M45.8064842,37.135498v-2.2451591
	c0-0.4645157-0.3096771-0.7741928-0.7741928-0.7741928h-2.245163L40.46455,31.7935638
	c-0.3096771-0.3096771-0.7741966-0.3096771-1.0838737,0l-2.3225784,2.3225822h-2.245163
	c-0.4645157,0-0.7741928,0.3096771-0.7741928,0.7741928v2.2451591l-2.3225803,2.3225822
	c-0.1548386,0.1548386-0.2322578,0.3096771-0.2322578,0.541935s0.0774193,0.3870964,0.3096771,0.6193542l2.3225803,2.3225822
	v2.2451591c0,0.4645195,0.3096771,0.7741966,0.7741928,0.7741966h2.245163l2.3225784,2.3225784
	c0.1548386,0.1548386,0.3096809,0.2322578,0.5419388,0.2322578s0.3870964-0.0774193,0.4645157-0.3096771l2.3225784-2.3225784
	h2.245163c0.4645157,0,0.7741928-0.3096771,0.7741928-0.7741966v-2.2451591l2.3225822-2.3225822
	c0.1548386-0.1548386,0.2322578-0.3096771,0.2322578-0.541935s-0.0774193-0.3870964-0.2322578-0.541935L45.8064842,37.135498z
	 M44.4903564,42.0903397c-0.1548386,0.1548386-0.2322578,0.3096771-0.2322578,0.541935v1.7806435h-1.7806473
	c-0.2322578,0-0.3870964,0.0774193-0.541935,0.2322578l-2.0129013,2.0129051l-2.0129051-2.0129051
	c-0.1548386-0.1548386-0.3096771-0.2322578-0.541935-0.2322578h-1.7806473v-1.8580627
	c0-0.2322578-0.0774193-0.3870964-0.2322578-0.541935l-2.0129013-2.0129051l2.0903206-2.0903206
	c0.1548386-0.1548386,0.2322578-0.3096771,0.2322578-0.541935v-1.7806473h1.7806473
	c0.2322578,0,0.3870964-0.0774193,0.541935-0.2322578l2.0129051-2.0129013l2.0903206,2.0903206
	c0.1548386,0.1548386,0.3096771,0.2322578,0.541935,0.2322578h1.7806473v1.7806473
	c0,0.2322578,0.0774193,0.3870964,0.2322578,0.541935l1.8580627,2.0903206L44.4903564,42.0903397z"/>
</svg>
