<?xml version="1.0" encoding="utf-8"?>
<!-- Generator: Adobe Illustrator 23.0.0, SVG Export Plug-In . SVG Version: 6.00 Build 0)  -->
<svg version="1.1" id="_x32_" xmlns="http://www.w3.org/2000/svg" xmlns:xlink="http://www.w3.org/1999/xlink" x="0px" y="0px"
	 width="80px" height="80px" viewBox="0 0 80 80" style="enable-background:new 0 0 80 80;" xml:space="preserve">
<style type="text/css">
	.st0{fill:url(#SVGID_1_);}
	.st1{fill:url(#SVGID_2_);}
</style>
<linearGradient id="SVGID_1_" gradientUnits="userSpaceOnUse" x1="68.2842407" y1="68.2842865" x2="11.7157135" y2="11.7157593">
	<stop  offset="0" style="stop-color:#E0B073"/>
	<stop  offset="0.1708543" style="stop-color:#A0714C"/>
	<stop  offset="0.3743719" style="stop-color:#E0B073"/>
	<stop  offset="0.4698492" style="stop-color:#A0714C"/>
	<stop  offset="0.6090404" style="stop-color:#FFD492"/>
	<stop  offset="0.6479115" style="stop-color:#F1C687"/>
	<stop  offset="0.7215229" style="stop-color:#CBA169"/>
	<stop  offset="0.7700779" style="stop-color:#AF8552"/>
	<stop  offset="1" style="stop-color:#FFD492"/>
</linearGradient>
<path class="st0" d="M40,1c21.5046387,0,39,17.4953613,39,39S61.5046387,79,40,79S1,61.5046387,1,40S18.4953613,1,40,1 M40,0
	C17.9085693,0,0,17.9086914,0,40c0,22.0914307,17.9085693,40,40,40c22.0913086,0,40-17.9085693,40-40
	C80,17.9086914,62.0913086,0,40,0L40,0z"/>
<linearGradient id="SVGID_2_" gradientUnits="userSpaceOnUse" x1="56.9972572" y1="57.0915184" x2="23.0100193" y2="23.1042805">
	<stop  offset="0" style="stop-color:#E0B073"/>
	<stop  offset="0.1708543" style="stop-color:#A0714C"/>
	<stop  offset="0.3743719" style="stop-color:#E0B073"/>
	<stop  offset="0.4698492" style="stop-color:#A0714C"/>
	<stop  offset="0.6090404" style="stop-color:#FFD492"/>
	<stop  offset="0.6479115" style="stop-color:#F1C687"/>
	<stop  offset="0.7215229" style="stop-color:#CBA169"/>
	<stop  offset="0.7700779" style="stop-color:#AF8552"/>
	<stop  offset="1" style="stop-color:#FFD492"/>
</linearGradient>
<path class="st1" d="M43.4285278,40.0866089v23.3399162c0,0.316555-0.256012,0.5734901-0.5714264,0.5734901
	c-0.3154182,0-0.5714302-0.2569351-0.5714302-0.5734901V40.0866089c0-1.2651138-1.0251465-2.2939644-2.2857132-2.2939644
	s-2.2857132,1.0288506-2.2857132,2.2939644v23.3399162c0,0.316555-0.256012,0.5734901-0.5714302,0.5734901
	c-0.3154144,0-0.5714264-0.2569351-0.5714264-0.5734901V40.0866089c0-1.8971214,1.5382729-3.4409447,3.4285698-3.4409447
	S43.4285278,38.1894875,43.4285278,40.0866089z M33.7142448,57.2913132c-0.3154182,0-0.5714302,0.2569389-0.5714302,0.5734901
	v4.8792686c0,0.316555,0.256012,0.5734901,0.5714302,0.5734901c0.3154144,0,0.5714264-0.2569351,0.5714264-0.5734901v-4.8792686
	C34.2856712,57.5482521,34.0296593,57.2913132,33.7142448,57.2913132z M39.999958,33.2047234
	c-3.7817268,0-6.8571434,3.0865135-6.8571434,6.8818855v14.3372536c0,0.316555,0.256012,0.5734901,0.5714302,0.5734901
	c0.3154144,0,0.5714264-0.2569351,0.5714264-0.5734901V40.0866089c0-3.1622314,2.5634232-5.7349052,5.7142868-5.7349052
	s5.7142868,2.5726738,5.7142868,5.7349052v4.014431c0,0.316555,0.256012,0.5734901,0.5714264,0.5734901
	c0.3154182,0,0.5714302-0.2569351,0.5714302-0.5734901v-4.014431C46.8571014,36.2912369,43.7816849,33.2047234,39.999958,33.2047234
	z M46.2856712,46.9684906c-0.3154144,0-0.5714264,0.2569351-0.5714264,0.5734901V62.744072
	c0,0.316555,0.256012,0.5734901,0.5714264,0.5734901c0.3154182,0,0.5714302-0.2569351,0.5714302-0.5734901V47.5419807
	C46.8571014,47.2254257,46.6010895,46.9684906,46.2856712,46.9684906z M30.2856731,48.1154709
	c-0.3154182,0-0.5714302,0.2569351-0.5714302,0.5734901v12.8003044c0,0.3165512,0.256012,0.5734901,0.5714302,0.5734901
	c0.3154163,0,0.5714283-0.2557716,0.5714283-0.5734901V48.688961C30.8571014,48.372406,30.6010895,48.1154709,30.2856731,48.1154709
	z M39.999958,29.7637825c-5.6719933,0-10.2857151,4.6315002-10.2857151,10.3228264v5.2336655
	c0,0.3165817,0.256012,0.5734901,0.5714302,0.5734901c0.3154163,0,0.5714283-0.2569084,0.5714283-0.5734901v-5.2336655
	c0-5.0593224,4.1017265-9.1758461,9.1428566-9.1758461s9.1428566,4.1165237,9.1428566,9.1758461v12.043293
	c0,0.316555,0.256012,0.5734901,0.5714302,0.5734901c0.3154144,0,0.5714264-0.2569351,0.5714264-0.5734901v-12.043293
	C50.2856712,34.3952827,45.6719513,29.7637825,39.999958,29.7637825z M49.7142448,54.9973526
	c-0.3154182,0-0.5714302,0.2569351-0.5714302,0.5734901v5.9184227c0,0.3165512,0.256012,0.5734901,0.5714302,0.5734901
	c0.3154144,0,0.5714264-0.2557716,0.5714264-0.5734901v-5.9184227
	C50.2856712,55.2542877,50.0296593,54.9973526,49.7142448,54.9973526z M39.999958,27.4698219
	c2.5371437,0,4.9794044,0.7547073,7.06744,2.180397c0.2582741,0.1777821,0.6148529,0.1124287,0.7931252-0.1502419
	c0.1771431-0.2626705,0.1108627-0.6193695-0.1508636-0.7971516c-2.2765465-1.5564594-4.9428558-2.3799839-7.7097015-2.3799839
	c-7.5622902,0-13.7142849,6.1741905-13.7142849,13.7637672v19.4676933c0,0.3165855,0.2560101,0.5734901,0.5714283,0.5734901
	c0.3154163,0,0.5714283-0.2557716,0.5714283-0.5734901V40.0866089C27.4285297,33.1301689,33.068531,27.4698219,39.999958,27.4698219
	z M49.4068031,30.859148c-0.2342873,0.2110577-0.2548523,0.5734901-0.0434227,0.8097572
	c2.068573,2.3146305,3.2080078,5.303648,3.2080078,8.4177036v19.4676933c0,0.3165855,0.256012,0.5734901,0.5714264,0.5734901
	c0.3154182,0,0.5714302-0.2557716,0.5714302-0.5734901V40.0866089c0-3.3961983-1.2434235-6.6582222-3.5005684-9.1838818
	C50.0022507,30.6664619,49.6410904,30.6469574,49.4068031,30.859148z M29.6479645,27.8414555
	c0.2411308-0.2053223,0.2708626-0.5677567,0.0662785-0.8086224c-0.2034512-0.2408657-0.5645828-0.2707043-0.8045826-0.0653839
	c-3.8468456,3.2780647-6.0525589,8.0598373-6.0525589,13.1191597V56.707489c0,0.3165855,0.256012,0.5734901,0.5714283,0.5734901
	s0.5714283-0.2557411,0.5714283-0.5734901V40.0866089C23.999958,35.3644829,26.0593929,30.9015923,29.6479645,27.8414555z
	 M39.999958,22.8818989c-2.770298,0-5.5211296,0.6778545-7.9577103,1.9624729
	c-0.2788677,0.1468372-0.3874378,0.4932003-0.2399979,0.7742119c0.1462803,0.2810097,0.493721,0.3854027,0.7714272,0.2408657
	c2.2731247-1.1974297,4.8400002-1.8305702,7.426281-1.8305702c8.8228569,0,16,7.2030392,16,16.0577297V56.707489
	c0,0.3165855,0.256012,0.5734901,0.5714302,0.5734901c0.3154144,0,0.5714264-0.2557411,0.5714264-0.5734901V40.0866089
	C57.1428146,30.5999432,49.4525185,22.8818989,39.999958,22.8818989z M59.493679,35.5411301
	c0.3040161-0.0802879,0.4868736-0.3934097,0.4068756-0.6996574C57.5359688,25.7734261,49.3519516,19.440958,39.999958,19.440958
	c-11.3428574,0-20.5714283,9.2618675-20.5714283,20.6456509v12.2531853c0,0.3165855,0.256012,0.5734901,0.5714283,0.5734901
	s0.5714283-0.2569046,0.5714283-0.5734901V40.0866089c0-10.7518101,8.715416-19.4986706,19.4285717-19.4986706
	c8.8331528,0,16.5611305,5.9803677,18.7965775,14.5437145C58.8753738,35.4379005,59.1828156,35.6156845,59.493679,35.5411301z
	 M59.8707924,37.7192268c-0.3142586,0.0275383-0.5462494,0.3062515-0.5188408,0.6216698
	c0.0514297,0.5757904,0.0765762,1.1641846,0.0765762,1.7457123v12.2531853c0,0.3165855,0.256012,0.5734901,0.5714302,0.5734901
	s0.5714302-0.2569046,0.5714302-0.5734901V40.0866089c0-0.6159363-0.0274429-1.237606-0.081131-1.8466415
	C60.4616852,37.9234123,60.16222,37.6871185,59.8707924,37.7192268z M39.999958,16.0000153
	c-9.8537197,0-18.8548508,6.1971302-22.3988686,15.4222889c-0.1131248,0.2947807,0.0331535,0.6274052,0.3280048,0.7409687
	c0.2891369,0.1123962,0.622858-0.0332756,0.7383041-0.3291912c3.3748512-8.7847347,11.9485722-14.6870842,21.3325596-14.6870842
	c12.6034241,0,22.8571434,10.2907143,22.8571434,22.9396114c0,0.9313507-0.0571442,1.8730125-0.1691666,2.7986298
	c-0.0376778,0.3142853,0.1863098,0.599865,0.4983025,0.6388741c0.0240173,0.0023003,0.046875,0.003437,0.0708618,0.003437
	c0.284584,0,0.5303001-0.2133293,0.5657158-0.5035362c0.1177368-0.9714699,0.1771431-1.9590378,0.1771431-2.9374046
	C63.999958,26.8045731,53.2331123,16.0000153,39.999958,16.0000153z M17.2388268,34.4641037
	c-0.3131542-0.0653839-0.6125889,0.1284676-0.68116,0.4370155c-0.3702679,1.6906319-0.5577087,3.4352074-0.5577087,5.1854897
	c0,0.9783669,0.0594349,1.9659348,0.1771431,2.9374046c0.0342846,0.2902069,0.2811298,0.5035362,0.5657139,0.5035362
	c0.0239887,0,0.0468445-0.0011368,0.0697021-0.0046005c0.3131542-0.0390091,0.5360126-0.3245888,0.4983044-0.6388435
	c-0.1108627-0.9244843-0.1680069-1.8661461-0.1680069-2.7974968c0-1.6677246,0.1782742-3.3296814,0.5314293-4.9388885
	C17.741684,34.8380356,17.5473976,34.5317879,17.2388268,34.4641037z"/>
</svg>
