<?xml version="1.0" encoding="utf-8"?>
<!-- Generator: Adobe Illustrator 23.0.0, SVG Export Plug-In . SVG Version: 6.00 Build 0)  -->
<svg version="1.1" id="_x32_" xmlns="http://www.w3.org/2000/svg" xmlns:xlink="http://www.w3.org/1999/xlink" x="0px" y="0px"
	 width="80px" height="80px" viewBox="0 0 80 80" style="enable-background:new 0 0 80 80;" xml:space="preserve">
<style type="text/css">
	.st0{fill:url(#SVGID_1_);}
	.st1{fill:url(#SVGID_2_);}
</style>
<linearGradient id="SVGID_1_" gradientUnits="userSpaceOnUse" x1="68.2842407" y1="68.2842865" x2="11.7157135" y2="11.7157593">
	<stop  offset="0" style="stop-color:#E0B073"/>
	<stop  offset="0.1708543" style="stop-color:#A0714C"/>
	<stop  offset="0.3743719" style="stop-color:#E0B073"/>
	<stop  offset="0.4698492" style="stop-color:#A0714C"/>
	<stop  offset="0.6090404" style="stop-color:#FFD492"/>
	<stop  offset="0.6479115" style="stop-color:#F1C687"/>
	<stop  offset="0.7215229" style="stop-color:#CBA169"/>
	<stop  offset="0.7700779" style="stop-color:#AF8552"/>
	<stop  offset="1" style="stop-color:#FFD492"/>
</linearGradient>
<path class="st0" d="M40,0C17.9085693,0,0,17.9086914,0,40c0,22.0914307,17.9085693,40,40,40c22.0913086,0,40-17.9085693,40-40
	C80,17.9086914,62.0913086,0,40,0z M40,79C18.4953613,79,1,61.5046387,1,40S18.4953613,1,40,1s39,17.4953613,39,39
	S61.5046387,79,40,79z"/>
<linearGradient id="SVGID_2_" gradientUnits="userSpaceOnUse" x1="54.7080994" y1="54.7080994" x2="25.2919006" y2="25.2919006">
	<stop  offset="0" style="stop-color:#E0B073"/>
	<stop  offset="0.1708543" style="stop-color:#A0714C"/>
	<stop  offset="0.3743719" style="stop-color:#E0B073"/>
	<stop  offset="0.4698492" style="stop-color:#A0714C"/>
	<stop  offset="0.6090404" style="stop-color:#FFD492"/>
	<stop  offset="0.6479115" style="stop-color:#F1C687"/>
	<stop  offset="0.7215229" style="stop-color:#CBA169"/>
	<stop  offset="0.7700779" style="stop-color:#AF8552"/>
	<stop  offset="1" style="stop-color:#FFD492"/>
</linearGradient>
<path class="st1" d="M61.7871094,39.5031738l-6.8839111-6.8837891v-6.8129883c0-0.4257813-0.2838135-0.7097168-0.7095947-0.7097168
	h-6.8129883l-6.8837891-6.8837891C40.3548584,18.0710449,40.1774902,18,40,18s-0.3548584,0.0710449-0.4968262,0.2128906
	l-6.8837891,6.8837891h-6.8129883c-0.4257813,0-0.7095947,0.2839355-0.7095947,0.7097168v6.8129883l-6.8839111,6.8837891
	c-0.2838135,0.2839355-0.2838135,0.7097168,0,0.9936523l6.8839111,6.8837891v6.8129883
	c0,0.4257813,0.2838135,0.7097168,0.7095947,0.7097168h6.8129883l6.8837891,6.8837891C39.6451416,61.9289551,39.7871094,62,40,62
	s0.3548584-0.0710449,0.4968262-0.2128906l6.8837891-6.8837891h6.8129883c0.4257813,0,0.7095947-0.2839355,0.7095947-0.7097168
	v-6.8129883l6.8839111-6.8837891C62.0709229,40.2128906,62.0709229,39.7871094,61.7871094,39.5031738z M54.1960449,46.673584
	l-0.2928467,0.2927246v0.4143066v6.5227051h-6.522583h-0.4141846l-0.2929688,0.2929688L40,60.8696289l-6.6734619-6.6733398
	l-0.2929688-0.2929688h-0.4141846h-6.522583v-6.5227051v-0.4143066l-0.2928467-0.2927246L19.130249,40l6.6737061-6.673584
	l0.2928467-0.2927246v-0.4143066v-6.5227051h6.522583h0.4141846l0.2929688-0.2929688L40,19.1303711l6.6734619,6.6733398
	l0.2929688,0.2929688h0.4141846h6.522583v6.5227051v0.4143066l0.2928467,0.2927246L60.869751,40L54.1960449,46.673584z
	 M52.2316895,28.4509277c0-0.4162598-0.2780762-0.6936035-0.6950684-0.6936035h-5.4902344l-5.5599365-5.5493164
	C40.3475342,22.0693359,40.1737061,22,40,22s-0.3475342,0.0693359-0.4864502,0.2080078l-5.5599365,5.5493164h-5.4902344
	c-0.4169922,0-0.6950684,0.2773438-0.6950684,0.6936035v5.4797363l-5.5598145,5.5490723
	C22.069458,39.6184082,22,39.7573242,22,39.965332s0.069458,0.3469238,0.2779541,0.5549316l5.5599365,5.5490723v5.4797363
	c0,0.4162598,0.2779541,0.6936035,0.6949463,0.6936035h5.4903564l5.5598145,5.5493164
	C39.7220459,57.9306641,39.8609619,58,40.069458,58s0.3475342-0.0693359,0.4169922-0.2773438l5.5599365-5.5493164h5.4902344
	c0.4169922,0,0.6950684-0.2773438,0.6950684-0.6936035V46l5.5598145-5.5490723C57.930542,40.3122559,58,40.1733398,58,39.965332
	s-0.069458-0.3469238-0.2084961-0.4855957l-5.5598145-5.5490723V28.4509277z M56.8624268,39.965332l-5.3371582,5.3269043
	l-0.2935791,0.2929688V46v5.1733398h-5.1853027h-0.4136963l-0.2927246,0.2922363L40,56.7954102l-5.2703857-5.260498
	l-0.2927246-0.2922363h-0.4136963h-5.1853027v-5.1733398V45.654541l-0.2935791-0.2929688l-5.4067383-5.3962402l5.3371582-5.3269043
	l0.2935791-0.2929688v-0.4147949v-5.1733398h5.1853027h0.4136963l0.2927246-0.2922363L40,23.1352539l5.3399658,5.329834
	l0.2927246,0.2922363h0.4136963h5.1853027v5.1733398v0.4147949l0.2935791,0.2929688L56.8624268,39.965332z M45.5780029,37.2602539
	v-2.1186523c0-0.4384766-0.2935791-0.7307129-0.7340088-0.7307129h-2.128418l-2.2017822-2.1916504
	C40.3669434,32.072998,40.1834717,32,40,32s-0.3669434,0.072998-0.5137939,0.2192383l-2.2017822,2.1916504h-2.128418
	c-0.4404297,0-0.7340088,0.2922363-0.7340088,0.7307129v2.1186523l-2.2017822,2.1918945
	C32.0733643,39.5981445,32,39.7443848,32,39.9633789c0,0.2192383,0.0733643,0.3654785,0.2935791,0.5844727l2.2017822,2.1918945
	v2.1186523c0,0.4384766,0.2935791,0.7307129,0.7340088,0.7307129h2.128418l2.2019043,2.1916504
	C39.7064209,47.927002,39.8532715,48,40.0733643,48c0.2202148,0,0.3669434-0.072998,0.4404297-0.2922363l2.2017822-2.1918945
	h2.128418c0.4404297,0,0.7340088-0.2922363,0.7340088-0.7304688V42.666748l2.2017822-2.1918945
	C47.9266357,40.3288574,48,40.1826172,48,39.9633789c0-0.2189941-0.0733643-0.3652344-0.2202148-0.5112305L45.5780029,37.2602539z
	 M44.8724365,41.9580078l-0.2944336,0.2932129v0.4155273v1.8491211h-1.8624268h-0.4128418l-0.2927246,0.2912598L40,46.8081055
	l-1.9367676-1.9277344l-0.2926025-0.2912598h-0.4128418h-1.8624268v-1.8493652v-0.4155273l-0.2944336-0.2932129l-2.0769043-2.067627
	l2.00354-1.9943848l0.2944336-0.2932129v-0.4155273v-1.8493652h1.8624268h0.4128418l0.2926025-0.2912598L40,33.1188965
	l2.0101318,2.0007324l0.2926025,0.2912598h0.4128418h1.8624268v1.8493652v0.4155273l0.2944336,0.2932129l2.00354,1.9946289
	L44.8724365,41.9580078z"/>
</svg>
