<?xml version="1.0" encoding="utf-8"?>
<!-- Generator: Adobe Illustrator 23.0.0, SVG Export Plug-In . SVG Version: 6.00 Build 0)  -->
<svg version="1.1" id="_x32_" xmlns="http://www.w3.org/2000/svg" xmlns:xlink="http://www.w3.org/1999/xlink" x="0px" y="0px"
	 width="80px" height="80px" viewBox="0 0 80 80" style="enable-background:new 0 0 80 80;" xml:space="preserve">
<style type="text/css">
	.st0{fill:url(#SVGID_1_);}
	.st1{fill:url(#SVGID_2_);}
</style>
<linearGradient id="SVGID_1_" gradientUnits="userSpaceOnUse" x1="68.2842407" y1="68.2842865" x2="11.7157135" y2="11.7157593">
	<stop  offset="0" style="stop-color:#E0B073"/>
	<stop  offset="0.1708543" style="stop-color:#A0714C"/>
	<stop  offset="0.3743719" style="stop-color:#E0B073"/>
	<stop  offset="0.4698492" style="stop-color:#A0714C"/>
	<stop  offset="0.6090404" style="stop-color:#FFD492"/>
	<stop  offset="0.6479115" style="stop-color:#F1C687"/>
	<stop  offset="0.7215229" style="stop-color:#CBA169"/>
	<stop  offset="0.7700779" style="stop-color:#AF8552"/>
	<stop  offset="1" style="stop-color:#FFD492"/>
</linearGradient>
<path class="st0" d="M40,0C17.9085693,0,0,17.9086914,0,40c0,22.0914307,17.9085693,40,40,40c22.0913086,0,40-17.9085693,40-40
	C80,17.9086914,62.0913086,0,40,0z M40,79C18.4953613,79,1,61.5046387,1,40S18.4953613,1,40,1s39,17.4953613,39,39
	S61.5046387,79,40,79z"/>
<linearGradient id="SVGID_2_" gradientUnits="userSpaceOnUse" x1="55.3671799" y1="49.4936295" x2="24.6330795" y2="18.759531">
	<stop  offset="0" style="stop-color:#E0B073"/>
	<stop  offset="0.1708543" style="stop-color:#A0714C"/>
	<stop  offset="0.3743719" style="stop-color:#E0B073"/>
	<stop  offset="0.4698492" style="stop-color:#A0714C"/>
	<stop  offset="0.6090404" style="stop-color:#FFD492"/>
	<stop  offset="0.6479115" style="stop-color:#F1C687"/>
	<stop  offset="0.7215229" style="stop-color:#CBA169"/>
	<stop  offset="0.7700779" style="stop-color:#AF8552"/>
	<stop  offset="1" style="stop-color:#FFD492"/>
</linearGradient>
<path class="st1" d="M58.4100342,23.1035156l-2.9453125-4.2353516c-0.1113281-0.1611328-0.3037109-0.2407227-0.5029297-0.2055664
	l-14.9619141,2.8271484l-14.9609375-2.8271484c-0.1982422-0.0356445-0.3916016,0.0444336-0.5029297,0.2055664l-2.9462891,4.2353516
	c-0.0908203,0.1293945-0.1142578,0.2939453-0.0644531,0.4438477c0.0498047,0.1494141,0.1679688,0.2670898,0.3173828,0.3164063
	l13.6889648,4.5288086l2.0063477,2.8840332l-2.2703857,15.2468262c-0.0002441,0.0012207-0.0002441,0.0024414-0.0004883,0.003418
	L33.868042,55.921875c-0.0195313,0.1254883,0.0107422,0.253418,0.0830078,0.3579102l0.1568604,0.2270508
	c0.0001221,0,0.0003662,0.0002441,0.0003662,0.0004883l2.6494141,3.8339844
	c0.0008545,0.0012207,0.001709,0.0021973,0.0024414,0.003418l2.8286133,4.0932617
	c0.0927734,0.1352539,0.2470703,0.2158203,0.4111328,0.2158203s0.3183594-0.0805664,0.4111328-0.2158203l5.6386719-8.1582031
	c0.0722656-0.1044922,0.1025391-0.2324219,0.0830078-0.3579102L44.19104,42.8828125
	c-0.0001221-0.0004883-0.0002441-0.0009766-0.0002441-0.001709l-0.9597168-6.4450684
	c-0.0002441-0.0009766-0.0003662-0.0021973-0.0004883-0.003418l-0.7678223-5.1560059l2.0054932-2.8840332l13.6888428-4.5288086
	c0.1494141-0.0493164,0.2675781-0.1669922,0.3173828-0.3164063C58.524292,23.3974609,58.5008545,23.2333984,58.4100342,23.1035156z
	 M25.1717529,19.7050781l13.9765625,2.6416016L35.649292,27.378418L22.7928467,23.125L25.1717529,19.7050781z
	 M35.1376953,56.2387695l8.25354-11.9423828l0.7243652,4.8649902l-6.9348145,10.0339355L35.1376953,56.2387695z
	 M35.0809326,54.5629883l1.1538086-7.7490234l6.1962891-8.965332l0.744751,5.0012207L35.0809326,54.5629883z M42.2156982,36.4023438
	l-5.6473389,8.1708984l1.9237061-12.9194336h3.0166016L42.2156982,36.4023438z M39.9998779,63.2744141l-2.2115479-3.2001953
	l6.5426025-9.4663086l0.7841797,5.2661133L39.9998779,63.2744141z M41.6776123,30.6538086h-3.3544922l-1.8671875-2.6835938
	l3.5439453-5.0961914l3.5439453,5.0961914L41.6776123,30.6538086z M44.3504639,27.378418l-3.4990234-5.0317383l13.9775391-2.6416016
	L57.2069092,23.125L44.3504639,27.378418z"/>
</svg>
