<?xml version="1.0" encoding="utf-8"?>
<!-- Generator: Adobe Illustrator 23.0.0, SVG Export Plug-In . SVG Version: 6.00 Build 0)  -->
<svg version="1.1" id="_x32_" xmlns="http://www.w3.org/2000/svg" xmlns:xlink="http://www.w3.org/1999/xlink" x="0px" y="0px"
	 width="80px" height="80px" viewBox="0 0 80 80" style="enable-background:new 0 0 80 80;" xml:space="preserve">
<style type="text/css">
	.st0{fill:url(#SVGID_1_);}
	.st1{fill:url(#SVGID_2_);}
</style>
<linearGradient id="SVGID_1_" gradientUnits="userSpaceOnUse" x1="68.2842407" y1="68.2842865" x2="11.7157135" y2="11.7157593">
	<stop  offset="0" style="stop-color:#E0B073"/>
	<stop  offset="0.1708543" style="stop-color:#A0714C"/>
	<stop  offset="0.3743719" style="stop-color:#E0B073"/>
	<stop  offset="0.4698492" style="stop-color:#A0714C"/>
	<stop  offset="0.6090404" style="stop-color:#FFD492"/>
	<stop  offset="0.6479115" style="stop-color:#F1C687"/>
	<stop  offset="0.7215229" style="stop-color:#CBA169"/>
	<stop  offset="0.7700779" style="stop-color:#AF8552"/>
	<stop  offset="1" style="stop-color:#FFD492"/>
</linearGradient>
<path class="st0" d="M40,0C17.9085693,0,0,17.9086914,0,40c0,22.0914307,17.9085693,40,40,40c22.0913086,0,40-17.9085693,40-40
	C80,17.9086914,62.0913086,0,40,0z M40,79C18.4953613,79,1,61.5046387,1,40S18.4953613,1,40,1s39,17.4953613,39,39
	S61.5046387,79,40,79z"/>
<linearGradient id="SVGID_2_" gradientUnits="userSpaceOnUse" x1="56.8459244" y1="55.1483727" x2="23.1538315" y2="21.4562778">
	<stop  offset="0" style="stop-color:#E0B073"/>
	<stop  offset="0.1708543" style="stop-color:#A0714C"/>
	<stop  offset="0.3743719" style="stop-color:#E0B073"/>
	<stop  offset="0.4698492" style="stop-color:#A0714C"/>
	<stop  offset="0.6090404" style="stop-color:#FFD492"/>
	<stop  offset="0.6479115" style="stop-color:#F1C687"/>
	<stop  offset="0.7215229" style="stop-color:#CBA169"/>
	<stop  offset="0.7700779" style="stop-color:#AF8552"/>
	<stop  offset="1" style="stop-color:#FFD492"/>
</linearGradient>
<path class="st1" d="M25.0008545,20.2060547c-0.1621094-0.2236328-0.1132813-0.5361328,0.1103516-0.6982422
	c0.2226563-0.1611328,0.5351563-0.1137695,0.6982422,0.1103516l5.8210449,8.0119629l-0.5009766,1.0114746L25.0008545,20.2060547z
	 M54.9989014,20.2060547c0.1621094-0.2236328,0.1132813-0.5361328-0.1103516-0.6982422
	c-0.2226563-0.1611328-0.5351563-0.1137695-0.6982422,0.1103516l-5.8209229,8.0117188l0.5010986,1.0112305L54.9989014,20.2060547z
	 M16.2313232,47.1972656c-0.2626953,0.0854492-0.40625,0.3676758-0.3212891,0.6298828
	c0.0683594,0.2114258,0.2646484,0.3457031,0.4755859,0.3457031c0.0507813,0,0.1035156-0.0078125,0.1542969-0.0244141
	l7.5307617-2.4470215l-0.8112793-0.7878418L16.2313232,47.1972656z M63.7684326,47.1972656l-7.027832-2.2834473
	l-0.8112793,0.7878418l7.5305176,2.4467773c0.0507813,0.0166016,0.1035156,0.0244141,0.1542969,0.0244141
	c0.2109375,0,0.4072266-0.1342773,0.4755859-0.3457031C64.1746826,47.5649414,64.0311279,47.2827148,63.7684326,47.1972656z
	 M49.5,44.9750977L51.7426758,58L40,51.8505859L28.2573242,58L30.5,44.9750977L21,35.7507324l13.1286621-1.9001465L40,22
	l5.8713379,11.8505859L59,35.7507324L49.5,44.9750977z M48.5145264,45.1447754L48.4250488,44.625l0.3782959-0.3674316
	l8.041748-7.8083496L45.7281494,34.840332l-0.5197754-0.0751953l-0.2330322-0.4707031L40,24.2524414l-4.9753418,10.0419922
	l-0.2330322,0.4707031l-0.5197754,0.0751953l-11.1169434,1.6088867l8.041748,7.8083496L31.5749512,44.625l-0.0894775,0.5197754
	l-1.899292,11.0305176l9.9499512-5.2106934L40,50.7216797l0.4638672,0.2429199l9.9499512,5.2106934L48.5145264,45.1447754z
	 M45.1551514,38.7990723l3.0703125,0.4443359l-2.2086182,2.1445313L44.125,43.2248535l0.4475098,2.5986328l0.5256348,3.0527344
	l-2.7785645-1.4550781L40,46.206543l-2.3195801,1.2145996l-2.7785645,1.4550781l0.5256348-3.0527344L35.875,43.2248535
	l-1.8918457-1.8369141l-2.2086182-2.1445313l3.0703125-0.4443359l2.5985107-0.3762207l1.1655273-2.3525391L40,33.2626953
	l1.3911133,2.8076172l1.1655273,2.3525391L45.1551514,38.7990723z M46.0705566,39.9418945l-1.0585938-0.1530762
	l-2.5986328-0.3762207l-0.5196533-0.0751953l-0.2331543-0.4707031l-1.1655273-2.3525391L40,35.5151367l-0.4951172,0.9992676
	l-1.1654053,2.3522949l-0.2331543,0.4707031l-0.5196533,0.0751953l-2.5985107,0.3762207l-1.0587158,0.1530762l0.7503662,0.7285156
	l1.8918457,1.8369141l0.3782959,0.3674316l-0.0894775,0.5197754l-0.4475098,2.5986328l-0.182251,1.0583496l0.9858398-0.5163574
	l2.3195801-1.2145996L40,45.0776367l0.4638672,0.2429199l2.3195801,1.2145996l0.9858398,0.5163574l-0.182251-1.0583496
	l-0.4475098-2.5986328l-0.0894775-0.5197754l0.3782959-0.3674316l1.8918457-1.8369141L46.0705566,39.9418945z"/>
</svg>
