<?xml version="1.0" encoding="utf-8"?>
<!-- Generator: Adobe Illustrator 23.0.0, SVG Export Plug-In . SVG Version: 6.00 Build 0)  -->
<svg version="1.1" id="_x32_" xmlns="http://www.w3.org/2000/svg" xmlns:xlink="http://www.w3.org/1999/xlink" x="0px" y="0px"
	 width="80px" height="80px" viewBox="0 0 80 80" style="enable-background:new 0 0 80 80;" xml:space="preserve">
<style type="text/css">
	.st0{fill:url(#SVGID_1_);}
	.st1{fill:url(#SVGID_2_);}
</style>
<linearGradient id="SVGID_1_" gradientUnits="userSpaceOnUse" x1="68.2842407" y1="68.2842865" x2="11.7157135" y2="11.7157593">
	<stop  offset="0" style="stop-color:#E0B073"/>
	<stop  offset="0.1708543" style="stop-color:#A0714C"/>
	<stop  offset="0.3743719" style="stop-color:#E0B073"/>
	<stop  offset="0.4698492" style="stop-color:#A0714C"/>
	<stop  offset="0.6090404" style="stop-color:#FFD492"/>
	<stop  offset="0.6479115" style="stop-color:#F1C687"/>
	<stop  offset="0.7215229" style="stop-color:#CBA169"/>
	<stop  offset="0.7700779" style="stop-color:#AF8552"/>
	<stop  offset="1" style="stop-color:#FFD492"/>
</linearGradient>
<path class="st0" d="M40,0C17.9085693,0,0,17.9086914,0,40c0,22.0914307,17.9085693,40,40,40c22.0913086,0,40-17.9085693,40-40
	C80,17.9086914,62.0913086,0,40,0z M40,79C18.4953613,79,1,61.5046387,1,40S18.4953613,1,40,1s39,17.4953613,39,39
	S61.5046387,79,40,79z"/>
<linearGradient id="SVGID_2_" gradientUnits="userSpaceOnUse" x1="51.7667999" y1="47.4352913" x2="28.2332172" y2="23.9017105">
	<stop  offset="0" style="stop-color:#E0B073"/>
	<stop  offset="0.1708543" style="stop-color:#A0714C"/>
	<stop  offset="0.3743719" style="stop-color:#E0B073"/>
	<stop  offset="0.4698492" style="stop-color:#A0714C"/>
	<stop  offset="0.6090404" style="stop-color:#FFD492"/>
	<stop  offset="0.6479115" style="stop-color:#F1C687"/>
	<stop  offset="0.7215229" style="stop-color:#CBA169"/>
	<stop  offset="0.7700779" style="stop-color:#AF8552"/>
	<stop  offset="1" style="stop-color:#FFD492"/>
</linearGradient>
<path class="st1" d="M58.9915771,34.5158691c0.001709-0.0500488-0.0130615-0.0949707-0.0262451-0.1435547
	c-0.0085449-0.0310059-0.0024414-0.0637207-0.0170898-0.0930176c-0.0045166-0.0092773-0.0146484-0.0129395-0.0197754-0.0217285
	c-0.005249-0.0095215-0.00354-0.0209961-0.0095215-0.0300293l-5.8417969-8.9999981
	c-0.0917969-0.1416016-0.25-0.2275391-0.4189453-0.2275391h-3.7705078h-5.0458984h-7.6826172h-5.046875h-3.7705078
	c-0.1689453,0-0.3271484,0.0859375-0.4189453,0.2275391l-5.8417969,8.9999981
	c-0.0059814,0.0090332-0.0042725,0.0205078-0.0095215,0.0300293c-0.005127,0.0087891-0.0152588,0.0124512-0.0197754,0.0217285
	c-0.0146484,0.0292969-0.0085449,0.0620117-0.0170898,0.0930176c-0.0131836,0.048584-0.0279541,0.0935059-0.0262451,0.1435547
	c0.0013428,0.0427246,0.0162354,0.0795898,0.0281982,0.1208496c0.0100098,0.0339355,0.0065918,0.0703125,0.0239258,0.1020508
	c0.0068359,0.0124512,0.0205078,0.0178223,0.0283203,0.0292969c0.0073242,0.0117188,0.0062256,0.026123,0.0146484,0.0371094l18.5,24
	c0.0079346,0.0102539,0.020752,0.0144043,0.0292969,0.0239258c0.020752,0.0231934,0.0423584,0.043457,0.0672607,0.0625
	c0.0142822,0.0109863,0.027832,0.0185547,0.0432129,0.027832c0.0206299,0.0126953,0.0390625,0.0256348,0.0612793,0.0351563
	c0.0101318,0.0043945,0.0169678,0.0129395,0.0274658,0.0166016C39.8876953,58.9907227,39.9443359,59,40,59
	s0.1113281-0.0092773,0.1669922-0.0288086c0.010376-0.0036621,0.0170898-0.0119629,0.0270996-0.0161133
	c0.0224609-0.0097656,0.0413818-0.0224609,0.0622559-0.0351563c0.015625-0.0095215,0.0292969-0.017334,0.0437012-0.0283203
	c0.0246582-0.019043,0.0458984-0.0390625,0.0662842-0.0617676c0.0089111-0.0097656,0.0220947-0.0141602,0.0301514-0.0246582l18.5-24
	c0.0084229-0.0109863,0.0073242-0.0253906,0.0146484-0.0371094c0.0078125-0.0114746,0.0214844-0.0168457,0.0283203-0.0292969
	c0.017334-0.0317383,0.013916-0.0681152,0.0239258-0.1020508C58.9753418,34.595459,58.9902344,34.5585938,58.9915771,34.5158691z
	 M57.5791016,34h-4.2680664l-3.645752-7.9999981h2.7214355L57.5791016,34z M52.2119141,34h-6.1867676l-1.5756836-7.9999981
	h4.1169434L52.2119141,34z M34.3857422,35h11.2285156h2.2128906l-7.8256836,22.0046387L32.213623,35H34.3857422z
	 M43.4306641,26.0000019L45.0058594,34H34.9941406l1.5761719-7.9999981H43.4306641z M35.5513916,26.0000019L33.9749756,34
	h-6.1868896l3.6455078-7.9999981H35.5513916z M27.6132813,26.0000019h2.7214355L26.6889648,34h-4.2680664L27.6132813,26.0000019z
	 M27.0107422,35h4.1413574l7.3306885,20.7128906L22.5166016,35H27.0107422z M41.5251465,55.7026367L48.8876953,35h4.1015625
	h4.4941406L41.5251465,55.7026367z"/>
</svg>
