<?xml version="1.0" encoding="utf-8"?>
<!-- Generator: Adobe Illustrator 23.0.0, SVG Export Plug-In . SVG Version: 6.00 Build 0)  -->
<svg version="1.1" id="_x32_" xmlns="http://www.w3.org/2000/svg" xmlns:xlink="http://www.w3.org/1999/xlink" x="0px" y="0px"
	 width="80px" height="80px" viewBox="0 0 80 80" style="enable-background:new 0 0 80 80;" xml:space="preserve">
<style type="text/css">
	.st0{fill:url(#SVGID_1_);}
	.st1{fill:url(#SVGID_2_);}
</style>
<linearGradient id="SVGID_1_" gradientUnits="userSpaceOnUse" x1="68.2842407" y1="68.2842865" x2="11.7157135" y2="11.7157593">
	<stop  offset="0" style="stop-color:#E0B073"/>
	<stop  offset="0.1708543" style="stop-color:#A0714C"/>
	<stop  offset="0.3743719" style="stop-color:#E0B073"/>
	<stop  offset="0.4698492" style="stop-color:#A0714C"/>
	<stop  offset="0.6090404" style="stop-color:#FFD492"/>
	<stop  offset="0.6479115" style="stop-color:#F1C687"/>
	<stop  offset="0.7215229" style="stop-color:#CBA169"/>
	<stop  offset="0.7700779" style="stop-color:#AF8552"/>
	<stop  offset="1" style="stop-color:#FFD492"/>
</linearGradient>
<path class="st0" d="M40,0C17.9085693,0,0,17.9086914,0,40c0,22.0914307,17.9085693,40,40,40c22.0913086,0,40-17.9085693,40-40
	C80,17.9086914,62.0913086,0,40,0z M40,79C18.4953613,79,1,61.5046387,1,40S18.4953613,1,40,1s39,17.4953613,39,39
	S61.5046387,79,40,79z"/>
<linearGradient id="SVGID_2_" gradientUnits="userSpaceOnUse" x1="59.0918579" y1="59.0918579" x2="20.9081421" y2="20.9081421">
	<stop  offset="0" style="stop-color:#E0B073"/>
	<stop  offset="0.1708543" style="stop-color:#A0714C"/>
	<stop  offset="0.3743719" style="stop-color:#E0B073"/>
	<stop  offset="0.4698492" style="stop-color:#A0714C"/>
	<stop  offset="0.6090404" style="stop-color:#FFD492"/>
	<stop  offset="0.6479115" style="stop-color:#F1C687"/>
	<stop  offset="0.7215229" style="stop-color:#CBA169"/>
	<stop  offset="0.7700779" style="stop-color:#AF8552"/>
	<stop  offset="1" style="stop-color:#FFD492"/>
</linearGradient>
<path class="st1" d="M60,40c0-5.3427734-2.1077881-10.184082-5.5211182-13.7717285l4.9665527-4.9665527l-0.7070313-0.7070313
	l-4.9666748,4.9665527C50.1842041,22.1079102,45.3427734,20,40,20s-10.1842041,2.1079102-13.7717285,5.5212402l-4.9666748-4.9665527
	l-0.7070313,0.7070313l4.9665527,4.9665527C22.1077881,29.815918,20,34.6572266,20,40s2.1079102,10.184082,5.5212402,13.7717285
	l-4.9666748,4.9665527l0.7070313,0.7070313l4.9667969-4.9665527C29.8157959,57.8920898,34.6572266,60,40,60
	s10.1842041-2.1079102,13.7717285-5.5212402l4.9666748,4.9665527l0.7070313-0.7070313l-4.9665527-4.9665527
	C57.8922119,50.184082,60,45.3427734,60,40z M21,40c0-10.4765625,8.5233154-19,19-19s19,8.5234375,19,19s-8.5233154,19-19,19
	S21,50.4765625,21,40z M40,26c-7.7319336,0-14,6.2680664-14,14s6.2680664,14,14,14s14-6.2680664,14-14S47.7319336,26,40,26z M40,53
	c-7.1682129,0-13-5.8317871-13-13s5.8317871-13,13-13s13,5.8317871,13,13S47.1682129,53,40,53z M42,40c0,1.1044922-0.8953857,2-2,2
	s-2-0.8955078-2-2s0.8953857-2,2-2S42,38.8955078,42,40z"/>
</svg>
