<?xml version="1.0" encoding="utf-8"?>
<!-- Generator: Adobe Illustrator 23.0.0, SVG Export Plug-In . SVG Version: 6.00 Build 0)  -->
<svg version="1.1" id="_x32_" xmlns="http://www.w3.org/2000/svg" xmlns:xlink="http://www.w3.org/1999/xlink" x="0px" y="0px"
	 width="80px" height="80px" viewBox="0 0 80 80" style="enable-background:new 0 0 80 80;" xml:space="preserve">
<style type="text/css">
	.st0{fill:url(#SVGID_1_);}
	.st1{fill:url(#SVGID_2_);}
</style>
<linearGradient id="SVGID_1_" gradientUnits="userSpaceOnUse" x1="68.2842407" y1="68.2842865" x2="11.7157135" y2="11.7157593">
	<stop  offset="0" style="stop-color:#E0B073"/>
	<stop  offset="0.1708543" style="stop-color:#A0714C"/>
	<stop  offset="0.3743719" style="stop-color:#E0B073"/>
	<stop  offset="0.4698492" style="stop-color:#A0714C"/>
	<stop  offset="0.6090404" style="stop-color:#FFD492"/>
	<stop  offset="0.6479115" style="stop-color:#F1C687"/>
	<stop  offset="0.7215229" style="stop-color:#CBA169"/>
	<stop  offset="0.7700779" style="stop-color:#AF8552"/>
	<stop  offset="1" style="stop-color:#FFD492"/>
</linearGradient>
<path class="st0" d="M40,0C17.9085693,0,0,17.9086914,0,40c0,22.0914307,17.9085693,40,40,40c22.0913086,0,40-17.9085693,40-40
	C80,17.9086914,62.0913086,0,40,0z M40,79C18.4953613,79,1,61.5046387,1,40S18.4953613,1,40,1s39,17.4953613,39,39
	S61.5046387,79,40,79z"/>
<linearGradient id="SVGID_2_" gradientUnits="userSpaceOnUse" x1="50.870697" y1="50.9729309" x2="23.9488831" y2="24.0511169">
	<stop  offset="0" style="stop-color:#E0B073"/>
	<stop  offset="0.1708543" style="stop-color:#A0714C"/>
	<stop  offset="0.3743719" style="stop-color:#E0B073"/>
	<stop  offset="0.4698492" style="stop-color:#A0714C"/>
	<stop  offset="0.6090404" style="stop-color:#FFD492"/>
	<stop  offset="0.6479115" style="stop-color:#F1C687"/>
	<stop  offset="0.7215229" style="stop-color:#CBA169"/>
	<stop  offset="0.7700779" style="stop-color:#AF8552"/>
	<stop  offset="1" style="stop-color:#FFD492"/>
</linearGradient>
<path class="st1" d="M53.9504395,28.5717773c-0.0273438-1.8691406-0.0754395-4.1123047-0.1070557-4.9851074L53.7858887,22
	H39.8930664H26l0.0297852,0.6499023l0.029541,0.6499023l0.8968506,0.1169434
	c1.196167,0.1564941,1.6347656,0.2922363,2.116333,0.6567383c0.7301025,0.5522461,1.1793213,1.3637695,1.4620361,2.6418457
	c0.4393311,1.9853516,0.5974121,6.4633789,0.5240479,14.8452148c-0.0772705,8.8566895-0.1842041,10.6987305-0.7249756,12.4853516
	c-0.4447021,1.4699707-1.2723389,2.2487793-2.6391602,2.4848633c-0.3764648,0.0646973-0.9094238,0.1682129-1.1844482,0.2297363
	l-0.5003662,0.1120605v0.5639648V58h8.9171143h8.9168701v-0.5722656c0-0.3146973-0.0268555-0.5722656-0.0598145-0.5722656
	c-0.4746094,0-2.6868896-0.4980469-3.0423584-0.6850586c-1.2652588-0.6655273-1.8502197-2.246582-2.0770264-5.6152344
	c-0.1612549-2.3947754-0.3217773-9.4299316-0.2176514-9.5388184c0.0194092-0.0202637,0.2130127-0.0290527,0.512207-0.0290527
	c1.1567383,0,3.895752,0.1308594,4.2868652,0.2290039c1.3612061,0.3400879,2.4104004,1.7382813,2.9356689,3.9121094
	l0.2315674,0.958252l0.6082764,0.0310059L48,46.1486816v-6.0397949v-6.0395508h-1.0178223
	c-0.6054688,0-0.6477051,0.0153809-0.6477051,0.234375c0,0.3942871-0.3778076,1.6413574-0.7355957,2.4282227
	c-0.5603027,1.2324219-1.3494873,1.9763184-2.3530273,2.2175293c-0.246582,0.0598145-1.4106445,0.1547852-2.5866699,0.2116699
	c-0.7633057,0.0368652-1.2807617,0.0556641-1.6230469,0.0556641c-0.4016113,0-0.5621338-0.0258789-0.5959473-0.0788574
	c-0.1156006-0.1811523,0.1480713-13.880127,0.2792969-14.5166016l0.0495605-0.2399902l3.6582031,0.0319824l3.6582031,0.0317383
	l0.8511963,0.3183594c1.9718018,0.7375488,3.390625,2.2434082,4.5759277,4.8569336
	c0.2662354,0.5871582,0.607666,1.4421387,0.758667,1.8996582c0.1508789,0.458252,0.2841797,0.847168,0.2966309,0.8652344
	c0.0009766,0.0014648,0.0045166,0.0024414,0.0102539,0.0024414c0.0599365,0,0.3634033-0.0817871,0.7169189-0.1940918L54,31.9702148
	L53.9504395,28.5717773z M43.4794922,39.921875c1.3168945-0.3166504,2.3361816-1.2504883,3.0296631-2.776123
	C46.6616211,36.8105469,46.8449707,36.3327637,47,35.8481445v4.2607422v4.2141113
	c-0.666626-2.2353516-1.9001465-3.6743164-3.5107422-4.0766602c-0.2344971-0.0588379-0.8676758-0.112793-1.6021729-0.1560059
	C42.5136719,40.0471191,43.2084961,39.9875488,43.4794922,39.921875z M52.4233398,29.2072754
	c-1.2890625-2.8422852-2.9211426-4.552002-5.1363525-5.3803711l-0.8511963-0.3183594l-0.1652832-0.0620117l-0.1763916-0.0014648
	l-3.6580811-0.0317383l-3.6582031-0.0319824l-0.8218994-0.0070801l-0.1662598,0.8049316l-0.0495605,0.2402344
	c-0.1019287,0.4941406-0.2020264,4.980957-0.2526855,7.6118164c-0.1395264,7.2539063-0.0965576,7.3212891,0.1097412,7.6445313
	c0.1289063,0.2021484,0.2977295,0.3286133,0.4827881,0.407959c-0.1278076,0.0500488-0.2452393,0.1259766-0.355835,0.2414551
	c-0.3439941,0.3596191-0.364624,0.3811035-0.2678223,4.6262207c0.0406494,1.7773438,0.1199951,4.3288574,0.2104492,5.6708984
	C37.8748779,53.7138672,38.3845215,55.986084,40.1744385,57h-5.2476807h-5.5783691
	c0.9229736-0.5305176,1.5635986-1.4123535,1.9423828-2.6643066c0.5811768-1.920166,0.6887207-3.7097168,0.7678223-12.7663574
	c0.0743408-8.4926758-0.0894775-12.9995117-0.5476074-15.0700684c-0.3372803-1.5241699-0.9031982-2.5183105-1.8349609-3.2231445
	C29.5362549,23.1704102,29.3979492,23.0793457,29.2562256,23h10.6368408h12.9283447l0.022583,0.6228027
	c0.0313721,0.8657227,0.0792236,3.0922852,0.1065674,4.963623l0.0284424,1.9545898
	C52.8101807,30.1030273,52.6033936,29.6044922,52.4233398,29.2072754z"/>
</svg>
