<svg width="69" height="66" viewBox="0 0 69 66" fill="none" xmlns="http://www.w3.org/2000/svg">
<g clip-path="url(#clip0_229_3393)">
<path fill-rule="evenodd" clip-rule="evenodd" d="M35 2.88889C32.6109 2.88889 30.6667 4.83311 30.6667 7.22222C30.6667 9.61133 32.6109 11.5556 35 11.5556C37.3891 11.5556 39.3333 9.61133 39.3333 7.22222C39.3333 4.83311 37.3891 2.88889 35 2.88889ZM34.9996 14.4444C31.0158 14.4444 27.7773 11.2031 27.7773 7.22222C27.7773 3.24133 31.0158 0 34.9996 0C38.9833 0 42.2218 3.24133 42.2218 7.22222C42.2218 11.2031 38.9833 14.4444 34.9996 14.4444Z" fill="url(#paint0_linear_229_3393)"/>
<path fill-rule="evenodd" clip-rule="evenodd" d="M37.8889 66.4446C36.7796 66.4446 35.7684 66.0257 35 65.3382C34.2316 66.0257 33.2204 66.4446 32.1111 66.4446C29.722 66.4446 27.7778 64.5004 27.7778 62.1113V43.088C27.3271 43.2469 26.8389 43.3335 26.3333 43.3335C23.9442 43.3335 22 41.3893 22 39.0002V21.6669C22 19.1217 23.3838 16.7355 25.6053 15.4413C26.2871 15.0426 27.1769 15.2709 27.5842 15.9642C27.9829 16.6546 27.7489 17.5386 27.0613 17.9373C25.7007 18.7289 24.8889 20.1242 24.8889 21.6669V39.0002C24.8889 39.7975 25.5389 40.4446 26.3333 40.4446C27.1278 40.4446 27.7778 39.7975 27.7778 39.0002C27.7778 38.2029 28.4249 37.5557 29.2222 37.5557C30.0196 37.5557 30.6667 38.2029 30.6667 39.0002V62.1113C30.6667 62.9086 31.3167 63.5557 32.1111 63.5557C32.9056 63.5557 33.5556 62.9086 33.5556 62.1113C33.5556 61.314 34.2027 60.6669 35 60.6669C35.7973 60.6669 36.4444 61.314 36.4444 62.1113C36.4444 62.9086 37.0944 63.5557 37.8889 63.5557C38.6833 63.5557 39.3333 62.9086 39.3333 62.1113V39.0002C39.3333 38.2029 39.9804 37.5557 40.7778 37.5557C41.5751 37.5557 42.2222 38.2029 42.2222 39.0002C42.2222 39.7975 42.8722 40.4446 43.6667 40.4446C44.4611 40.4446 45.1111 39.7975 45.1111 39.0002V21.6669C45.1111 20.1242 44.2993 18.7289 42.9387 17.9373C42.2511 17.5386 42.0171 16.6546 42.4158 15.9642C42.8202 15.2709 43.7071 15.0426 44.3947 15.4413C46.6162 16.7355 48 19.1217 48 21.6669V39.0002C48 41.3893 46.0558 43.3335 43.6667 43.3335C43.1611 43.3335 42.6729 43.2469 42.2222 43.088V62.1113C42.2222 64.5004 40.278 66.4446 37.8889 66.4446Z" fill="url(#paint1_linear_229_3393)"/>
<path fill-rule="evenodd" clip-rule="evenodd" d="M40.7775 40.4444C39.9801 40.4444 39.333 39.7973 39.333 39V27.4444C39.333 26.6471 39.9801 26 40.7775 26C41.5748 26 42.2219 26.6471 42.2219 27.4444V39C42.2219 39.7973 41.5748 40.4444 40.7775 40.4444Z" fill="url(#paint2_linear_229_3393)"/>
<path fill-rule="evenodd" clip-rule="evenodd" d="M29.2218 40.4444C28.4245 40.4444 27.7773 39.7973 27.7773 39V27.4444C27.7773 26.6471 28.4245 26 29.2218 26C30.0191 26 30.6662 26.6471 30.6662 27.4444V39C30.6662 39.7973 30.0191 40.4444 29.2218 40.4444Z" fill="url(#paint3_linear_229_3393)"/>
<path fill-rule="evenodd" clip-rule="evenodd" d="M35.0001 63.5555C34.2028 63.5555 33.5557 62.9084 33.5557 62.111V44.7777C33.5557 43.9804 34.2028 43.3333 35.0001 43.3333C35.7974 43.3333 36.4446 43.9804 36.4446 44.7777V62.111C36.4446 62.9084 35.7974 63.5555 35.0001 63.5555Z" fill="url(#paint4_linear_229_3393)"/>
</g>
<defs>
<linearGradient id="paint0_linear_229_3393" x1="27.7773" y1="0" x2="42.2218" y2="14.4444" gradientUnits="userSpaceOnUse">
<stop stop-color="#E1CDB6"/>
<stop offset="1" stop-color="#B9895B"/>
</linearGradient>
<linearGradient id="paint1_linear_229_3393" x1="22" y1="15.2456" x2="63.3393" y2="36.2386" gradientUnits="userSpaceOnUse">
<stop stop-color="#E1CDB6"/>
<stop offset="1" stop-color="#B9895B"/>
</linearGradient>
<linearGradient id="paint2_linear_229_3393" x1="39.333" y1="26" x2="44.8886" y2="27.1111" gradientUnits="userSpaceOnUse">
<stop stop-color="#E1CDB6"/>
<stop offset="1" stop-color="#B9895B"/>
</linearGradient>
<linearGradient id="paint3_linear_229_3393" x1="27.7773" y1="26" x2="33.3329" y2="27.1111" gradientUnits="userSpaceOnUse">
<stop stop-color="#E1CDB6"/>
<stop offset="1" stop-color="#B9895B"/>
</linearGradient>
<linearGradient id="paint4_linear_229_3393" x1="33.5557" y1="43.3333" x2="39.2179" y2="44.1421" gradientUnits="userSpaceOnUse">
<stop stop-color="#E1CDB6"/>
<stop offset="1" stop-color="#B9895B"/>
</linearGradient>
<clipPath id="clip0_229_3393">
<rect width="69" height="66" fill="white"/>
</clipPath>
</defs>
</svg>
