<svg width="69" height="66" viewBox="0 0 69 66" fill="none" xmlns="http://www.w3.org/2000/svg">
<path fill-rule="evenodd" clip-rule="evenodd" d="M5.62493 40.4025C6.48331 40.9301 7.77481 41.9434 8.20006 43.4528C8.24993 43.6234 8.29718 43.8806 8.34968 44.214C8.61481 45.8363 9.16343 49.212 12.9513 51.9289C14.7389 53.2073 20.3276 53.4986 26.2496 51.7373C30.8092 50.3801 31.8881 44.9333 31.8986 44.8781C32.1191 43.479 33.1428 42.5025 34.4396 42.4841C35.8623 42.4973 36.8309 43.4475 37.1013 44.8755C37.1197 44.9648 38.2379 50.3959 42.7503 51.7373C48.6723 53.4986 54.2636 53.2073 56.0486 51.9289C59.8364 49.212 60.3851 45.8363 60.6502 44.214C60.7027 43.8806 60.7499 43.6234 60.7998 43.4554C61.2251 41.9434 62.5166 40.9301 63.3749 40.4025V36.9008C46.5618 31.8083 36.5343 37.0346 36.4346 37.0898C36.2429 37.1921 36.0303 37.2446 35.8124 37.2446H33.1874C32.9722 37.2446 32.7596 37.1921 32.5706 37.0898C32.4656 37.0346 22.3541 31.8345 5.62493 36.9008V40.4025ZM18.0859 55.5988C15.3664 55.5988 12.933 55.1447 11.4236 54.0632C6.74588 50.7111 6.02662 46.2958 5.75887 44.6342C5.72475 44.4294 5.70113 44.2667 5.67488 44.1617C5.43338 43.3007 4.18912 42.5683 3.77437 42.3793C3.3045 42.1667 3 41.6994 3 41.1823V35.9323C3 35.3627 3.37012 34.8587 3.9135 34.6828C20.85 29.2543 31.5338 33.6827 33.4972 34.6198H35.5028C37.4636 33.6853 48.1421 29.2569 65.0865 34.6828C65.6299 34.8587 66 35.3627 66 35.9323V41.1823C66 41.7021 65.6955 42.1719 65.2204 42.3819C64.8109 42.5683 63.5666 43.3007 63.3251 44.1643C63.2989 44.2667 63.2752 44.4294 63.2411 44.6342C62.9734 46.2958 62.2541 50.7111 57.5764 54.0632C54.4552 56.2997 47.373 55.8508 41.9996 54.2548C35.9411 52.4488 34.584 45.6894 34.5236 45.3666C34.5157 45.3246 34.5052 45.2904 34.4974 45.2589C34.4921 45.2799 34.4869 45.3036 34.4843 45.3272C34.4239 45.6527 33.0746 52.4462 27.0004 54.2522C24.2231 55.0791 20.9891 55.5988 18.0859 55.5988Z" fill="url(#paint0_linear_229_3365)"/>
<path fill-rule="evenodd" clip-rule="evenodd" d="M64.6873 37.2455C64.2253 37.2455 63.7764 37.0014 63.5376 36.5683L51.2394 14.2742C50.8431 13.5838 50.1553 13.6127 49.9506 13.6389C49.7484 13.6625 49.0686 13.8043 48.8454 14.5813L47.5382 18.0122C47.2783 18.6894 46.5197 19.028 45.8424 18.7682C45.1652 18.5083 44.8292 17.7497 45.0864 17.0724L46.3596 13.7518C46.7638 12.308 48.0343 11.2265 49.6356 11.0323C51.2342 10.8302 52.7252 11.5888 53.5284 12.9879L65.8344 35.2978C66.1862 35.933 65.9552 36.731 65.3199 37.0828C65.1204 37.193 64.9026 37.2455 64.6873 37.2455Z" fill="url(#paint1_linear_229_3365)"/>
<path fill-rule="evenodd" clip-rule="evenodd" d="M4.31248 37.2455C4.09723 37.2455 3.87936 37.193 3.67986 37.0828C3.04461 36.731 2.81361 35.933 3.16273 35.2978L15.4635 13.0063C16.2746 11.5888 17.7682 10.8301 19.3642 11.0323C20.9655 11.2265 22.236 12.308 22.677 13.8594L23.9134 17.0724C24.1706 17.7496 23.832 18.5083 23.1574 18.7681C22.4854 19.028 21.7215 18.6894 21.4616 18.0121L20.1911 14.6889C19.9312 13.8043 19.2514 13.6625 19.0492 13.6389C18.8445 13.6126 18.1515 13.5864 17.7525 14.2899L5.45961 36.5683C5.22336 37.0014 4.77448 37.2455 4.31248 37.2455Z" fill="url(#paint2_linear_229_3365)"/>
<path fill-rule="evenodd" clip-rule="evenodd" d="M12.3783 44.8952C11.764 44.8952 11.2154 44.4594 11.092 43.8347C10.9687 43.1916 10.903 42.4329 10.9004 41.5798C10.8925 39.6399 12.3232 37.9731 14.2342 37.7053C14.9377 37.5924 15.6123 38.1043 15.7147 38.8236C15.817 39.5402 15.3157 40.2043 14.599 40.3041C13.9927 40.3907 13.5228 40.9446 13.5254 41.5693C13.5254 42.2492 13.5779 42.8582 13.6698 43.3307C13.8089 44.0421 13.3417 44.7324 12.6329 44.8716C12.5489 44.8873 12.4623 44.8952 12.3783 44.8952Z" fill="url(#paint3_linear_229_3365)"/>
<path fill-rule="evenodd" clip-rule="evenodd" d="M41.2656 45.1053C40.6539 45.1053 40.1053 44.6722 39.9819 44.0474C39.8061 43.1654 39.7378 42.2861 39.7851 41.5038C39.8901 39.7319 41.1763 38.2541 42.9167 37.9076C43.6176 37.7763 44.3158 38.2304 44.4576 38.9418C44.5993 39.6532 44.1373 40.3436 43.4233 40.4853C42.8589 40.5956 42.4363 41.0786 42.4048 41.6561C42.3733 42.2099 42.4258 42.8793 42.5544 43.5382C42.6962 44.2496 42.2342 44.9399 41.5228 45.0817C41.4362 45.0974 41.3496 45.1053 41.2656 45.1053Z" fill="url(#paint4_linear_229_3365)"/>
<defs>
<linearGradient id="paint0_linear_229_3365" x1="3" y1="32.0291" x2="18.4706" y2="73.3807" gradientUnits="userSpaceOnUse">
<stop stop-color="#E1CDB6"/>
<stop offset="1" stop-color="#B9895B"/>
</linearGradient>
<linearGradient id="paint1_linear_229_3365" x1="45" y1="11" x2="70.6061" y2="31.4873" gradientUnits="userSpaceOnUse">
<stop stop-color="#E1CDB6"/>
<stop offset="1" stop-color="#B9895B"/>
</linearGradient>
<linearGradient id="paint2_linear_229_3365" x1="3" y1="11" x2="28.6062" y2="31.4879" gradientUnits="userSpaceOnUse">
<stop stop-color="#E1CDB6"/>
<stop offset="1" stop-color="#B9895B"/>
</linearGradient>
<linearGradient id="paint3_linear_229_3365" x1="10.9004" y1="37.6897" x2="17.5642" y2="42.1544" gradientUnits="userSpaceOnUse">
<stop stop-color="#E1CDB6"/>
<stop offset="1" stop-color="#B9895B"/>
</linearGradient>
<linearGradient id="paint4_linear_229_3365" x1="39.7705" y1="37.885" x2="46.3801" y2="42.199" gradientUnits="userSpaceOnUse">
<stop stop-color="#E1CDB6"/>
<stop offset="1" stop-color="#B9895B"/>
</linearGradient>
</defs>
</svg>
