<svg width="69" height="66" viewBox="0 0 69 66" fill="none" xmlns="http://www.w3.org/2000/svg">
<path fill-rule="evenodd" clip-rule="evenodd" d="M46.5404 57.6801H2.38044C1.86984 57.6801 1.4034 57.3986 1.16604 56.9515C0.92316 56.5016 0.948 55.9579 1.23228 55.5356L6.75228 47.2556C7.00896 46.8692 7.43952 46.6401 7.90044 46.6401H52.0604C52.8222 46.6401 53.4404 47.2583 53.4404 48.0201C53.4404 48.7819 52.8222 49.4001 52.0604 49.4001H8.64012L4.96104 54.9201H46.5404C55.9686 54.9201 63.7214 47.6116 64.428 38.3601H10.6604C9.89868 38.3601 9.28044 37.7419 9.28044 36.9801C9.28044 36.2183 9.89868 35.6001 10.6604 35.6001H65.8604C66.6222 35.6001 67.2404 36.2183 67.2404 36.9801C67.2404 48.3955 57.9558 57.6801 46.5404 57.6801Z" fill="url(#paint0_linear_225_1655)"/>
<path fill-rule="evenodd" clip-rule="evenodd" d="M13.4208 49.4001C13.1034 49.4001 12.7833 49.2897 12.5238 49.0661C11.9442 48.5721 11.8752 47.6999 12.372 47.1231L28.932 27.8031C29.197 27.4967 29.5779 27.3201 29.9808 27.3201H46.5408C47.0017 27.3201 47.4323 27.5491 47.689 27.9355L53.209 36.2155C53.6313 36.8503 53.4601 37.7059 52.8253 38.1282C52.1961 38.545 51.3349 38.3794 50.9127 37.7446L45.8011 30.0801H30.6129L14.4696 48.9171C14.1936 49.2372 13.81 49.4001 13.4208 49.4001Z" fill="url(#paint1_linear_225_1655)"/>
<path fill-rule="evenodd" clip-rule="evenodd" d="M38.2596 30.0801H18.9396C18.1778 30.0801 17.5596 29.4618 17.5596 28.7001C17.5596 27.9383 18.1778 27.3201 18.9396 27.3201H38.2596C39.0213 27.3201 39.6396 27.9383 39.6396 28.7001C39.6396 29.4618 39.0213 30.0801 38.2596 30.0801Z" fill="url(#paint2_linear_225_1655)"/>
<path fill-rule="evenodd" clip-rule="evenodd" d="M36.0715 13.5201H39.6402V10.7601H36.0715L36.4745 11.1631C37.0154 11.704 37.0154 12.5762 36.4745 13.1172L36.0715 13.5201ZM41.0188 30.08C40.257 30.08 39.6388 29.4618 39.6388 28.7V16.28H32.7388C32.1812 16.28 31.6762 15.9433 31.4636 15.4272C31.2511 14.911 31.3698 14.3204 31.7617 13.923L33.5474 12.14L31.7617 10.357C31.3698 9.9596 31.2511 9.36896 31.4636 8.85284C31.6762 8.33672 32.1812 8 32.7388 8H41.0188C41.7805 8 42.3988 8.61824 42.3988 9.38V28.7C42.3988 29.4618 41.7805 30.08 41.0188 30.08Z" fill="url(#paint3_linear_225_1655)"/>
<path fill-rule="evenodd" clip-rule="evenodd" d="M32.7398 43.8801H27.2198C26.4581 43.8801 25.8398 43.2619 25.8398 42.5001C25.8398 41.7384 26.4581 41.1201 27.2198 41.1201H32.7398C33.5016 41.1201 34.1198 41.7384 34.1198 42.5001C34.1198 43.2619 33.5016 43.8801 32.7398 43.8801Z" fill="url(#paint4_linear_225_1655)"/>
<path fill-rule="evenodd" clip-rule="evenodd" d="M43.7799 43.8801H38.2599C37.4981 43.8801 36.8799 43.2619 36.8799 42.5001C36.8799 41.7384 37.4981 41.1201 38.2599 41.1201H43.7799C44.5416 41.1201 45.1599 41.7384 45.1599 42.5001C45.1599 43.2619 44.5416 43.8801 43.7799 43.8801Z" fill="url(#paint5_linear_225_1655)"/>
<path fill-rule="evenodd" clip-rule="evenodd" d="M54.8199 43.8801H49.2999C48.5382 43.8801 47.9199 43.2619 47.9199 42.5001C47.9199 41.7384 48.5382 41.1201 49.2999 41.1201H54.8199C55.5817 41.1201 56.1999 41.7384 56.1999 42.5001C56.1999 43.2619 55.5817 43.8801 54.8199 43.8801Z" fill="url(#paint6_linear_225_1655)"/>
<defs>
<linearGradient id="paint0_linear_225_1655" x1="1" y1="35.6001" x2="14.2479" y2="75.3442" gradientUnits="userSpaceOnUse">
<stop stop-color="#E1CDB6"/>
<stop offset="1" stop-color="#B9895B"/>
</linearGradient>
<linearGradient id="paint1_linear_225_1655" x1="12.04" y1="27.3201" x2="30.3762" y2="61.7009" gradientUnits="userSpaceOnUse">
<stop stop-color="#E1CDB6"/>
<stop offset="1" stop-color="#B9895B"/>
</linearGradient>
<linearGradient id="paint2_linear_225_1655" x1="17.5596" y1="27.3201" x2="18.239" y2="32.7551" gradientUnits="userSpaceOnUse">
<stop stop-color="#E1CDB6"/>
<stop offset="1" stop-color="#B9895B"/>
</linearGradient>
<linearGradient id="paint3_linear_225_1655" x1="31.3594" y1="8" x2="49.0228" y2="16.8312" gradientUnits="userSpaceOnUse">
<stop stop-color="#E1CDB6"/>
<stop offset="1" stop-color="#B9895B"/>
</linearGradient>
<linearGradient id="paint4_linear_225_1655" x1="25.8398" y1="41.1201" x2="27.4958" y2="46.0881" gradientUnits="userSpaceOnUse">
<stop stop-color="#E1CDB6"/>
<stop offset="1" stop-color="#B9895B"/>
</linearGradient>
<linearGradient id="paint5_linear_225_1655" x1="36.8799" y1="41.1201" x2="38.5359" y2="46.0881" gradientUnits="userSpaceOnUse">
<stop stop-color="#E1CDB6"/>
<stop offset="1" stop-color="#B9895B"/>
</linearGradient>
<linearGradient id="paint6_linear_225_1655" x1="47.9199" y1="41.1201" x2="49.5759" y2="46.0881" gradientUnits="userSpaceOnUse">
<stop stop-color="#E1CDB6"/>
<stop offset="1" stop-color="#B9895B"/>
</linearGradient>
</defs>
</svg>
