<svg width="61" height="58" viewBox="0 0 61 58" fill="none" xmlns="http://www.w3.org/2000/svg">
<g clip-path="url(#clip0_229_3310)">
<path fill-rule="evenodd" clip-rule="evenodd" d="M30.2607 2.52051C15.6599 2.52051 3.78248 14.3979 3.78248 28.9988C3.78248 43.5996 15.6599 55.477 30.2607 55.477C44.8616 55.477 56.739 43.5996 56.739 28.9988C56.739 14.3979 44.8616 2.52051 30.2607 2.52051ZM30.2607 57.9988C14.2704 57.9988 1.26074 44.9891 1.26074 28.9988C1.26074 13.0084 14.2704 -0.0012207 30.2607 -0.0012207C46.2511 -0.0012207 59.2607 13.0084 59.2607 28.9988C59.2607 44.9891 46.2511 57.9988 30.2607 57.9988Z" fill="url(#paint0_linear_229_3310)"/>
<path fill-rule="evenodd" clip-rule="evenodd" d="M28.6551 25.6115L33.6481 30.602L37.809 21.4506L28.6551 25.6115ZM34.0438 34.0416C33.7109 34.0416 33.3906 33.913 33.1511 33.6734L25.5858 26.1082C25.2933 25.8157 25.1622 25.3996 25.2378 24.9911C25.311 24.5851 25.5783 24.2396 25.9565 24.0681L39.8261 17.7638C40.3027 17.5494 40.8676 17.6503 41.2383 18.021C41.6115 18.3917 41.7124 18.954 41.4955 19.4331L35.1911 33.3027C35.0197 33.6785 34.6767 33.9483 34.2682 34.0214C34.1925 34.0365 34.1169 34.0416 34.0438 34.0416Z" fill="url(#paint1_linear_229_3310)"/>
<path fill-rule="evenodd" clip-rule="evenodd" d="M26.8736 27.3945L22.7152 36.5459L31.8666 32.385L26.8736 27.3945ZM20.1754 40.3461C19.8476 40.3461 19.5248 40.2175 19.2827 39.9779C18.912 39.6047 18.8112 39.0424 19.028 38.5632L25.3324 24.6937C25.5013 24.3179 25.8468 24.0481 26.2553 23.975C26.6639 23.9018 27.08 24.033 27.37 24.3255L34.9352 31.8907C35.2277 32.1807 35.3588 32.5993 35.2857 33.0078C35.2126 33.4138 34.9427 33.7568 34.567 33.9283L20.6974 40.2326C20.5285 40.3108 20.352 40.3461 20.1754 40.3461Z" fill="url(#paint2_linear_229_3310)"/>
<path fill-rule="evenodd" clip-rule="evenodd" d="M6.30422 30.2595H2.52161C1.82561 30.2595 1.26074 29.6947 1.26074 28.9987C1.26074 28.3027 1.82561 27.7378 2.52161 27.7378H6.30422C7.00022 27.7378 7.56509 28.3027 7.56509 28.9987C7.56509 29.6947 7.00022 30.2595 6.30422 30.2595Z" fill="url(#paint3_linear_229_3310)"/>
<path fill-rule="evenodd" clip-rule="evenodd" d="M57.9995 30.2595H54.2169C53.5209 30.2595 52.9561 29.6947 52.9561 28.9987C52.9561 28.3027 53.5209 27.7378 54.2169 27.7378H57.9995C58.6955 27.7378 59.2604 28.3027 59.2604 28.9987C59.2604 29.6947 58.6955 30.2595 57.9995 30.2595Z" fill="url(#paint4_linear_229_3310)"/>
<path fill-rule="evenodd" clip-rule="evenodd" d="M30.261 50.4335C18.4416 50.4335 8.82617 40.8181 8.82617 28.9988C8.82617 19.7263 14.7447 11.5508 23.5531 8.65337C24.2138 8.43398 24.9275 8.79459 25.1443 9.4578C25.3637 10.1185 25.0031 10.8322 24.3399 11.049C16.5679 13.6061 11.3479 20.8182 11.3479 28.9988C11.3479 39.4287 19.831 47.9118 30.261 47.9118C40.6909 47.9118 49.174 39.4287 49.174 28.9988C49.174 20.8182 43.954 13.6061 36.182 11.049C35.5188 10.8322 35.1582 10.1185 35.3776 9.4578C35.5944 8.79459 36.303 8.43398 36.9688 8.65337C45.7772 11.5508 51.6957 19.7263 51.6957 28.9988C51.6957 40.8181 42.0803 50.4335 30.261 50.4335Z" fill="url(#paint5_linear_229_3310)"/>
<path fill-rule="evenodd" clip-rule="evenodd" d="M30.2609 57.9987C29.5649 57.9987 29 57.4338 29 56.7378V52.9552C29 52.2592 29.5649 51.6943 30.2609 51.6943C30.9569 51.6943 31.5217 52.2592 31.5217 52.9552V56.7378C31.5217 57.4338 30.9569 57.9987 30.2609 57.9987Z" fill="url(#paint6_linear_229_3310)"/>
<path fill-rule="evenodd" clip-rule="evenodd" d="M32.7829 12.6075C32.455 12.6075 32.1323 12.4789 31.8902 12.2394L29.0003 9.34692V11.3467C29.0003 12.0427 28.4354 12.6075 27.7394 12.6075C27.0434 12.6075 26.4785 12.0427 26.4785 11.3467V6.30319C26.4785 5.79379 26.7862 5.33232 27.2577 5.13814C27.7268 4.94145 28.2715 5.0524 28.6321 5.41049L31.522 8.30292V6.30319C31.522 5.60719 32.0869 5.04232 32.7829 5.04232C33.4789 5.04232 34.0437 5.60719 34.0437 6.30319V11.3467C34.0437 11.8561 33.7361 12.3175 33.2645 12.5117C33.1107 12.5773 32.9443 12.6075 32.7829 12.6075Z" fill="url(#paint7_linear_229_3310)"/>
</g>
<defs>
<linearGradient id="paint0_linear_229_3310" x1="1.26074" y1="-0.0012207" x2="59.2607" y2="57.9988" gradientUnits="userSpaceOnUse">
<stop stop-color="#E1CDB6"/>
<stop offset="1" stop-color="#B9895B"/>
</linearGradient>
<linearGradient id="paint1_linear_229_3310" x1="25.2168" y1="17.6526" x2="41.6058" y2="34.0442" gradientUnits="userSpaceOnUse">
<stop stop-color="#E1CDB6"/>
<stop offset="1" stop-color="#B9895B"/>
</linearGradient>
<linearGradient id="paint2_linear_229_3310" x1="18.915" y1="23.9551" x2="35.3061" y2="40.3456" gradientUnits="userSpaceOnUse">
<stop stop-color="#E1CDB6"/>
<stop offset="1" stop-color="#B9895B"/>
</linearGradient>
<linearGradient id="paint3_linear_229_3310" x1="1.26074" y1="27.7378" x2="2.99987" y2="32.0856" gradientUnits="userSpaceOnUse">
<stop stop-color="#E1CDB6"/>
<stop offset="1" stop-color="#B9895B"/>
</linearGradient>
<linearGradient id="paint4_linear_229_3310" x1="52.9561" y1="27.7378" x2="54.6952" y2="32.0856" gradientUnits="userSpaceOnUse">
<stop stop-color="#E1CDB6"/>
<stop offset="1" stop-color="#B9895B"/>
</linearGradient>
<linearGradient id="paint5_linear_229_3310" x1="8.82617" y1="8.58911" x2="50.6583" y2="51.4461" gradientUnits="userSpaceOnUse">
<stop stop-color="#E1CDB6"/>
<stop offset="1" stop-color="#B9895B"/>
</linearGradient>
<linearGradient id="paint6_linear_229_3310" x1="29" y1="51.6943" x2="33.3478" y2="53.4335" gradientUnits="userSpaceOnUse">
<stop stop-color="#E1CDB6"/>
<stop offset="1" stop-color="#B9895B"/>
</linearGradient>
<linearGradient id="paint7_linear_229_3310" x1="26.4785" y1="5.04175" x2="34.0443" y2="12.607" gradientUnits="userSpaceOnUse">
<stop stop-color="#E1CDB6"/>
<stop offset="1" stop-color="#B9895B"/>
</linearGradient>
<clipPath id="clip0_229_3310">
<rect width="60.5217" height="58" fill="white"/>
</clipPath>
</defs>
</svg>
