<svg width="70" height="66" viewBox="0 0 70 66" fill="none" xmlns="http://www.w3.org/2000/svg">
<path fill-rule="evenodd" clip-rule="evenodd" d="M10.0901 19.8736C6.11461 19.8736 2.88289 23.1082 2.88289 27.0808V55.9097C2.88289 59.8824 6.11461 63.117 10.0901 63.117H59.0993C63.0748 63.117 66.3065 59.8824 66.3065 55.9097V27.0808C66.3065 23.1082 63.0748 19.8736 59.0993 19.8736H10.0901ZM59.0993 65.9999H10.0901C4.52614 65.9999 0 61.4737 0 55.9098V27.0808C0 21.5169 4.52614 16.9907 10.0901 16.9907H59.0993C64.6633 16.9907 69.1894 21.5169 69.1894 27.0808V55.9098C69.1894 61.4737 64.6633 65.9999 59.0993 65.9999Z" fill="url(#paint0_linear_229_3290)"/>
<path fill-rule="evenodd" clip-rule="evenodd" d="M56.2164 40.0541C55.4236 40.0541 54.775 40.6999 54.775 41.4955C54.775 42.2912 55.4236 42.937 56.2164 42.937C57.0092 42.937 57.6578 42.2912 57.6578 41.4955C57.6578 40.6999 57.0092 40.0541 56.2164 40.0541ZM56.2159 45.8198C53.8318 45.8198 51.8916 43.8796 51.8916 41.4955C51.8916 39.1113 53.8318 37.1711 56.2159 37.1711C58.6001 37.1711 60.5403 39.1113 60.5403 41.4955C60.5403 43.8796 58.6001 45.8198 56.2159 45.8198Z" fill="url(#paint1_linear_229_3290)"/>
<path fill-rule="evenodd" clip-rule="evenodd" d="M56.2164 34.2882C52.2409 34.2882 49.0092 37.5228 49.0092 41.4954C49.0092 45.468 52.2409 48.7026 56.2164 48.7026H66.3065V34.2882H56.2164ZM67.7477 51.5855H56.2161C50.6521 51.5855 46.126 47.0594 46.126 41.4954C46.126 35.9314 50.6521 31.4053 56.2161 31.4053H67.7477C68.5433 31.4053 69.1891 32.051 69.1891 32.8467V50.1441C69.1891 50.9398 68.5433 51.5855 67.7477 51.5855Z" fill="url(#paint2_linear_229_3290)"/>
<path fill-rule="evenodd" clip-rule="evenodd" d="M57.6573 19.8738C57.1298 19.8738 56.6224 19.5826 56.3687 19.0781L50.2656 6.86907C49.3863 5.11051 47.867 3.81609 45.9932 3.22221C44.1222 2.62834 42.133 2.81572 40.4032 3.74978L10.7729 19.7008C10.0752 20.0785 9.19882 19.8161 8.82116 19.1156C8.4435 18.4151 8.70584 17.5387 9.40639 17.1639L39.0339 1.20995C41.4641 -0.093115 44.2433 -0.352575 46.8638 0.474815C49.4872 1.30509 51.6119 3.11843 52.8429 5.58042L58.946 17.7866C59.3006 18.4987 59.0152 19.3664 58.3031 19.721C58.0927 19.8248 57.8736 19.8738 57.6573 19.8738Z" fill="url(#paint3_linear_229_3290)"/>
<path fill-rule="evenodd" clip-rule="evenodd" d="M30.4754 19.8739C29.9651 19.8739 29.4692 19.6 29.2069 19.1157C28.8292 18.4152 29.0916 17.5417 29.7921 17.164L51.2091 5.63244C51.9068 5.25478 52.7832 5.51712 53.1609 6.21767C53.5385 6.91821 53.2762 7.79172 52.5756 8.16938L31.1615 19.701C30.9424 19.8191 30.706 19.8739 30.4754 19.8739Z" fill="url(#paint4_linear_229_3290)"/>
<path fill-rule="evenodd" clip-rule="evenodd" d="M1.44145 28.5223C0.645768 28.5223 0 27.8765 0 27.0808V24.1979C0 15.4541 7.11498 8.34204 15.8559 8.34204H25.946C26.7417 8.34204 27.3875 8.98781 27.3875 9.78349C27.3875 10.5792 26.7417 11.2249 25.946 11.2249H15.8559C8.70345 11.2249 2.88289 17.0455 2.88289 24.1979V27.0808C2.88289 27.8765 2.23712 28.5223 1.44145 28.5223Z" fill="url(#paint5_linear_229_3290)"/>
<path fill-rule="evenodd" clip-rule="evenodd" d="M67.7475 28.5223C66.9518 28.5223 66.3061 27.8765 66.3061 27.0808V24.1979C66.3061 17.0455 60.4855 11.2249 53.333 11.2249C52.5374 11.2249 51.8916 10.5792 51.8916 9.78349C51.8916 8.98781 52.5374 8.34204 53.333 8.34204C62.074 8.34204 69.189 15.4541 69.189 24.1979V27.0808C69.189 27.8765 68.5432 28.5223 67.7475 28.5223Z" fill="url(#paint6_linear_229_3290)"/>
<defs>
<linearGradient id="paint0_linear_229_3290" x1="0" y1="16.9907" x2="46.2329" y2="82.2607" gradientUnits="userSpaceOnUse">
<stop stop-color="#E1CDB6"/>
<stop offset="1" stop-color="#B9895B"/>
</linearGradient>
<linearGradient id="paint1_linear_229_3290" x1="51.8916" y1="37.1711" x2="60.5403" y2="45.8198" gradientUnits="userSpaceOnUse">
<stop stop-color="#E1CDB6"/>
<stop offset="1" stop-color="#B9895B"/>
</linearGradient>
<linearGradient id="paint2_linear_229_3290" x1="46.126" y1="31.4053" x2="66.1276" y2="54.2643" gradientUnits="userSpaceOnUse">
<stop stop-color="#E1CDB6"/>
<stop offset="1" stop-color="#B9895B"/>
</linearGradient>
<linearGradient id="paint3_linear_229_3290" x1="8.64844" y1="0" x2="22.2029" y2="34.4081" gradientUnits="userSpaceOnUse">
<stop stop-color="#E1CDB6"/>
<stop offset="1" stop-color="#B9895B"/>
</linearGradient>
<linearGradient id="paint4_linear_229_3290" x1="29.0342" y1="5.45972" x2="41.6838" y2="26.7845" gradientUnits="userSpaceOnUse">
<stop stop-color="#E1CDB6"/>
<stop offset="1" stop-color="#B9895B"/>
</linearGradient>
<linearGradient id="paint5_linear_229_3290" x1="0" y1="8.34204" x2="19.2745" y2="34.5003" gradientUnits="userSpaceOnUse">
<stop stop-color="#E1CDB6"/>
<stop offset="1" stop-color="#B9895B"/>
</linearGradient>
<linearGradient id="paint6_linear_229_3290" x1="51.8916" y1="8.34204" x2="71.8344" y2="25.4359" gradientUnits="userSpaceOnUse">
<stop stop-color="#E1CDB6"/>
<stop offset="1" stop-color="#B9895B"/>
</linearGradient>
</defs>
</svg>
