<svg width="66" height="66" viewBox="0 0 66 66" fill="none" xmlns="http://www.w3.org/2000/svg">
<path fill-rule="evenodd" clip-rule="evenodd" d="M20.625 66C9.251 66 0 56.749 0 45.375C0 34.001 9.251 24.75 20.625 24.75C23.4217 24.75 26.1333 25.3 28.6825 26.3835C29.3838 26.6805 29.7083 27.489 29.4085 28.1875C29.1115 28.8832 28.3002 29.2133 27.6072 28.9135C25.3962 27.9758 23.0505 27.5 20.625 27.5C10.769 27.5 2.75 35.519 2.75 45.375C2.75 55.231 10.769 63.25 20.625 63.25C30.481 63.25 38.5 55.231 38.5 45.375C38.5 41.844 37.4715 38.4257 35.5218 35.4915C35.1037 34.859 35.2743 34.0065 35.9095 33.5858C36.5337 33.1678 37.3918 33.3355 37.8153 33.9735C40.062 37.356 41.25 41.2995 41.25 45.375C41.25 56.749 31.999 66 20.625 66Z" fill="url(#paint0_linear_229_3407)"/>
<path fill-rule="evenodd" clip-rule="evenodd" d="M45.375 66C42.592 66 39.8943 65.4555 37.3533 64.383C36.652 64.086 36.3247 63.2803 36.619 62.5817C36.9187 61.8805 37.7327 61.556 38.423 61.8503C40.623 62.7798 42.9632 63.25 45.375 63.25C55.231 63.25 63.25 55.231 63.25 45.375C63.25 35.519 55.231 27.5 45.375 27.5C35.519 27.5 27.5 35.519 27.5 45.375C27.5 48.9088 28.5285 52.3242 30.4728 55.253C30.8935 55.8855 30.723 56.7408 30.0877 57.1615C29.4608 57.5768 28.6027 57.409 28.1847 56.7765C25.938 53.394 24.75 49.4505 24.75 45.375C24.75 34.001 34.001 24.75 45.375 24.75C56.749 24.75 66 34.001 66 45.375C66 56.749 56.749 66 45.375 66Z" fill="url(#paint1_linear_229_3407)"/>
<path fill-rule="evenodd" clip-rule="evenodd" d="M28.8145 2.75C26.5733 2.75 24.75 4.807 24.75 7.33425C24.75 8.8 25.4457 9.9605 26.0287 10.6755C27.4422 12.3997 31.1823 16.5632 33 18.5735C34.815 16.5632 38.555 12.3997 39.9685 10.6755C40.5515 9.9605 41.25 8.8 41.25 7.33425C41.25 4.807 39.424 2.75 37.1827 2.75C35.9948 2.75 34.87 3.33575 34.0945 4.35875C33.5747 5.04075 32.4253 5.04075 31.9028 4.35875C31.1272 3.33575 30.0025 2.75 28.8145 2.75ZM33 22C32.6123 22 32.241 21.835 31.9797 21.549C31.7323 21.274 25.8335 14.7757 23.903 12.419C22.6572 10.8955 22 9.1355 22 7.33425C22 3.289 25.058 0 28.8145 0C30.3517 0 31.8147 0.55 33 1.5455C34.1825 0.55 35.6455 0 37.1827 0C40.9392 0 44 3.289 44 7.33425C44 9.1355 43.34 10.8955 42.0942 12.4162C40.1637 14.7757 34.265 21.274 34.0175 21.549C33.7562 21.835 33.385 22 33 22Z" fill="url(#paint2_linear_229_3407)"/>
<defs>
<linearGradient id="paint0_linear_229_3407" x1="0" y1="24.75" x2="41.25" y2="66" gradientUnits="userSpaceOnUse">
<stop stop-color="#E1CDB6"/>
<stop offset="1" stop-color="#B9895B"/>
</linearGradient>
<linearGradient id="paint1_linear_229_3407" x1="24.75" y1="24.75" x2="66" y2="66" gradientUnits="userSpaceOnUse">
<stop stop-color="#E1CDB6"/>
<stop offset="1" stop-color="#B9895B"/>
</linearGradient>
<linearGradient id="paint2_linear_229_3407" x1="22" y1="0" x2="44" y2="22" gradientUnits="userSpaceOnUse">
<stop stop-color="#E1CDB6"/>
<stop offset="1" stop-color="#B9895B"/>
</linearGradient>
</defs>
</svg>
