<svg width="69" height="55" viewBox="0 0 69 55" fill="none" xmlns="http://www.w3.org/2000/svg">
<path fill-rule="evenodd" clip-rule="evenodd" d="M29.166 48.4487C29.166 48.4487 29.166 48.4487 29.1689 48.4516C29.166 48.4487 29.166 48.4487 29.166 48.4487ZM29.1695 48.4517C29.1695 48.4517 29.1723 48.4517 29.1723 48.4546C29.1723 48.4517 29.1695 48.4517 29.1695 48.4517Z" fill="url(#paint0_linear_229_3420)"/>
<path fill-rule="evenodd" clip-rule="evenodd" d="M15.8125 31.625H1.4375C0.644 31.625 0 30.981 0 30.1875C0 29.394 0.644 28.75 1.4375 28.75H12.3424L10.7295 27.1371C9.92737 26.335 8.81475 25.875 7.682 25.875H4.3125C3.519 25.875 2.875 25.231 2.875 24.4375C2.875 23.644 3.519 23 4.3125 23H7.682C9.6025 23 11.4051 23.7475 12.7621 25.1045L16.8274 29.1697C17.2385 29.5837 17.3621 30.199 17.1407 30.7366C16.9194 31.2743 16.3932 31.625 15.8125 31.625Z" fill="url(#paint1_linear_229_3420)"/>
<path fill-rule="evenodd" clip-rule="evenodd" d="M15.8125 54.625H7.1875C4.80987 54.625 2.875 52.6901 2.875 50.3125V44.5625C2.875 43.769 3.519 43.125 4.3125 43.125C5.106 43.125 5.75 43.769 5.75 44.5625V50.3125C5.75 51.106 6.39687 51.75 7.1875 51.75H15.8125C16.6031 51.75 17.25 51.106 17.25 50.3125V46C17.25 45.2065 17.894 44.5625 18.6875 44.5625C19.481 44.5625 20.125 45.2065 20.125 46V50.3125C20.125 52.6901 18.1901 54.625 15.8125 54.625Z" fill="url(#paint2_linear_229_3420)"/>
<path fill-rule="evenodd" clip-rule="evenodd" d="M21.9018 46H47.0983L52.5436 43.2774C52.742 43.1767 52.9662 43.125 53.1876 43.125H64.9866C65.3862 41.2936 66.1251 37.3376 66.1251 33.0625C66.1251 27.6489 64.6818 24.6847 61.1456 22.8361C57.7042 21.0364 48.74 20.125 34.5001 20.125C20.2602 20.125 11.2931 21.0364 7.85172 22.8361C4.31835 24.6847 2.8751 27.6489 2.8751 33.0625C2.8751 37.3376 3.61397 41.2936 4.01072 43.125H15.8126C16.034 43.125 16.2553 43.1767 16.4537 43.2774L21.9018 46ZM47.4375 48.875H21.5625C21.3411 48.875 21.1169 48.8232 20.9185 48.7226L15.4732 46H2.875C2.22237 46 1.65312 45.563 1.4835 44.9334C1.426 44.7062 0 39.2897 0 33.0625C0 26.5851 2.00962 22.6464 6.5205 20.2889C10.4851 18.216 19.3775 17.25 34.5 17.25C49.6225 17.25 58.512 18.216 62.4766 20.2889C66.9904 22.6464 69 26.5851 69 33.0625C69 39.2897 67.574 44.7062 67.5136 44.9334C67.3469 45.563 66.7747 46 66.125 46H53.5267L48.0786 48.7226C47.8802 48.8232 47.6589 48.875 47.4375 48.875Z" fill="url(#paint3_linear_229_3420)"/>
<path fill-rule="evenodd" clip-rule="evenodd" d="M67.5619 31.625H53.1869C52.6061 31.625 52.08 31.2743 51.8586 30.7366C51.6372 30.199 51.7609 29.5837 52.1691 29.1697L56.2344 25.1045C57.5942 23.7475 59.3969 23 61.3174 23H64.6869C65.4804 23 66.1244 23.644 66.1244 24.4375C66.1244 25.231 65.4804 25.875 64.6869 25.875H61.3174C60.1846 25.875 59.072 26.335 58.2699 27.1371L56.657 28.75H67.5619C68.3554 28.75 68.9994 29.394 68.9994 30.1875C68.9994 30.981 68.3554 31.625 67.5619 31.625Z" fill="url(#paint4_linear_229_3420)"/>
<path fill-rule="evenodd" clip-rule="evenodd" d="M25.875 40.2502H43.125V37.3752H25.875V40.2502ZM44.5625 43.1252H24.4375C23.6411 43.1252 23 42.4812 23 41.6877V35.9377C23 35.1442 23.6411 34.5002 24.4375 34.5002H44.5625C45.356 34.5002 46 35.1442 46 35.9377V41.6877C46 42.4812 45.356 43.1252 44.5625 43.1252Z" fill="url(#paint5_linear_229_3420)"/>
<path fill-rule="evenodd" clip-rule="evenodd" d="M61.8124 23C61.2604 23 60.7285 22.678 60.4927 22.1346C57.2469 14.6625 53.2765 6.3595 52.2501 5.40212C51.149 4.46775 46.4656 2.875 35.9374 2.875H33.0624C22.5341 2.875 17.8507 4.46775 16.7439 5.40787C15.7232 6.3595 11.7529 14.6625 8.50699 22.1346C8.19074 22.8649 7.33686 23.1984 6.61524 22.8792C5.88786 22.5659 5.55436 21.7177 5.86774 20.9904C7.50074 17.2299 12.9776 4.83575 14.8809 3.21712C17.2527 1.20175 24.0464 0 33.0624 0H35.9374C44.9534 0 51.747 1.20175 54.1189 3.21712C56.0221 4.83575 61.499 17.2299 63.132 20.9904C63.4454 21.7177 63.1119 22.5659 62.3845 22.8792C62.2005 22.9626 62.0021 23 61.8124 23Z" fill="url(#paint6_linear_229_3420)"/>
<path fill-rule="evenodd" clip-rule="evenodd" d="M61.8125 54.625H53.1875C50.8099 54.625 48.875 52.6901 48.875 50.3125V46C48.875 45.2065 49.519 44.5625 50.3125 44.5625C51.106 44.5625 51.75 45.2065 51.75 46V50.3125C51.75 51.106 52.3969 51.75 53.1875 51.75H61.8125C62.6031 51.75 63.25 51.106 63.25 50.3125V44.5625C63.25 43.769 63.894 43.125 64.6875 43.125C65.481 43.125 66.125 43.769 66.125 44.5625V50.3125C66.125 52.6901 64.1901 54.625 61.8125 54.625Z" fill="url(#paint7_linear_229_3420)"/>
<path fill-rule="evenodd" clip-rule="evenodd" d="M24.4368 37.375H20.1243C19.6729 37.375 19.2446 37.1623 18.9743 36.8L14.6618 31.05C14.1874 30.4147 14.3139 29.5148 14.9493 29.0375C15.5818 28.5632 16.4817 28.6897 16.9618 29.325L20.8431 34.5H24.4368C25.2303 34.5 25.8743 35.144 25.8743 35.9375C25.8743 36.731 25.2303 37.375 24.4368 37.375Z" fill="url(#paint8_linear_229_3420)"/>
<path fill-rule="evenodd" clip-rule="evenodd" d="M48.875 37.3753H44.5625C43.769 37.3753 43.125 36.7313 43.125 35.9378C43.125 35.1443 43.769 34.5003 44.5625 34.5003H48.1562L52.0375 29.3253C52.5176 28.6899 53.4175 28.5663 54.05 29.0378C54.6825 29.515 54.8119 30.4149 54.3375 31.0503L50.025 36.8003C49.7547 37.1625 49.3264 37.3753 48.875 37.3753Z" fill="url(#paint9_linear_229_3420)"/>
<path fill-rule="evenodd" clip-rule="evenodd" d="M38.8125 31.625H30.1875C29.394 31.625 28.75 30.981 28.75 30.1875C28.75 29.394 29.394 28.75 30.1875 28.75H38.8125C39.606 28.75 40.25 29.394 40.25 30.1875C40.25 30.981 39.606 31.625 38.8125 31.625Z" fill="url(#paint10_linear_229_3420)"/>
<defs>
<linearGradient id="paint0_linear_229_3420" x1="29.166" y1="48.4487" x2="29.1718" y2="48.455" gradientUnits="userSpaceOnUse">
<stop stop-color="#E1CDB6"/>
<stop offset="1" stop-color="#B9895B"/>
</linearGradient>
<linearGradient id="paint1_linear_229_3420" x1="0" y1="23" x2="6.90018" y2="36.7998" gradientUnits="userSpaceOnUse">
<stop stop-color="#E1CDB6"/>
<stop offset="1" stop-color="#B9895B"/>
</linearGradient>
<linearGradient id="paint2_linear_229_3420" x1="2.875" y1="43.125" x2="13.4904" y2="59.0481" gradientUnits="userSpaceOnUse">
<stop stop-color="#E1CDB6"/>
<stop offset="1" stop-color="#B9895B"/>
</linearGradient>
<linearGradient id="paint3_linear_229_3420" x1="0" y1="17.25" x2="23.957" y2="69.5197" gradientUnits="userSpaceOnUse">
<stop stop-color="#E1CDB6"/>
<stop offset="1" stop-color="#B9895B"/>
</linearGradient>
<linearGradient id="paint4_linear_229_3420" x1="51.75" y1="23" x2="58.6502" y2="36.7998" gradientUnits="userSpaceOnUse">
<stop stop-color="#E1CDB6"/>
<stop offset="1" stop-color="#B9895B"/>
</linearGradient>
<linearGradient id="paint5_linear_229_3420" x1="23" y1="34.5002" x2="28.6712" y2="49.6235" gradientUnits="userSpaceOnUse">
<stop stop-color="#E1CDB6"/>
<stop offset="1" stop-color="#B9895B"/>
</linearGradient>
<linearGradient id="paint6_linear_229_3420" x1="5.75" y1="0" x2="21.6125" y2="39.6555" gradientUnits="userSpaceOnUse">
<stop stop-color="#E1CDB6"/>
<stop offset="1" stop-color="#B9895B"/>
</linearGradient>
<linearGradient id="paint7_linear_229_3420" x1="48.875" y1="43.125" x2="59.4904" y2="59.0481" gradientUnits="userSpaceOnUse">
<stop stop-color="#E1CDB6"/>
<stop offset="1" stop-color="#B9895B"/>
</linearGradient>
<linearGradient id="paint8_linear_229_3420" x1="14.375" y1="28.7507" x2="22.6543" y2="39.79" gradientUnits="userSpaceOnUse">
<stop stop-color="#E1CDB6"/>
<stop offset="1" stop-color="#B9895B"/>
</linearGradient>
<linearGradient id="paint9_linear_229_3420" x1="43.125" y1="28.7522" x2="51.4029" y2="39.7904" gradientUnits="userSpaceOnUse">
<stop stop-color="#E1CDB6"/>
<stop offset="1" stop-color="#B9895B"/>
</linearGradient>
<linearGradient id="paint10_linear_229_3420" x1="28.75" y1="28.75" x2="30.1029" y2="34.1618" gradientUnits="userSpaceOnUse">
<stop stop-color="#E1CDB6"/>
<stop offset="1" stop-color="#B9895B"/>
</linearGradient>
</defs>
</svg>
