<svg width="69" height="66" viewBox="0 0 69 66" fill="none" xmlns="http://www.w3.org/2000/svg">
<g clip-path="url(#clip0_229_3449)">
<path fill-rule="evenodd" clip-rule="evenodd" d="M5.22547 24.5585L10.8338 33.6997C11.9378 35.4329 14.1955 36.0926 16.0695 35.2066L64.847 12.3207C64.8525 12.3124 64.858 12.2959 64.858 12.2738C62.167 10.6067 58.8937 10.3832 56.0591 11.5838L42.9271 17.377C42.5821 17.5288 42.1984 17.5343 41.8562 17.3963L31.6 13.2922C28.6744 11.6031 25.5501 10.7585 22.3761 10.7585H20.698L32.6019 19.6871C32.9966 19.9825 33.2008 20.4627 33.1456 20.9485C33.0904 21.437 32.7785 21.8565 32.3314 22.0552L15.8708 29.3195C14.4494 29.924 12.8458 29.7004 11.6507 28.7482L6.79315 24.8621C6.55027 24.6662 6.24391 24.5585 5.93203 24.5585H5.22547ZM14.3295 38.3558C12.0276 38.3558 9.79205 37.2076 8.49485 35.1625L1.58381 23.9017C1.32161 23.4739 1.31057 22.9412 1.55345 22.5051C1.79909 22.069 2.26001 21.7985 2.75681 21.7985H5.93081C6.86369 21.7985 7.78277 22.1215 8.51417 22.7038L13.3745 26.5927C13.7747 26.9101 14.3157 26.9818 14.7738 26.7859L29.0596 20.4793L15.7316 10.4825C15.2541 10.1265 15.0609 9.5055 15.2486 8.94246C15.4362 8.37942 15.9662 7.99854 16.5568 7.99854H22.3749C26.0374 7.99854 29.6447 8.97557 32.8049 10.8193L42.3407 14.6198L54.9622 9.0501C58.6302 7.49346 62.8255 7.78878 66.2203 9.82565C67.0952 10.3501 67.6113 11.2553 67.6168 12.2545C67.6223 13.2563 67.12 14.1671 66.2644 14.6943C66.223 14.7219 66.1761 14.7467 66.1264 14.7688L17.2385 37.7072C16.3029 38.146 15.3093 38.3558 14.3295 38.3558Z" fill="url(#paint0_linear_229_3449)"/>
<path fill-rule="evenodd" clip-rule="evenodd" d="M33.1189 57.6787H2.75891C1.99715 57.6787 1.37891 57.0605 1.37891 56.2987C1.37891 55.5369 1.99715 54.9187 2.75891 54.9187H33.1189C33.8807 54.9187 34.4989 55.5369 34.4989 56.2987C34.4989 57.0605 33.8807 57.6787 33.1189 57.6787Z" fill="url(#paint1_linear_229_3449)"/>
</g>
<defs>
<linearGradient id="paint0_linear_229_3449" x1="1.37891" y1="7.99854" x2="24.3746" y2="58.174" gradientUnits="userSpaceOnUse">
<stop stop-color="#E1CDB6"/>
<stop offset="1" stop-color="#B9895B"/>
</linearGradient>
<linearGradient id="paint1_linear_229_3449" x1="1.37891" y1="54.9187" x2="1.83573" y2="60.4006" gradientUnits="userSpaceOnUse">
<stop stop-color="#E1CDB6"/>
<stop offset="1" stop-color="#B9895B"/>
</linearGradient>
<clipPath id="clip0_229_3449">
<rect width="69" height="49.68" fill="white" transform="translate(0 8)"/>
</clipPath>
</defs>
</svg>
