<svg width="58" height="59" viewBox="0 0 58 59" fill="none" xmlns="http://www.w3.org/2000/svg">
<path fill-rule="evenodd" clip-rule="evenodd" d="M22.9587 2.41789C9.90383 2.41789 2.41699 7.70314 2.41699 16.9179C2.41699 26.1326 9.90383 31.4179 22.9587 31.4179C37.6447 31.4179 55.5837 24.7261 55.5837 16.9179C55.5837 9.10964 37.6447 2.41789 22.9587 2.41789ZM22.9583 33.8346C8.584 33.8346 0 27.5101 0 16.9179C0 6.32564 8.584 0.0012207 22.9583 0.0012207C39.1621 0.0012207 58 7.39139 58 16.9179C58 26.4444 39.1621 33.8346 22.9583 33.8346Z" fill="url(#paint0_linear_229_3761)"/>
<path fill-rule="evenodd" clip-rule="evenodd" d="M20.542 12.0846C5.64324 12.0846 2.41699 15.9585 2.41699 16.9179C2.41699 17.8749 5.64324 21.7512 20.542 21.7512C34.0004 21.7512 50.6416 18.7304 54.8683 16.9179C50.6392 15.1054 34.0004 12.0846 20.542 12.0846ZM20.5417 24.168C5.38192 24.168 0 20.2626 0 16.918C0 13.5733 5.38192 9.66797 20.5417 9.66797C31.4046 9.66797 58 12.8048 58 16.918C58 21.0287 31.4046 24.168 20.5417 24.168Z" fill="url(#paint1_linear_229_3761)"/>
<path fill-rule="evenodd" clip-rule="evenodd" d="M15.7087 45.9179C15.0441 45.9179 14.5003 46.4592 14.5003 47.1262V54.3762C14.5003 55.0432 15.0441 55.5846 15.7087 55.5846H42.292C42.9566 55.5846 43.5003 55.0432 43.5003 54.3762V47.1262C43.5003 46.4592 42.9566 45.9179 42.292 45.9179H15.7087ZM42.2923 58.0012H15.709C13.7104 58.0012 12.084 56.3748 12.084 54.3762V47.1262C12.084 45.1276 13.7104 43.5012 15.709 43.5012H42.2923C44.2909 43.5012 45.9173 45.1276 45.9173 47.1262V54.3762C45.9173 56.3748 44.2909 58.0012 42.2923 58.0012Z" fill="url(#paint2_linear_229_3761)"/>
<path fill-rule="evenodd" clip-rule="evenodd" d="M30.2079 45.9179C30.0411 45.9179 29.8695 45.8841 29.7076 45.8092C29.101 45.5337 28.8328 44.8159 29.1083 44.2093L35.15 30.9177C35.4279 30.3111 36.1432 30.0404 36.7498 30.3183C37.3564 30.5938 37.6246 31.3116 37.3491 31.9182L31.3075 45.2098C31.1045 45.6545 30.6646 45.9179 30.2079 45.9179Z" fill="url(#paint3_linear_229_3761)"/>
<path fill-rule="evenodd" clip-rule="evenodd" d="M27.7918 45.9179C27.3303 45.9179 26.888 45.6521 26.6874 45.2002L21.8541 34.3252C21.5834 33.7162 21.8589 33.0009 22.4679 32.7302C23.0769 32.4595 23.7923 32.7326 24.0629 33.344L28.8963 44.219C29.1669 44.828 28.8914 45.5434 28.2824 45.814C28.1229 45.8841 27.9562 45.9179 27.7918 45.9179Z" fill="url(#paint4_linear_229_3761)"/>
<path fill-rule="evenodd" clip-rule="evenodd" d="M51.9595 9.66774C51.2925 9.66774 50.7512 9.12641 50.7512 8.45941V3.72516L46.6718 6.98766C46.1498 7.40333 45.391 7.31874 44.9729 6.79916C44.5572 6.27716 44.6418 5.51591 45.1614 5.09782L51.2031 0.264491C51.568 -0.0230921 52.0586 -0.0835087 52.4839 0.119491C52.902 0.322491 53.1678 0.745408 53.1678 1.20941V8.45941C53.1678 9.12641 52.6265 9.66774 51.9595 9.66774Z" fill="url(#paint5_linear_229_3761)"/>
<path fill-rule="evenodd" clip-rule="evenodd" d="M32.6253 58.0011C31.9583 58.0011 31.417 57.4598 31.417 56.7928V50.7511H26.5837V56.7928C26.5837 57.4598 26.0423 58.0011 25.3753 58.0011C24.7083 58.0011 24.167 57.4598 24.167 56.7928V49.5428C24.167 48.8758 24.7083 48.3345 25.3753 48.3345H32.6253C33.2923 48.3345 33.8337 48.8758 33.8337 49.5428V56.7928C33.8337 57.4598 33.2923 58.0011 32.6253 58.0011Z" fill="url(#paint6_linear_229_3761)"/>
<defs>
<linearGradient id="paint0_linear_229_3761" x1="0" y1="0.0012207" x2="29.4508" y2="50.4883" gradientUnits="userSpaceOnUse">
<stop stop-color="#E1CDB6"/>
<stop offset="1" stop-color="#B9895B"/>
</linearGradient>
<linearGradient id="paint1_linear_229_3761" x1="0" y1="9.66797" x2="6.82353" y2="36.9621" gradientUnits="userSpaceOnUse">
<stop stop-color="#E1CDB6"/>
<stop offset="1" stop-color="#B9895B"/>
</linearGradient>
<linearGradient id="paint2_linear_229_3761" x1="12.084" y1="43.5012" x2="22.584" y2="68.0012" gradientUnits="userSpaceOnUse">
<stop stop-color="#E1CDB6"/>
<stop offset="1" stop-color="#B9895B"/>
</linearGradient>
<linearGradient id="paint3_linear_229_3761" x1="29" y1="30.209" x2="42.1137" y2="37.2692" gradientUnits="userSpaceOnUse">
<stop stop-color="#E1CDB6"/>
<stop offset="1" stop-color="#B9895B"/>
</linearGradient>
<linearGradient id="paint4_linear_229_3761" x1="21.75" y1="32.6257" x2="32.9257" y2="38.7216" gradientUnits="userSpaceOnUse">
<stop stop-color="#E1CDB6"/>
<stop offset="1" stop-color="#B9895B"/>
</linearGradient>
<linearGradient id="paint5_linear_229_3761" x1="44.709" y1="0" x2="54.2911" y2="8.38392" gradientUnits="userSpaceOnUse">
<stop stop-color="#E1CDB6"/>
<stop offset="1" stop-color="#B9895B"/>
</linearGradient>
<linearGradient id="paint6_linear_229_3761" x1="24.167" y1="48.3345" x2="33.8337" y2="58.0011" gradientUnits="userSpaceOnUse">
<stop stop-color="#E1CDB6"/>
<stop offset="1" stop-color="#B9895B"/>
</linearGradient>
</defs>
</svg>
