<svg version="1.1" id="_x37_" xmlns="http://www.w3.org/2000/svg" x="0px"
     y="0px" width="16px" height="16px" viewBox="0 0 16 16" style="enable-background:new 0 0 16 16;"
     xml:space="preserve" fill="white">
    <path d="M8,0C3.5817261,0,0,3.5817871,0,8s3.5817261,8,8,8s8-3.5817871,8-8S12.4182739,0,8,0z M8,15c-3.8598022,0-7-3.1401367-7-7
        s3.1401978-7,7-7s7,3.1401367,7,7S11.8598022,15,8,15z M8,4C5.7908325,4,4,5.7910156,4,8c0,2.2092285,1.7908325,4,4,4
        c2.2091064,0,4-1.7907715,4-4C12,5.7910156,10.2091064,4,8,4z M8,11c-1.6542358,0-3-1.3457031-3-3s1.3457642-3,3-3s3,1.3457031,3,3
        S9.6542358,11,8,11z">
    </path>
</svg>