<?xml version="1.0" encoding="utf-8"?>
<!-- Generator: Adobe Illustrator 23.0.0, SVG Export Plug-In . SVG Version: 6.00 Build 0)  -->
<svg version="1.1" id="_x31_" xmlns="http://www.w3.org/2000/svg" xmlns:xlink="http://www.w3.org/1999/xlink" x="0px" y="0px"
	 width="149.9999695px" height="20.0000553px" viewBox="0 0 149.9999695 20.0000553"
	 style="enable-background:new 0 0 149.9999695 20.0000553;" xml:space="preserve">
<path d="M47.4951706,7.7529845c-0.0473022-0.0471191-0.0736694-0.0849609-0.0783691-0.1132813
	s0.0166016-0.0656738,0.0643311-0.1130371l1.2521362-1.2460938c0.0477295-0.0471191,0.0856323-0.0683594,0.1141968-0.0637207
	c0.0280762,0.005127,0.06604,0.0310059,0.1137085,0.078125l1.2380981,1.2316895
	c0.0473022,0.0473633,0.0733032,0.0847168,0.0783691,0.1130371c0.0046997,0.0283203-0.0166016,0.0661621-0.0639038,0.1132813
	L48.961174,8.9990778c-0.0476685,0.0473633-0.0856323,0.0686035-0.1137085,0.0634766
	c-0.0285645-0.0046387-0.0664673-0.0305176-0.1141968-0.0776367L47.4951706,7.7529845z M40.6700363,13.8555231
	c0.0472412,0.0473633,0.0852051,0.0732422,0.1137085,0.0778809c0.0285645,0.0046387,0.06604-0.0163574,0.1137695-0.0639648
	l1.2525635-1.2456055c0.0473022-0.0476074,0.0686035-0.0852051,0.0639038-0.1135254
	c-0.005127-0.0280762-0.0311279-0.065918-0.0783691-0.1132813l-1.2380981-1.2316895
	c-0.0477295-0.0471191-0.0852051-0.072998-0.1137695-0.0778809c-0.0285034-0.0048828-0.0664673,0.0163574-0.1137085,0.0639648
	l-1.2525635,1.2456055c-0.0477295,0.0473633-0.0690308,0.0852051-0.0639038,0.1132813
	c0.0046387,0.0283203,0.0306396,0.065918,0.0779419,0.1135254L40.6700363,13.8555231z M16.7652493,11.3777399
	c-0.1184082-0.2641602-0.2752075-0.5073242-0.4694824-0.7290039c-0.1947021-0.2216797-0.4341431-0.4082031-0.71875-0.5595703
	c-0.303772-0.1508789-0.647583-0.2851563-1.0318604-0.4035645c-0.3842773-0.1176758-0.7919922-0.2216797-1.223999-0.3115234
	c-0.4315796-0.0893555-0.8844604-0.171875-1.3590698-0.2475586c-0.4746094-0.0751953-0.9441528-0.1508789-1.4089355-0.2265625
	C10.0785427,8.8242731,9.632925,8.7463923,9.2153835,8.6663141S8.434866,8.4871149,8.1268215,8.369195
	C7.8184114,8.2510309,7.576407,8.1047907,7.4008698,7.9302306C7.2253327,7.7554259,7.1375642,7.5313048,7.1375642,7.2573791
	c0-0.2832031,0.0877686-0.5708008,0.2633057-0.8632813S7.803885,5.8228087,8.084219,5.5586486
	c0.27948-0.2641602,0.5926514-0.5097656,0.9390259-0.7363281s0.6948853-0.4245605,1.0458984-0.5944824
	c0.3889771-0.1984863,0.8491211-0.3730469,1.3807983-0.5239258c0.531311-0.1508789,1.0719604-0.255127,1.6223755-0.3115234
	c0.5500488-0.0568848,1.0744629-0.0517578,1.5725098,0.013916c0.4980469,0.0661621,0.9130249,0.2175293,1.2453613,0.453125
	c0.1328735,0.0944824,0.2155762,0.1467285,0.2492065,0.1560059c0.0328369,0.0092773,0.0587769-0.052002,0.0779419-0.1843262
	c0.0192261-0.1035156,0.026001-0.2004395,0.0213013-0.2900391c-0.0046387-0.0898438-0.0119019-0.177002-0.0213013-0.2617188
	c-0.019165-0.189209-0.0592041-0.3823242-0.1209717-0.5808105s-0.1422729-0.3894043-0.2420044-0.5734863
	c-0.0992432-0.183838-0.2155762-0.3513185-0.3485107-0.5026857c-0.1328735-0.1508789-0.2752075-0.2687988-0.4268799-0.3537598
	c-0.3225098-0.1984863-0.6428833-0.3374023-0.9606934-0.4174805c-0.3178711-0.0803223-0.6143799-0.1206055-0.8895874-0.1206055
	c-0.6450195,0-1.2998657,0.0637207-1.9640503,0.1911621C10.6004543,1.0488828,9.95751,1.2378477,9.3363552,1.4880918
	c-0.621582,0.25-1.2073975,0.5590822-1.7573848,0.9272462c-0.5504761,0.3679199-1.0297852,0.7883301-1.4375,1.2602539
	c-0.4081421,0.472168-0.7306519,0.9958496-0.9679565,1.5715332S4.817801,6.4458556,4.817801,7.1157775
	c0,0.7836914,0.1444092,1.4255366,0.434082,1.9257808c0.2893066,0.5004883,0.6808472,0.9111328,1.1741943,1.2314453
	c0.4933472,0.3212891,1.0646973,0.5786133,1.7148433,0.7719727c0.6497192,0.1936035,1.3305054,0.3657227,2.0424194,0.5166016
	c0.5593872,0.1230469,1.0599976,0.2290039,1.5013428,0.3188477c0.440979,0.0898438,0.8133545,0.1838379,1.1171265,0.2832031
	c0.303772,0.0991211,0.5359497,0.2121582,0.6973877,0.3398438c0.1610718,0.1269531,0.2420044,0.2897949,0.2420044,0.4882813
	c-0.0097656,0.2546387-0.0924683,0.5119629-0.2492065,0.7717285c-0.1563721,0.2595215-0.374939,0.5146484-0.6544189,0.7646484
	c-0.2799072,0.25-0.6101074,0.4953613-0.9892578,0.736084c-0.3796387,0.2404785-0.7971191,0.4743652-1.2525635,0.7006836
	c-0.3127441,0.1513681-0.6544189,0.288331-1.0246582,0.4106455c-0.369751,0.1230469-0.7519531,0.2290039-1.1456299,0.3183594
	c-0.3936157,0.0898438-0.7945552,0.1655273-1.20227,0.2268066c-0.4081421,0.0615234-0.8068848,0.105957-1.1954346,0.1345215
	c-0.7311401,0.065918-1.4140625,0.0449219-2.0496826-0.0637207c-0.6356812-0.1083984-1.1810303-0.3278809-1.6364746-0.6582031
	c-0.0762329-0.0754395-0.1567383-0.1652832-0.2419434-0.2692871c-0.0856323-0.1037607-0.1474611-0.2265635-0.1849366-0.368165
	c-0.0570679-0.1789551-0.0264282-0.3586426,0.0924684-0.5378418c0.1184082-0.1794434,0.2654419-0.3466797,0.440918-0.5026855
	c0.1755371-0.1555176,0.3536377-0.2949219,0.5338745-0.4174805c0.1801758-0.1225586,0.3079834-0.217041,0.3842773-0.2832031
	c0.1231079-0.1416016,0.1184082-0.2644043-0.0144653-0.3681641l-1.5793458-1.104248
	c-0.0664673-0.0378418-0.1235962-0.0568848-0.1708374-0.0568848c-0.0477295,0-0.1141968,0.0239258-0.1994019,0.0708008
	c-0.5125121,0.40625-0.8874511,0.8659668-1.1243286,1.3806152c-0.2373047,0.5144043-0.3225098,1.0974121-0.2560425,1.748291
	c0.0473022,0.4912119,0.1657104,0.9609385,0.3557129,1.4089365c0.1896363,0.4484863,0.440979,0.8518066,0.7540894,1.2104492
	c0.3131714,0.3591309,0.6782837,0.6679688,1.0962526,0.9274902c0.4170532,0.2592773,0.8823242,0.4458008,1.3944092,0.5593262
	c0.4647827,0.1037598,0.9321899,0.1745605,1.4020996,0.2124023c0.4694824,0.0378418,0.9223633,0.0563965,1.3590698,0.0563965
	c0.5977173,0,1.2069702-0.0351563,1.8285518-0.105957c0.6212158-0.0708008,1.2380981-0.1818848,1.8503418-0.3327637
	c0.6117554-0.1513672,1.2069702-0.3444824,1.7859497-0.5808105c0.5785522-0.2355957,1.1290283-0.513916,1.6508789-0.8352051
	c0.3131714-0.197998,0.6782837-0.4719238,1.0958252-0.8210449c0.4174805-0.3491211,0.8111572-0.7502441,1.1813965-1.2033691
	c0.369812-0.453126,0.6829224-0.9438486,0.9389648-1.4729013c0.2564697-0.5280762,0.3843384-1.0664063,0.3843384-1.6140137
	c0-0.2731934-0.026001-0.5517578-0.0780029-0.8352051C16.9693508,11.9155817,16.8841457,11.6421442,16.7652493,11.3777399z
	 M87.9852829,13.8555231c0.0473022,0.0473633,0.0852051,0.0732422,0.1137695,0.0778809s0.0664673-0.0163574,0.1137695-0.0639648
	l1.2525635-1.2456055c0.0473022-0.0476074,0.0686035-0.0852051,0.0639038-0.1135254
	c-0.0046997-0.0280762-0.0307007-0.065918-0.0780029-0.1132813l-1.2384644-1.2316895
	c-0.0473022-0.0471191-0.0852051-0.072998-0.1137695-0.0778809s-0.0664673,0.0163574-0.1137695,0.0639648l-1.2525635,1.2456055
	c-0.0472412,0.0473633-0.0689697,0.0852051-0.0639038,0.1132813c0.0046997,0.0283203,0.0307007,0.065918,0.0784302,0.1135254
	L87.9852829,13.8555231z M126.3341599,8.9849176c0.0476685,0.0471191,0.0856323,0.072998,0.1141357,0.0776367
	c0.0281372,0.005127,0.06604-0.0161133,0.1137695-0.0634766l1.2525635-1.2460933
	c0.0473022-0.0471191,0.0686035-0.0849609,0.0639038-0.1132813c-0.005127-0.0283203-0.0311279-0.0656738-0.0783691-0.1130371
	l-1.2380981-1.2316895c-0.0477295-0.0471191-0.0856323-0.072998-0.1137695-0.078125
	c-0.0285034-0.0046387-0.0664673,0.0166016-0.1141357,0.0637207l-1.2521362,1.2460938
	c-0.0477295,0.0473633-0.0690308,0.0847168-0.0643311,0.1130371c0.0046387,0.0283203,0.0310669,0.0661621,0.0783691,0.1132813
	L126.3341599,8.9849176z M76.6002121,13.8555231c0.0473022,0.0473633,0.0852051,0.0732422,0.1137695,0.0778809
	c0.0285034,0.0046387,0.065979-0.0163574,0.1137085-0.0639648l1.2525635-1.2456055
	c0.0473022-0.0476074,0.0686035-0.0852051,0.0639038-0.1135254c-0.0050659-0.0280762-0.0310669-0.065918-0.0783691-0.1132813
	l-1.2380981-1.2316895c-0.0477295-0.0471191-0.0852051-0.072998-0.1137085-0.0778809
	c-0.0285645-0.0048828-0.0664673,0.0163574-0.1137695,0.0639648l-1.2525635,1.2456055
	c-0.0477295,0.0473633-0.0690308,0.0852051-0.0639038,0.1132813c0.0046997,0.0283203,0.0306396,0.065918,0.0779419,0.1135254
	L76.6002121,13.8555231z M128.4690399,18.7683659c-0.2658691,0.0375977-0.495903,0.0495605-0.6901779,0.0354004
	c-0.1947021-0.0141602-0.3630371-0.0400391-0.5053101-0.0778809c-0.2181396-0.0661621-0.3868408-0.1555176-0.5053101-0.269043
	c-0.1184082-0.1132813-0.2061768-0.2407227-0.2632446-0.3823242c-0.0567017-0.1416016-0.0924683-0.2971191-0.1065063-0.467041
	c-0.0145264-0.1699219-0.0264282-0.3447266-0.0358276-0.5239258c-0.0379028-1.1608896-0.0238647-2.3244638,0.0426025-3.4899912
	s0.1235962-2.3100586,0.1708374-3.4335938c0.0093994-0.1508789-0.0166016-0.2145996-0.0779419-0.1911621
	c-0.0621948,0.0236816-0.1260986,0.0593262-0.1921387,0.1064453l-2.2486572,1.642334
	c-0.1047974,0.0944824-0.1708374,0.1721191-0.1994019,0.2336426c-0.0285034,0.0615234-0.0426025,0.1533203-0.0426025,0.2758789
	c-0.0285034,0.8874512-0.0498047,1.7441406-0.0643311,2.5698242c-0.0140381,0.8259277-0.0119019,1.6210947,0.0072632,2.3857431
	c0.0093384,0.2453613,0.0498657,0.4907227,0.1209717,0.7363281c0.071167,0.2453613,0.1875,0.467041,0.348938,0.6652832
	c0.2462769,0.3022461,0.5479126,0.5358887,0.9036255,0.7006836c0.3557739,0.1652832,0.699585,0.2480469,1.0318604,0.2480469
	c0.4835815,0,0.927124-0.0568848,1.3305664-0.170166c0.4030151-0.1130371,0.7421188-0.25,1.0173874-0.4106445
	c0.0856323-0.046875,0.1231079-0.0939941,0.1141357-0.1416016C128.6160126,18.7637272,128.5635834,18.749567,128.4690399,18.7683659
	z M120.9374924,11.9583063c-0.0477295-0.0754395-0.0924683-0.1228027-0.135498-0.1416016
	c-0.0426025-0.019043-0.1116333,0-0.2062378,0.0563965l-2.1774902,1.0622559
	c-0.0758057,0.0375977-0.1350098,0.0800781-0.1776123,0.1271973c-0.0430298,0.0473633-0.0123901,0.1320801,0.0924072,0.2546387
	c0.142334,0.1699219,0.3007813,0.3684082,0.4767456,0.5947266c0.1755371,0.2268066,0.3416748,0.4699707,0.4980469,0.729248
	c0.1563721,0.2600098,0.2893066,0.5307617,0.3983765,0.8144531c0.1090698,0.282959,0.1635742,0.5661631,0.1635742,0.8493662
	c0,0.1223145-0.0617676,0.217041-0.1848755,0.282959c-0.2475586,0.1040039-0.5679321,0.1818848-0.9624634,0.2336426
	c-0.3944702,0.052002-0.812439,0.0898438-1.2542725,0.1130371c-0.4417725,0.0239258-0.883606,0.0336914-1.3253784,0.0285645
	c-0.4422607-0.0046387-0.8342285-0.0119629-1.1759033-0.0212402c-0.7890015-0.0283203-1.4660034-0.0683594-2.0313721-0.1203613
	c-0.5653076-0.0517578-1.0263062-0.1813965-1.3825073-0.3894043c-0.3565674-0.2075195-0.6130371-0.5239267-0.7698364-0.9487314
	s-0.2160034-1.0239258-0.1781006-1.7978516c0.0285645-0.5664063,0.0592651-1.1206055,0.0924683-1.6635742
	c0.0332031-0.5424805,0.0733032-1.0974121,0.1209717-1.6635742c0.0946045-1.1801758,0.1875-2.3007813,0.277832-3.3627925
	c0.0898438-1.0620117,0.1729736-2.0151367,0.2487793-2.8598633c0.0758667-0.8447266,0.1397705-1.5483398,0.1921387-2.1098633
	c0.052002-0.5612794,0.0924683-0.932129,0.1210327-1.1113282c0.0187378-0.1323242,0.0046387-0.1984863-0.0426025-0.1984863
	c-0.0477295,0-0.1188965,0.0383301-0.213501,0.1135254l-2.6661377,1.7980958
	c-0.1320801,0.0944824-0.2198486,0.1911621-0.2620239,0.2902832c-0.0426025,0.0991211-0.0733032,0.2290039-0.092041,0.3891602
	c-0.0566406,0.5666504-0.1090698,1.1682129-0.1558838,1.8051758c-0.0473022,0.6374512-0.092041,1.2744141-0.1346436,1.9116211
	c-0.0426025,0.6369629-0.0801392,1.2553706-0.1133423,1.8547359c-0.0327759,0.5996094-0.0639038,1.1469727-0.092041,1.642334
	c-0.0285034,0.4956055-0.0519409,0.920166-0.0706787,1.2741699c-0.0187988,0.354248-0.0332642,0.6018066-0.0421753,0.7434082
	c-0.0285645,0.5097656-0.0405273,1.0031738-0.0358276,1.4794922c0.0046997,0.4770508,0.0571289,0.9367676,0.1563721,1.3806152
	c0.0996704,0.4436035,0.258606,0.8757334,0.4771729,1.295167c0.2181396,0.4204102,0.5308228,0.8334961,0.9389648,1.2390137
	c0.4077148,0.4157715,0.809082,0.736084,1.2027588,0.9628906c0.3936157,0.2263184,0.7659912,0.3918457,1.1170654,0.4956055
	s0.6761475,0.1699219,0.9747925,0.1982422c0.2990723,0.0280762,0.557251,0.0471191,0.7758179,0.0563965
	c0.2560425,0.019043,0.6096191,0.0332031,1.0604248,0.0429688c0.4503174,0.0087891,0.9036255,0.0161133,1.3590698,0.0209961
	s0.8584595,0.0068359,1.2095337,0.0068359c0.3510132,0,0.5551147,0,0.6121826,0
	c1.3092651,0,2.3146973-0.4082031,3.0167847-1.2246094c0.7021484-0.8161621,1.0532227-2.003418,1.0532227-3.5605478
	c0-0.5666504-0.0592651-1.0854492-0.1776733-1.5576172C121.3950119,12.9023981,121.2028732,12.4302301,120.9374924,11.9583063z
	 M138.4971771,4.6240783c0,0.4248047-0.0946045,0.8234863-0.2846069,1.1965332
	c-0.1895752,0.3730469-0.4221802,0.6674805-0.6969604,0.8845215c-0.0762939,0.0666504-0.1307983,0.0925293-0.1640625,0.078125
	c-0.0332031-0.0141602-0.0213013-0.072998,0.0357666-0.1767578c0.0473022-0.0754395,0.097168-0.1938477,0.1495972-0.3540039
	c0.0519409-0.1606445,0.0779419-0.3491211,0.0779419-0.5666504c0-0.1699219-0.0281372-0.3540039-0.0852051-0.552002
	c-0.1520996-0.4528809-0.3889771-0.8022461-0.7114868-1.0476074c-0.322937-0.2453613-0.7498169-0.3632813-1.2811279-0.3540039
	c-0.3889771,0.0095215-0.6995239,0.1040039-0.9321899,0.2832031c-0.232605,0.1791992-0.4055786,0.3962402-0.5193481,0.651123
	c-0.0570679,0.1228027-0.0996704,0.2810059-0.1282349,0.4741211c-0.0280762,0.1938477-0.0472412,0.3425293-0.0566406,0.4462891
	l-0.3131104,4.5166011c0,0.0754395,0.0379028,0.1132813,0.1137085,0.1132813
	c0.4933472,0.019043,0.8870239,0.0541992,1.1814575,0.105957c0.2939453,0.052002,0.5640259,0.144043,0.8111572,0.2763672
	c0.3791504,0.1884766,0.6351929,0.5283203,0.7685547,1.0192871c0.06604,0.236084,0.0993042,0.5004883,0.0993042,0.7929688
	c0,0.263916-0.0281372,0.5212402-0.0852051,0.7714844c-0.0571289,0.25-0.1282349,0.4694824-0.2134399,0.6582031
	c-0.0285645,0.0661621-0.0545654,0.0969238-0.0784302,0.0922852s-0.0404663-0.0449219-0.0498657-0.1203613
	c0-0.0375977-0.0093384-0.1064453-0.0285034-0.2055664c-0.0187378-0.0991211-0.0686035-0.2097168-0.1491089-0.3325195
	c-0.0809937-0.1225586-0.2019653-0.2456055-0.3629761-0.3681641c-0.161499-0.1223145-0.3843384-0.2265625-0.6688843-0.3115234
	c-0.1329346-0.0375977-0.3110352-0.0708008-0.5338745-0.0991211c-0.2227783-0.0283203-0.4907837-0.0422363-0.803894-0.0422363
	c-0.0762939,0-0.1137695,0.0375977-0.1137695,0.1130371c-0.0285645,0.7080078-0.045166,1.340332-0.0498657,1.8972168
	c-0.005127,0.5568848-0.0025635,1.0739746,0.0068359,1.5505381c0.0093384,0.4765625,0.026001,0.932373,0.0498047,1.3662109
	c0.0238647,0.434082,0.0498657,0.8825684,0.0784302,1.3449707c0.0093384,0.1037598,0.0072632,0.2148438-0.0072632,0.3327637
	c-0.0140381,0.1181641-0.0426025,0.2263184-0.0852051,0.3254395c-0.0426025,0.0993652-0.1043701,0.1794434-0.1848755,0.2409668
	c-0.0809937,0.0612793-0.1875,0.0917969-0.3203735,0.0917969c-0.161499,0-0.3323364-0.0588379-0.5125732-0.1767578
	c-0.1801758-0.1181641-0.3651123-0.2712402-0.5546875-0.4602051c-0.1900024-0.1887207-0.3842773-0.401123-0.5836792-0.6369629
	s-0.3889771-0.4765625-0.5692139-0.7224121c-0.2466431-0.3208008-0.4912109-0.6604004-0.7327881-1.0192871
	c-0.2419434-0.3586426-0.4579468-0.7336435-0.647583-1.1257334c-0.1900024-0.3913574-0.3468018-0.7946777-0.4699097-1.2104492
	c-0.1231079-0.4150391-0.1848755-0.8444824-0.1848755-1.2880859c0-0.5666504,0.1018066-1.0246582,0.3059082-1.3737793
	c0.2040405-0.348877,0.4362183-0.6252441,0.6973877-0.828125c0.2607422-0.2026367,0.5172119-0.342041,0.7686157-0.4174805
	c0.2513428-0.0754395,0.4243164-0.1225586,0.5193481-0.1416016c0.0856323-0.0092773,0.1282349-0.0568848,0.1282349-0.1416016
	l0.156311-3.6816401c0.0285645-0.4716797,0.0592651-0.875,0.0924683-1.2104492
	c0.0332642-0.3347168,0.071167-0.625,0.1141968-0.8706055c0.0426025-0.2453613,0.0945435-0.4550781,0.1563721-0.630127
	c0.0617676-0.1743164,0.1350098-0.342041,0.2206421-0.5021973c0.1610718-0.3308105,0.369812-0.5947266,0.6262817-0.7932129
	c0.2560425-0.1982422,0.5287476-0.3513184,0.8179932-0.4602051c0.2893066-0.1083986,0.5836792-0.1813966,0.8827515-0.2197267
	c0.2987061-0.0371094,0.5666504-0.0561523,0.8039551-0.0561523c0.4456787,0,0.8870239,0.065918,1.3237305,0.1982422
	c0.4362793,0.1323243,0.8345947,0.3632814,1.1954956,0.6933595c0.2845459,0.2553711,0.5192871,0.550293,0.7042236,0.8850098
	C138.4047089,3.8618712,138.4971771,4.227838,138.4971771,4.6240783z M131.0116425,12.66607
	c0-0.046875-0.0072632-0.0825195-0.0217285-0.1062012c-0.0140381-0.0234375-0.0494385-0.0305176-0.1065063-0.0212402
	c-0.142334,0.019043-0.2824707,0.0495605-0.4196777,0.0917969c-0.1380005,0.0429688-0.2611694,0.1018066-0.3702393,0.1772461
	s-0.1993408,0.1721191-0.2705078,0.2905273c-0.071167,0.1176758-0.1065063,0.2570801-0.1065063,0.4174805
	c0,0.1606445,0.0285645,0.3376465,0.0852051,0.5310059c0.0570679,0.1931152,0.1329346,0.3942871,0.2279053,0.6013184
	c0.0946045,0.208252,0.208374,0.4106445,0.3413086,0.6091309c0.1328735,0.1984863,0.2752075,0.3823242,0.4273071,0.5522461
	c0.0566406,0.0661621,0.0945435,0.092041,0.1137085,0.0776367c0.0187988-0.013916,0.0285645-0.0585938,0.0285645-0.1345215
	c0.0089722-0.5375977,0.0187378-1.0615234,0.0281372-1.5715332C130.977951,13.6714411,130.9924774,13.1663141,131.0116425,12.66607z
	 M149.991684,14.7617731c-0.0566406,0.3305664-0.1540527,0.6791992-0.2912598,1.0476074
	c-0.1381836,0.3679209-0.3110352,0.7268076-0.5197754,1.0759287c-0.2087402,0.3496094-0.4508057,0.6796875-0.7255859,0.9912109
	c-0.2756348,0.3115234-0.5837402,0.5708008-0.925293,0.7785645c-0.3320313,0.2175293-0.6757813,0.3850098-1.0314941,0.5026855
	c-0.3562012,0.1181641-0.7141113,0.2050781-1.0749512,0.2619629c-0.3603516,0.0563965-0.7233887,0.0895996-1.088501,0.0993652
	c-0.3656006,0.0092773-0.7281494,0.013916-1.088501,0.013916c-0.4273682,0-0.835083-0.0402832-1.2241211-0.1203613
	c-0.3894043-0.0800781-0.7473145-0.1816406-1.0744629-0.3044434c-0.3276367-0.1223145-0.6169434-0.2573242-0.8681641-0.4035645
	c-0.2514648-0.1459961-0.4482422-0.2851563-0.5905762-0.4179688c-0.4174805-0.3769531-0.7306519-0.828125-0.9393921-1.3520508
	c-0.2088013-0.5236816-0.3131714-1.0688486-0.3131714-1.6350107c0-0.5002441,0.0733032-0.9863281,0.2207031-1.4584961
	c0.1469727-0.4719238,0.3532104-0.9057617,0.6190186-1.3024902c0.4077148-0.6040039,0.9321289-1.0710449,1.5725098-1.4016113
	c0.6403809-0.3303223,1.3164063-0.4956055,2.0279541-0.4956055c0.3988037,0,0.789917,0.0522461,1.1741943,0.1555176
	c0.3842773,0.1044922,0.7259521,0.2646484,1.0246582,0.4814453c0.2990723,0.2175293,0.5385742,0.4956055,0.71875,0.8354492
	c0.1801758,0.3400879,0.2705078,0.7460938,0.2705078,1.2177734c0,0.3586426-0.0639648,0.7104492-0.1921387,1.0546875
	c-0.1281738,0.3447266-0.329834,0.6538086-0.6049805,0.9272461c-0.2087402,0.2080078-0.4575195,0.3684082-0.7468262,0.4814453
	c-0.2897949,0.1132813-0.6003418,0.1699219-0.932251,0.1699219c-0.6739502,0-1.2479248-0.1647949-1.7220459-0.4953613
	c-0.4746094-0.3303223-0.8111572-0.8071289-1.010498-1.4301758c-0.0478516-0.1223145-0.1044922-0.1223145-0.1708984,0
	c-0.1235352,0.2175293-0.1967773,0.4060059-0.2207031,0.5664063c-0.0239258,0.1606445-0.0405273,0.3115234-0.0498047,0.4528809
	c-0.0192871,0.40625,0.1018066,0.7529297,0.3630371,1.0407724c0.2607422,0.2880859,0.6188965,0.5075684,1.0744629,0.6584473
	c0.246582,0.0756836,0.5239258,0.1298828,0.8323975,0.1628418s0.6383057,0.0495605,0.9892578,0.0495605
	c0.5125732,0,1.0412598-0.0305176,1.5870361-0.0917969c0.5454102-0.0615234,1.0600586-0.1535645,1.5439453-0.2763672
	c0.2939453-0.065918,0.5883789-0.1577148,0.8823242-0.2758789c0.2939453-0.1179199,0.5786133-0.2548828,0.8537598-0.4108896
	c0.2752686-0.1555176,0.53125-0.3347168,0.7685547-0.5378418s0.4508057-0.4272461,0.6403809-0.6726074
	c0.0856934-0.1130371,0.1517334-0.1486816,0.1994629-0.105957C149.9964447,14.6411676,150.0109711,14.695611,149.991684,14.7617731z
	 M141.5169525,12.850152c-0.005127,0.0283203,0.0020752,0.0661621,0.0213623,0.1132813
	c0.0664063,0.1699219,0.1469727,0.3376465,0.2419434,0.5024414c0.0946045,0.1655273,0.2133789,0.3166504,0.3557129,0.453125
	c0.142334,0.1369629,0.3081055,0.2456055,0.4980469,0.3256836c0.1896973,0.0805664,0.4128418,0.1203613,0.6689453,0.1203613
	c0.3317871,0,0.5883789-0.0895996,0.7685547-0.2687988s0.2705078-0.4484863,0.2705078-0.8071289
	c0-0.3583984-0.135498-0.6489258-0.4055176-0.8708496c-0.2705078-0.2216797-0.6049805-0.3327637-1.003418-0.3327637
	c-0.1993408-0.0092773-0.4268799,0.0334473-0.6833496,0.1274414c-0.2561035,0.0947266-0.4886475,0.2785645-0.6975098,0.5524902
	C141.5335541,12.7932673,141.5217133,12.8218317,141.5169525,12.850152z M44.4766769,15.9793024
	c0.052002,0.3493662,0.0784302,0.7033701,0.0784302,1.0617685c0,0.1699219-0.0093994,0.3354492-0.0285645,0.4956055
	c-0.019165,0.1606445-0.052002,0.3068848-0.0997314,0.4389648c-0.1043701,0.2832031-0.2752075,0.5192871-0.512085,0.7080078
	c-0.2373047,0.1889648-0.5172119,0.3444824-0.8397217,0.467041c-0.3225098,0.1228027-0.6714478,0.2143555-1.0458984,0.2763672
	c-0.374939,0.0610352-0.7473145,0.105957-1.1175537,0.1342773c-0.369812,0.0283203-0.7255249,0.0422363-1.0671997,0.0422363
	s-0.6356812,0-0.8823242,0h-2.2627563c-0.6262817,0-1.2265625-0.0209961-1.800415-0.0634766
	c-0.5742798-0.0424805-1.1077271-0.1394043-1.6010742-0.2902832s-0.9372559-0.3752441-1.3305073-0.6726074
	c-0.394104-0.2971191-0.71875-0.7006836-0.9752197-1.2104492c-0.0566406,0.282959-0.1422729,0.5546875-0.2560425,0.8139648
	c-0.1137695,0.2600098-0.2705688,0.4909668-0.4694824,0.6938477c-0.1994019,0.203125-0.4508057,0.3632813-0.7545776,0.4816895
	c-0.3037109,0.1176758-0.6735229,0.1767578-1.1098022,0.1767578h-0.7114868c-0.1047974,0-0.232605-0.0046387-0.3842773-0.013916
	c-0.1520996-0.0097656-0.3157349-0.0356445-0.491272-0.078125c-0.1754761-0.0424805-0.3510132-0.0991211-0.5265503-0.1699219
	s-0.3297729-0.1721191-0.4622803-0.3044434c-0.2470703-0.2268066-0.4294434-0.467041-0.5482788-0.722168
	c-0.1184692-0.2546387-0.1989746-0.5141602-0.2415771-0.7785645c-0.0430298-0.2641602-0.0643311-0.53125-0.0643311-0.7998047
	c0-0.269043,0-0.5356445,0-0.8002939c0-0.1884766,0.0021362-0.3513184,0.0072021-0.4882813
	c0.0046997-0.1367188,0.0119629-0.2763672,0.0213013-0.4179688c0.0093994-0.1416016,0.0213623-0.3017578,0.0358276-0.480957
	c0.0140381-0.1791992,0.0306396-0.4060059,0.0498657-0.6799316c0.0089111-0.1699219-0.0217285-0.2780762-0.0928955-0.3254395
	c-0.071167-0.0471191-0.1682739-0.0092773-0.2914429,0.1132813c-0.6833496,0.6796875-1.3569336,1.4655762-2.0211182,2.3574219
	c-0.6641846,0.8916025-1.3092041,1.9089365-1.9354858,3.0512705c-0.0852051,0.1606445-0.1849365,0.3208008-0.2987061,0.480957
	c-0.1141357,0.1606445-0.2845459,0.2407227-0.5125122,0.2407227c-0.2373047,0-0.4081421-0.0898438-0.5125122-0.2685547
	c-0.1043701-0.1794434-0.1657104-0.3969727-0.1848755-0.6516113c-0.0285645-0.5754395-0.0473022-1.1655273-0.0567017-1.7700195
	c-0.0097656-0.6035156-0.0097656-1.2646494,0-1.9819345c0.0093994-0.717041,0.026001-1.5148926,0.0498657-2.3928223
	c0.0234375-0.8779297,0.0540771-1.8828125,0.0924683-3.0158691c0.0472412-1.4250488,0.1299438-2.7228999,0.2487793-3.8933101
	c0.1184692-1.1704102,0.2300415-2.1896973,0.3344727-3.0581055c0.0285034-0.217041,0.0570679-0.3657227,0.0856323-0.4462891
	c0.0280762-0.0800781,0.0945435-0.1628418,0.1989136-0.2475587l2.3198242-1.9399414
	c0.0758057-0.0563965,0.1256714-0.065918,0.1495361-0.0283203c0.0234375,0.0380859,0.026001,0.0942383,0.0072632,0.1699219
	c-0.0383911,0.255127-0.0924683,0.6652832-0.1636353,1.2319336c-0.071106,0.5664063-0.1495361,1.260254-0.2351685,2.0810547
	c-0.0852051,0.8215332-0.1704102,1.7509766-0.2560425,2.7895508c-0.0852051,1.0383301-0.161499,2.1567378-0.227478,3.3554683
	c0,0.0280762-0.005127,0.1369629-0.0145264,0.3256836c-0.0093384,0.1889648-0.0213013,0.4223633-0.0353394,0.7004395
	c-0.0145264,0.2790527-0.0264282,0.5878906-0.0358276,0.9274902c-0.0093384,0.3398438-0.0213013,0.6777344-0.0353394,1.0124512
	c-0.0144653,0.3352051-0.0238647,0.6535645-0.0285645,0.9558105c-0.0050659,0.3022461-0.0072021,0.5522461-0.0072021,0.7502441
	c0,0.1130371,0.0213013,0.1865234,0.0643311,0.2194824c0.0426025,0.0332031,0.1018066-0.0070801,0.1776733-0.1203613
	c0.0758057-0.1037598,0.187439-0.2619629,0.3344116-0.4743652c0.1469727-0.2121582,0.3365479-0.4575195,0.5692139-0.736084
	c0.232605-0.2785645,0.505249-0.5852051,0.8184204-0.920166c0.3131104-0.3352051,0.673584-0.6772461,1.0817261-1.0266113
	c0.3131104-0.2736816,0.5619507-0.4458008,0.7472534-0.5166016c0.1848755-0.0712891,0.3719482-0.1064453,0.5619507-0.1064453
	c0.1329346,0,0.2939453,0.032959,0.4840088,0.0993652c0.1895752,0.065918,0.3459473,0.1552734,0.4694824,0.2685547
	c0.1516724,0.1328125,0.2492065,0.3046875,0.2918091,0.5170898s0.0545654,0.4743652,0.0354004,0.7858887
	c-0.0281372,0.4338379-0.0617676,0.8942871-0.0993042,1.3803711c-0.0383301,0.486084-0.0809326,1.012207-0.1282349,1.5783691
	c-0.0477295,0.472168,0.0234375,0.8544931,0.2134399,1.1469736c0.1896362,0.2929688,0.5692139,0.439209,1.1384277,0.439209
	c0.3795776,0,0.6641846-0.0568848,0.854187-0.1699219c0.1895752-0.1132813,0.350647-0.236084,0.4835815-0.3684082
	c0.2180786-0.2263184,0.3723145-0.4716806,0.4626465-0.7363291c0.0899048-0.263916,0.1708374-0.5522461,0.2420044-0.8637695
	c0.071167-0.3110352,0.1635742-0.6484375,0.2773438-1.012207c0.1141968-0.3630371,0.3084717-0.7526855,0.5836792-1.1679688
	c0.4077148-0.6040039,0.9321918-1.0710449,1.5725117-1.4016113c0.6403809-0.3303223,1.3164673-0.4956055,2.0279541-0.4956055
	c0.3988037,0,0.789917,0.0522461,1.1741943,0.1555176c0.3842773,0.1044922,0.7259521,0.2646484,1.0245972,0.4814453
	c0.2991333,0.2175293,0.5385132,0.4956055,0.71875,0.8354492c0.1802368,0.3400879,0.2705688,0.7460938,0.2705688,1.2177734
	c0,0.3586426-0.0639648,0.7104492-0.1921997,1.0546875c-0.1282349,0.3447266-0.3297119,0.6538086-0.6049805,0.9272461
	c-0.2087402,0.2080078-0.4575195,0.3684082-0.7468262,0.4814453c-0.2897339,0.1132813-0.6002808,0.1699219-0.9321899,0.1699219
	c-0.6740112,0-1.2478638-0.1647949-1.7220459-0.4953613c-0.4746094-0.3303223-0.8111572-0.8071289-1.0105591-1.4301758
	c-0.0477295-0.1223145-0.1043701-0.1223145-0.1708374,0c-0.1235962,0.2175293-0.1994019,0.4060059-0.2275391,0.5664063
	c-0.0285034,0.1606445-0.0430298,0.3115234-0.0430298,0.4528809c0,0.4628906,0.1329346,0.8334961,0.3988037,1.1113291
	c0.2654419,0.2790527,0.6071167,0.4914551,1.0245972,0.6376953c0.4171143,0.1459961,0.8844604,0.2407227,1.4016724,0.2832031
	c0.5172119,0.0422363,1.0267944,0.0634766,1.5299683,0.0634766l2.1063232-0.0141602
	c0.5125122,0,0.9841309-0.0043945,1.4161377-0.0141602c0.4315796-0.0095215,0.8325195-0.0400391,1.2023315-0.092041
	c0.3701782-0.0517578,0.7067871-0.1345215,1.0105591-0.2475586c0.303772-0.1135254,0.5785522-0.2785645,0.8256836-0.4958496
	c0.1708374-0.1508789,0.3131104-0.3442392,0.4268799-0.5803232s0.1942749-0.4716797,0.2420044-0.7077637
	c0.0187378-0.1040039,0.0592041-0.1721191,0.1209717-0.2055664c0.0613403-0.0332031,0.1112061,0.0356445,0.1491089,0.2055664
	C44.360405,15.3047419,44.424736,15.6301813,44.4766769,15.9793024z M33.731926,12.850152
	c-0.005127,0.0283203,0.0021362,0.0661621,0.0213013,0.1132813c0.06604,0.1699219,0.1469727,0.3376465,0.2420044,0.5024414
	c0.0945435,0.1655273,0.2134399,0.3166504,0.3557129,0.453125c0.142334,0.1369629,0.3080444,0.2456055,0.4980469,0.3256836
	c0.1895752,0.0805664,0.4128418,0.1203613,0.6688843,0.1203613c0.3319092,0,0.5883789-0.0895996,0.7686157-0.2687988
	c0.1801758-0.1791992,0.2705078-0.4484863,0.2705078-0.8071289c0-0.3583984-0.135498-0.6489258-0.4055786-0.8708496
	c-0.2705688-0.2216797-0.6049805-0.3327637-1.0033569-0.3327637c-0.1993408,0-0.4273071,0.0449219-0.6833496,0.1347656
	c-0.2560425,0.0893555-0.4886475,0.2712402-0.6974487,0.545166C33.7481003,12.7932673,33.7366257,12.8218317,33.731926,12.850152z
	 M50.8681564,18.7683659c-0.2658691,0.0375977-0.4959106,0.0495605-0.6901855,0.0354004
	c-0.1947021-0.0141602-0.3629761-0.0400391-0.5053101-0.0778809c-0.2180786-0.0661621-0.3868408-0.1555176-0.505249-0.269043
	c-0.1184692-0.1132813-0.2062378-0.2407227-0.2633057-0.3823242c-0.0566406-0.1416016-0.0924683-0.2971191-0.1065063-0.467041
	c-0.0144653-0.1699219-0.0264282-0.3447266-0.0357666-0.5239258c-0.0379639-1.1608896-0.0238647-2.3244638,0.0426025-3.4899912
	s0.1235352-2.3100586,0.1708374-3.4335938c0.0093384-0.1508789-0.0166626-0.2145996-0.0780029-0.1911621
	c-0.0621948,0.0236816-0.1260986,0.0593262-0.1921387,0.1064453l-2.2486572,1.642334
	c-0.1047974,0.0944824-0.1708374,0.1721191-0.1993408,0.2336426c-0.0285645,0.0615234-0.0426025,0.1533203-0.0426025,0.2758789
	c-0.0285645,0.8874512-0.0498657,1.7441406-0.0643311,2.5698242c-0.0140991,0.8259277-0.0119629,1.6210947,0.0072021,2.3857431
	c0.0093994,0.2453613,0.0498657,0.4907227,0.1210327,0.7363281c0.071106,0.2453613,0.187439,0.467041,0.348938,0.6652832
	c0.2462158,0.3022461,0.5478516,0.5358887,0.9036255,0.7006836c0.3557129,0.1652832,0.6995239,0.2480469,1.0318604,0.2480469
	c0.4835205,0,0.927063-0.0568848,1.3305054-0.170166c0.4030762-0.1130371,0.7421875-0.25,1.017395-0.4106445
	c0.0856323-0.046875,0.1231079-0.0939941,0.1141968-0.1416016C51.0151291,18.7637272,50.9627609,18.749567,50.8681564,18.7683659z
	 M82.2358932,15.0447321c-0.0477295-0.217041-0.0924683-0.3161621-0.135498-0.2976074
	c-0.0426025,0.0192871-0.0877686,0.1137695-0.1350708,0.2832031c-0.0570679,0.2744141-0.1303711,0.5124512-0.2207031,0.7150879
	c-0.090271,0.203125-0.2160034,0.3662119-0.3770142,0.4887705c-0.1422729,0.1130371-0.3463745,0.2050781-0.6118164,0.2758789
	c-0.2658081,0.0708008-0.6168823,0.130127-1.0531616,0.1772461c-0.4367065,0.046875-0.9632568,0.0800781-1.5797729,0.0991211
	c-0.6168823,0.0185547-1.3428955,0.0280762-2.1774902,0.0280762c-0.2373047,0-0.5406494-0.0048828-0.9108887-0.0141602
	c-0.3701782-0.0092773-0.7540894-0.032959-1.152832-0.0708008c-0.3983765-0.0371094-0.7779541-0.0915527-1.1383667-0.1623535
	c-0.3609009-0.0703125-0.6455078-0.1669922-0.8538208-0.2893066c-0.1900024-0.1225586-0.3110352-0.2946787-0.3629761-0.5158701
	c-0.0524292-0.2209473-0.0690308-0.4870605-0.0498657-0.7980957c0.0093994-0.2822266,0.0234375-0.5388184,0.0426025-0.7697754
	c0.0187378-0.2307129,0.0358276-0.449707,0.0498657-0.6569824c0.0140381-0.2067871,0.0285645-0.4094238,0.0426025-0.6074219
	c0.0144653-0.1977539,0.0307007-0.4047852,0.0498657-0.6213379c0.0187378-0.3105469,0.0072021-0.5720215-0.0354004-0.7839355
	c-0.0430298-0.2119141-0.1401367-0.3842773-0.2918091-0.5161133c-0.1235352-0.1125488-0.2799072-0.2021484-0.4699097-0.2680664
	c-0.1896362-0.065918-0.3510742-0.098877-0.4835815-0.098877c-0.1900024,0-0.3775024,0.0351563-0.5623779,0.105957
	s-0.4341431,0.2429199-0.7472534,0.5158691c-0.4077148,0.3483887-0.7681885,0.6894531-1.0812988,1.0239258
	c-0.3131714,0.3344727-0.5862427,0.640625-0.8184204,0.9182129c-0.232666,0.2780762-0.4222412,0.5229492-0.5692139,0.7348633
	c-0.1473999,0.2119141-0.258606,0.3696289-0.3344116,0.4729004c-0.0762939,0.1132813-0.135498,0.1530762-0.1781006,0.1206055
	c-0.0426025-0.0332031-0.0639038-0.105957-0.0639038-0.2192383c0-0.2353516,0.0021362-0.5488281,0.0072021-0.9396973
	c0.0046997-0.3908691,0.0140991-0.8049316,0.0281372-1.2431641c0.0144653-0.4377441,0.0307007-0.8757324,0.0498657-1.314209
	s0.0379028-0.8273926,0.0570679-1.1669922c0.0758667-1.1987305,0.1563721-2.3171382,0.2420044-3.3554683
	c0.0852051-1.0385742,0.1708374-1.9680176,0.2560425-2.7895508c0.0852051-0.8208008,0.1610718-1.5146486,0.2279663-2.0810547
	c0.065979-0.5666504,0.1184082-0.9768066,0.156311-1.2319336c0.0187378-0.0756836,0.0166626-0.1318359-0.0072021-0.1699219
	c-0.0238647-0.0375977-0.0733032-0.0280762-0.1491089,0.0283203l-2.3198242,1.9399414
	c-0.1047974,0.0847169-0.1708374,0.1674806-0.1994019,0.2475587c-0.0285034,0.0805664-0.0570679,0.229248-0.0856323,0.4462891
	c-0.1043701,0.8684082-0.2155762,1.8876953-0.3344116,3.0581055c-0.1184692,1.1704102-0.2015381,2.4682612-0.2488403,3.8933101
	c-0.019165,0.5383301-0.0332031,0.979248-0.0426025,1.322998c-0.0097656,0.3439941-0.019165,0.6501465-0.0285034,0.9187012
	c-0.0098267,0.2683105-0.0166626,0.5273438-0.0213013,0.7770996c-0.005127,0.2490234-0.0119629,0.5483398-0.0213623,0.8967285
	c-0.0097656,0.4802246-0.0549316,0.9279785-0.135437,1.342041c-0.0805664,0.4145508-0.2202759,0.7746582-0.4196777,1.0805664
	c-0.1994019,0.3061533-0.4673462,0.5439463-0.8039551,0.7133799c-0.3369751,0.1696777-0.7711182,0.2543945-1.3023682,0.2543945
	c-0.1994019,0-0.4481812-0.0046387-0.7473145-0.013916c-0.298645-0.0095215-0.6070557-0.0351563-0.9249268-0.078125
	c-0.3178101-0.041748-0.6309204-0.1054688-0.9393921-0.1906738c-0.3084717-0.0844727-0.5717773-0.1975098-0.789917-0.3391113
	c-0.161438-0.1125488-0.2965088-0.2492676-0.4055786-0.4094248c-0.1090698-0.1601563-0.1635742-0.3669434-0.1635742-0.6213379
	c0-0.1323242,0.026001-0.2590332,0.0783691-0.3815918c0.052002-0.1223145,0.1210327-0.230957,0.2062378-0.3249512
	c0.3416748-0.3955078,0.6641846-0.7297363,0.9679565-1.0031738c0.3033447-0.2729492,0.5951538-0.5083008,0.875061-0.7062988
	s0.5526123-0.3649902,0.8184204-0.5012207c0.2654419-0.1367188,0.531311-0.2663574,0.7971191-0.3886719
	c0.1325073-0.0563965,0.1870728-0.1367188,0.1636353-0.2399902c-0.0238647-0.1035156-0.0690308-0.1933594-0.135498-0.2687988
	c-0.1708374-0.1975098-0.3199463-0.357666-0.4481812-0.4802246c-0.1282349-0.1223145-0.2398682-0.217041-0.3344727-0.2827148
	c-0.0949707-0.0661621-0.1734009-0.1079102-0.2347412-0.1271973c-0.0617676-0.0185547-0.1116333-0.027832-0.1495361-0.027832
	c-0.2752075,0.0092773-0.557251,0.092041-0.8465576,0.2475586c-0.2896729,0.1560059-0.5836792,0.3637695-0.8823242,0.6230469
	c-0.2990723,0.2597656-0.5908813,0.5568848-0.8754883,0.8916016c-0.2846069,0.3354492-0.5526123,0.6777344-0.8039551,1.0266113
	c-0.25177,0.3493652-0.4818726,0.6938477-0.6901855,1.0339355c-0.2087402,0.3393555-0.3842773,0.6462402-0.5266113,0.920166
	c-0.0570679,0.1130371-0.1115723,0.1699219-0.1635742,0.1699219c-0.0524292,0-0.0783691-0.0895996-0.0783691-0.2692871
	c0-0.3017578,0.0046387-0.6982422,0.0140381-1.189209c0.0093994-0.4904785,0.0213013-1.0002441,0.0357666-1.5288086
	c0.0140991-0.5285645,0.0328369-1.0478516,0.0567017-1.5576172c0.0238647-0.5100098,0.045166-0.9345703,0.0643311-1.2741699
	c0.0758057-1.1987305,0.156311-2.3171382,0.2419434-3.3554683c0.0852661-1.0385742,0.1704712-1.9680176,0.2561035-2.7895508
	c0.0852051-0.8208008,0.1610107-1.5146486,0.227478-2.0810547c0.0664673-0.5666504,0.1184692-0.9768066,0.1567993-1.2319336
	c0.0187378-0.0756836,0.0161743-0.1318359-0.0072632-0.1699219c-0.0238647-0.0375977-0.0736694-0.0280762-0.1495361,0.0283203
	l-2.3197632,1.9399414c-0.1044312,0.0847169-0.1708984,0.1674806-0.1989746,0.2475587
	c-0.0285645,0.0805664-0.0571289,0.229248-0.0856323,0.4462891c-0.1043701,0.8684082-0.2160034,1.8876953-0.3344727,3.0581055
	c-0.1188354,1.1704102-0.2014771,2.4682612-0.2487793,3.8933101c-0.0383301,1.1330566-0.0690308,2.1311035-0.0924683,2.9943848
	c-0.0238647,0.8640137-0.0404663,1.6450195-0.0498657,2.34375c-0.0097656,0.6982422-0.0072021,1.3425303,0.0068359,1.9326181
	c0.0144653,0.5898438,0.0404663,1.1728516,0.0783691,1.748291c0.0187988,0.2548828,0.0805664,0.472168,0.1849365,0.6516113
	c0.1043701,0.1787109,0.2752075,0.2685547,0.5125122,0.2685547c0.208313,0,0.3842773-0.0588379,0.5266113-0.1767578
	c0.1422729-0.1176758,0.2939453-0.2712402,0.4554443-0.4602051c0.0945435-0.1037598,0.2180786-0.2641602,0.369751-0.4814453
	c0.1516724-0.217041,0.3012695-0.4387207,0.4486694-0.6655273c0.1469727-0.2263184,0.2820435-0.434082,0.4055786-0.6230469
	c0.1231079-0.1887207,0.2036133-0.3110352,0.2415771-0.3679199c0.0758057-0.1037598,0.1282349-0.1486816,0.1567383-0.1342773
	c0.0285645,0.013916,0.052002,0.0681152,0.071167,0.1625977c0.06604,0.4248047,0.1994019,0.8049316,0.3983765,1.1398926
	c0.1993408,0.3352051,0.4647827,0.611084,0.7971191,0.828125c0.1329346,0.0847168,0.3059082,0.1772461,0.5193481,0.2758789
	c0.2134399,0.0993652,0.4741821,0.189209,0.7825928,0.2692871c0.3084717,0.0800781,0.6668091,0.1462402,1.0745239,0.1982422
	c0.4081421,0.0517578,0.8682251,0.0776367,1.3807983,0.0776367c0.4741821,0,0.875061-0.0424805,1.2022705-0.1279297
	c0.3276367-0.0852051,0.6049805-0.201416,0.8328857-0.3486328c0.2275391-0.1469727,0.4102783-0.3203125,0.5479126-0.5195313
	c0.137207-0.1992188,0.2581787-0.4174805,0.3625488-0.6547852l0.0145264,0.8251953
	c0.0093384,0.2558594,0.0685425,0.4746094,0.1776123,0.6547852c0.1090698,0.1796875,0.2824707,0.2700195,0.5197754,0.2700195
	c0.2275391,0,0.3983765-0.0800781,0.512085-0.2407227c0.1141968-0.1601563,0.213501-0.3203125,0.2991333-0.480957
	c0.6262817-1.142334,1.2713013-2.1616211,1.9354858-3.0585947c0.6637573-0.8964844,1.3377686-1.6796875,2.0206909-2.3500977
	c0.1231689-0.1132813,0.2207031-0.1557617,0.2918701-0.1276855c0.071167,0.0283203,0.1018066,0.1228027,0.0924683,0.2834473
	c-0.0192261,0.2739258-0.0354004,0.5024414-0.0498657,0.6867676c-0.0140991,0.1838379-0.0238647,0.3518066-0.0285645,0.5026855
	s-0.0119019,0.2995605-0.0213013,0.4458008c-0.0093384,0.1462402-0.0140381,0.309082-0.0140381,0.4882813
	c0,0.1606455,0.0021362,0.3447275,0.0072021,0.552247c0.0046997,0.2077637,0.026001,0.4248047,0.0639038,0.6513672
	c0.0379639,0.2265625,0.0946045,0.453125,0.1708984,0.6796875c0.0758057,0.2265625,0.1848755,0.4343262,0.3271484,0.6230469
	c0.2181396,0.2924805,0.4695435,0.5004883,0.7545166,0.6230469c0.2846069,0.1223145,0.583252,0.2121582,0.8964233,0.2685547
	c0.2752075,0.0568848,0.576416,0.0991211,0.9036255,0.1276855c0.3276367,0.0283203,0.666748,0.0495605,1.0178223,0.0634766
	c0.350647,0.0144043,0.7089233,0.0236816,1.0744629,0.0285645c0.3651123,0.0046387,0.7280884,0.0070801,1.088562,0.0070801
	l4.027771,0.0424805c0.4835815,0,0.8844604-0.0449219,1.2022705-0.1352539
	c0.3178711-0.0898438,0.5743408-0.2084961,0.7686157-0.3557129c0.1942749-0.1469727,0.343811-0.3151855,0.4481812-0.505127
	s0.1900024-0.3798828,0.2564697-0.5695801c0.0852051-0.2561035,0.1278076-0.5646973,0.1278076-0.925293
	c0-0.3305664-0.0281372-0.673584-0.0852051-1.0273438C82.3637009,15.6606989,82.3019333,15.3372126,82.2358932,15.0447321z
	 M97.791069,10.4644098c-0.0950317-0.0141602-0.1921387-0.0258789-0.2918091-0.0351563
	c-0.0997314-0.0095215-0.1972656-0.0166016-0.2918701-0.0214844c-0.0950317-0.0043945-0.1755371-0.0070801-0.2420044-0.0070801
	c-0.5219116,0-1.0510254,0.0588379-1.5865479,0.1772461c-0.536377,0.1179199-1.0369873,0.2995605-1.5018311,0.5449219
	c-0.4647827,0.2453613-0.8677979,0.5568848-1.2095337,0.9343262c-0.3416748,0.3774414-0.5789795,0.8305664-0.7114868,1.3591309
	c-0.0762329,0.2739258-0.0949707,0.5217285-0.0570679,0.7434082c0.0379028,0.222168,0.0950317,0.3896484,0.1708374,0.5026855
	c0.0852051,0.1416016,0.1942749,0.2548828,0.3272095,0.3400879c0.1329346,0.0847168,0.2824707,0.1481934,0.4486084,0.1911621
	c0.1657104,0.0422363,0.3366089,0.0705566,0.512085,0.0847168c0.1755371,0.013916,0.348938,0.0263672,0.5193481,0.0351563
	c0.1900635,0.0097656,0.3702393,0.0214844,0.5410767,0.0356445c0.1708374,0.013916,0.3178711,0.0375977,0.440979,0.0708008
	c0.1231079,0.032959,0.2181396,0.0800781,0.2846069,0.1416016c0.0664673,0.0612793,0.0949707,0.1394043,0.0856323,0.2333984
	c-0.0285645,0.1889648-0.1636353,0.3591318-0.4056396,0.5100107c-0.2419434,0.1508789-0.576416,0.2736816-1.0032959,0.3679199
	c-0.2752075,0.0566406-0.5789795,0.1062012-0.9108887,0.1486816c-0.3322754,0.0422363-0.666748,0.0778809-1.0032959,0.1064453
	c-0.3370361,0.027832-0.6569824,0.0471191-0.9607544,0.0563965c-0.303772,0.0097656-0.5691528,0.0144043-0.7971191,0.0144043
	c-1.4421387,0-2.6235352-0.0615234-3.543396-0.1843262c-0.9206543-0.1225586-1.5183716-0.2924805-1.7932129-0.5095215
	c-0.1900024-0.1508789-0.3275757-0.3349619-0.4128418-0.5524912c-0.0856323-0.2167969-0.1520386-0.4528809-0.1993408-0.7077637
	c-0.0379639-0.1606445-0.0758667-0.2453613-0.1137695-0.2546387s-0.0758057,0.0754395-0.1137695,0.2546387
	c-0.0379028,0.217041-0.0690308,0.4509277-0.0924072,0.7006836c-0.0238647,0.2504883-0.0358276,0.4980478-0.0358276,0.7434092
	c0,0.2548828,0.0145264,0.5073242,0.0426025,0.7573242c0.0285645,0.2504883,0.0805664,0.4697266,0.1567993,0.6586914
	c0.0758057,0.1794434,0.1942749,0.3632813,0.3557129,0.552002c0.1610718,0.1889648,0.3723755,0.361084,0.6331177,0.5170898
	c0.2611694,0.1555176,0.5836792,0.282959,0.9679565,0.3823242c0.3843384,0.0986328,0.8325195,0.1530762,1.3450317,0.1628418
	c0.2467041,0,0.4669189,0.0019531,0.6616211,0.0065918c0.1942749,0.0046387,0.4056396,0.0073242,0.6331177,0.0073242
	c0.2279053,0,0.486084-0.0026855,0.7758179-0.0073242c0.2893066-0.0046387,0.6522827-0.0119629,1.0889893-0.0212402
	c0.7399902-0.0092773,1.3944092-0.0612793,1.963623-0.1555176c0.5695801-0.0944824,1.0723267-0.2102051,1.508606-0.347168
	c0.4362793-0.1364746,0.8111572-0.2878418,1.1243286-0.4528809c0.3131104-0.1650391,0.5836792-0.3232422,0.8111572-0.4743652
	c0.4933472-0.3303223,0.9036255-0.7429199,1.2312622-1.2390137c0.3272095-0.4953613,0.4907837-1.0214853,0.4907837-1.5783701
	c0-0.2546387-0.0592041-0.4602051-0.1776123-0.6159668c-0.1188965-0.1557617-0.2731323-0.276123-0.4627075-0.3608398
	c-0.1900024-0.0849609-0.4034424-0.1416016-0.6403198-0.170166c-0.2373047-0.0283203-0.4793091-0.0515137-0.7260132-0.0708008
	c-0.3225098-0.0185547-0.5904541-0.0397949-0.8039551-0.0634766c-0.2134399-0.0236816-0.3821411-0.0568848-0.505249-0.0991211
	c-0.1235352-0.0424805-0.2062378-0.1013184-0.2492676-0.1772461c-0.0426025-0.0754395-0.0592041-0.1789551-0.0498047-0.3115234
	c0.019165-0.2546387,0.1282349-0.4619141,0.3276367-0.6225586c0.1989136-0.1606445,0.4268799-0.2832031,0.6829224-0.3684082
	c0.1994019-0.0754395,0.4200439-0.1152344,0.6616211-0.1203613c0.2420044-0.0046387,0.4720459,0.0119629,0.6906128,0.0495605
	c0.1325073,0.019043,0.2249756,0.019043,0.2773438,0c0.052002-0.0185547,0.1069336-0.0610352,0.1636353-0.1274414
	l1.2666016-1.373291c0.1043701-0.1132813,0.1469727-0.1862793,0.1282349-0.2197266
	c-0.019165-0.0324707-0.0809326-0.0634766-0.1848755-0.092041C97.9661789,10.4951715,97.8856735,10.47857,97.791069,10.4644098z"/>
</svg>
