<?xml version="1.0" encoding="utf-8"?>
<!-- Generator: Adobe Illustrator 23.0.0, SVG Export Plug-In . SVG Version: 6.00 Build 0)  -->
<svg version="1.1" id="_x31_" xmlns="http://www.w3.org/2000/svg" xmlns:xlink="http://www.w3.org/1999/xlink" x="0px" y="0px"
	 width="59.9999962px" height="48.0000725px" viewBox="0 0 59.9999962 48.0000725"
	 style="enable-background:new 0 0 59.9999962 48.0000725;" xml:space="preserve">
<path d="M27.1240807,29.8819084c-0.0527344-0.0302734-0.1171875-0.1584473-0.0783691-0.2321777
	c0.0380249-0.0725098,0.1589355-0.074707,0.2327881-0.0656738c0.5003052,0.0612793,0.9971313,0.1628418,1.4987793,0.1975098
	c0.4747314,0.0327148,0.9539185,0.0004883,1.4311523-0.0046387c0.5020752-0.0048828,1.0041504-0.0170898,1.5061035-0.012207
	c0.0800781,0.0007324,0.2216187,0.026123,0.2391968,0.1142578c0.019043,0.0947266-0.1109619,0.1799316-0.1901245,0.2138672
	c-0.4533691,0.1948242-0.9119263,0.3781738-1.3735352,0.5522461c-0.1384277,0.052002-0.2923584,0.0625-0.439209,0.0917969
	c-0.0022583-0.0129395-0.7284546,0.003418-1.0786743-0.0480957C28.2199059,30.5926018,27.6829796,30.2034416,27.1240807,29.8819084z
	 M26.1968346,34.0088615c-0.2075806-0.4365234-0.4748535-0.8964844-0.489563-0.9487305
	c-0.2794189-1.5285645-0.2422485-3.0844727-0.2122192-4.6469727c0.0917969-0.3796387,0.2297974-0.7363281,0.4491577-1.0078125
	c0.1796875-0.222168,0.8128662-0.7832031,0.9474487-0.9125977c0.2111816-0.2033691,0.3614502-0.416748,0.5026245-0.675293
	c0.331543-0.6064453,0.852356-0.513916,1.3375854-0.1933594c0.1113892,0.0737305,0.1931152,0.1921387,0.3013306,0.2724609
	c0.5901489,0.4375,1.4360352,0.3305664,1.9302979-0.2197266c0.0956421-0.1064453,0.2487793-0.1984863,0.387146-0.2199707
	c0.2200928-0.0341797,0.2161865-0.0639648,0.4302368-0.0231934c0.2086182-0.0151367,0.579895,0.6337891,1.0302734,0.9489746
	c0.7745361,0.5419922,1.2598267,1.7666016,1.2542114,2.6508789c-0.0136108,2.1335449-0.557373,4.6992188-1.2727051,5.482666
	c-0.2734985,0.3349609-0.737915,0.6845703-0.8868408,0.7895508c-0.6275635,0.4428711-0.8876953,0.5029297-1.6378784,0.572998
	c-0.6433105,0.0424805-1.1427612-0.0058594-1.723938-0.112793c-0.5591431-0.1027832-1.0757446-0.3757324-1.5198975-0.7297363
	C26.975338,34.9973869,26.449276,34.5401115,26.1968346,34.0088615z M26.2377892,30.6670647
	c0.0600586,0.5449219,0.1005249,1.081543,0.1828613,1.6113281c0.0879517,0.565918,0.2041016,1.151123,0.6132202,1.5915527
	c0.2192993,0.236084,0.5502319,0.517334,0.8284302,0.6359863c0.8010864,0.3417969,1.6602173,0.3964844,2.5216675,0.3068848
	c0.4790039-0.0500488,0.9456787-0.1779785,1.3214722-0.4997559c0.2105103-0.1801758,0.399353-0.3952637,0.5664673-0.6186523
	c0.1585083-0.2119141,0.2404175-0.5544434,0.3570557-0.8688965c0.0758667-0.2043457,0.1435547-0.4123535,0.2044678-0.6218262
	c0.2419434-0.8320313,0.4614868-1.6640625,0.3403931-2.550293c-0.0430298-0.3151855-0.2196655-0.4765625-0.4603271-0.6220703
	c-0.3536987-0.2143555-0.7161865-0.4194336-1.0441895-0.6696777c-0.1964722-0.1496582-0.3813477-0.2319336-0.6192017-0.1906738
	c-0.2744751,0.0476074-0.552063,0.152832-0.8220215,0.1352539c-0.5369873-0.034668-1.0684814-0.1479492-1.6047974-0.2036133
	c-0.1657715-0.0170898-0.3411865,0.0405273-0.5093994,0.0769043c-0.0673218,0.0144043-0.1260376,0.0664063-0.1906738,0.0969238
	c-0.5405273,0.2558594-1.0459595,0.5664063-1.4669189,0.998291c-0.0764771,0.0783691-0.1361694,0.2028809-0.147522,0.3117676
	C26.2711754,29.9475822,26.2592125,30.3113518,26.2377892,30.6670647z M24.5392418,35.5476799
	c-0.1673584-0.2460938-0.3674927-0.4714355-0.5670776-0.6928711c-0.539856-0.5991211-1.0830688-1.1950684-1.6333008-1.7844238
	c-0.4014282-0.4301758-0.8340454-0.831543-1.2192383-1.2753906c-0.3139038-0.3615723-0.5595703-0.7834473-0.8705444-1.1481934
	c-0.232605-0.2727051-0.5054321-0.5141602-0.9082642-0.5219727c-0.3410645-0.0065918-0.6618652,0.2727051-0.6113281,0.611084
	c0.0306396,0.2050781,0.1152344,0.4326172,0.2489014,0.5844727c0.2172852,0.246582,0.493103,0.4411621,0.7473145,0.6540527
	c0.1311646,0.1098633,0.3080444,0.1855469,0.3968506,0.3215332c0.3560181,0.5454102,0.6784058,1.112793,1.0268555,1.6635742
	c0.4825439,0.7626953,0.7522583,1.6652832,1.565918,2.2080078c0.8027344,0.5354004,1.3568726,1.3774414,2.1948242,1.8867188
	c0.3666382,0.2229004,0.6838379,0.5273438,1.0357666,0.7770996c0.2278442,0.1618652,0.4690552,0.3103027,0.7194824,0.4331055
	c0.8963013,0.4394531,1.8792725,0.4521484,2.8411865,0.5598145c0.1620483,0,0.326355,0.0178223,0.4857788-0.0029297
	c0.7423096-0.0961914,1.4325562-0.362793,2.097168-0.6962891c0.3070679-0.1540527,0.5714722-0.3647461,0.7780762-0.6586914
	c0.2541504-0.3615723,0.5174561-0.7272949,0.8328247-1.0322266c0.5982666-0.5783691,1.2321167-1.119873,1.8613892-1.6645508
	c0.1369629-0.1186523,0.2487183-0.2355957,0.1739502-0.411377c-0.0765991-0.1799316-0.2454834-0.2692871-0.439209-0.2307129
	c-0.2709351,0.0539551-0.5446777,0.112793-0.8026123,0.2092285c-0.3881226,0.1452637-0.7671509,0.3168945-1.1436157,0.4914551
	c-0.4731445,0.2194824-0.9393921,0.4538574-1.4094238,0.6801758c-0.1459351,0.0703125-0.2920532,0.1411133-0.4422607,0.2011719
	c-0.3546143,0.1413574-0.710083,0.2810059-1.0682373,0.4128418c-0.2854614,0.1052246-0.5709839,0.2160645-0.8649902,0.2895508
	c-0.2073975,0.0517578-0.4324341,0.0273438-0.6436768,0.0681152c-0.4311523,0.0830078-0.8537598,0.0292969-1.2538452-0.112793
	c-0.5335083-0.189209-1.0490112-0.4301758-1.5722656-0.6489258C25.4791832,36.4607658,24.9282799,36.1197014,24.5392418,35.5476799z
	 M22.2103233,17.1475334c-0.2940063,0.0771484-0.5776978,0.1958008-0.8641968,0.3007813
	c-0.2434692,0.0893555-0.3579712,0.3164063-0.2915649,0.5627441c0.0877075,0.3256836,0.4767456,0.5334473,0.8650513,0.4855957
	c0.2114868-0.0263672,0.4404907-0.0629883,0.6394653-0.0100098c0.7300415,0.1940918,1.4527588,0.4174805,2.1737671,0.6442871
	c0.2127075,0.0668945,0.4085083,0.1867676,0.6159668,0.2729492c0.5531616,0.2297363,1.1306152,0.3588867,1.725647,0.4104004
	c0.0718384,0,0.1536865,0.0227051,0.2137451-0.0041504c0.2059326-0.0922852,0.520752,0.0361328,0.6117554-0.2893066
	c0.2369385-0.8476563-0.0394897-1.220459-0.7919312-1.4387207c-0.5593262-0.1621094-1.151001-0.2070313-1.723938-0.3256836
	c-0.4130249-0.0856934-0.824585-0.1879883-1.2266235-0.3154297C23.5213585,17.2390862,22.8969078,16.9666252,22.2103233,17.1475334z
	 M38.1325645,17.7725334c-0.1690063-0.3081055-0.3306274-0.6311035-0.7235107-0.7011719
	c-0.6116333-0.1091309-1.2229004-0.0703125-1.8280029,0.0439453c-0.8135986,0.1538086-1.6264038,0.314209-2.4346313,0.4941406
	c-0.5186157,0.1154785-1.0337524,0.2541504-1.5407104,0.4140625c-0.4781494,0.1506348-0.7663574,0.5466309-0.7724609,1.0073242
	c0.0406494,0.2285156,0.1351929,0.4421387,0.3505249,0.5959473c0.418457,0.2988281,0.8547974,0.4941406,1.3722534,0.2832031
	c0.1376343-0.0561523,0.2633667-0.1418457,0.4009399-0.1982422c0.3665771-0.1501465,0.7602539-0.2495117,1.1004028-0.4450684
	c0.7747192-0.4450684,1.5945435-0.7504883,2.4573364-0.9572754c0.3410645-0.0817871,0.657959-0.0925293,0.9421997,0.1584473
	c0.065979,0.0583496,0.1566772,0.0883789,0.2372437,0.1289063c0.1913452,0.0961914,0.3398438,0.0275879,0.4851685-0.111084
	c0.152771-0.1459961,0.086853-0.2575684,0.0507202-0.4599609C38.2073936,17.8987541,38.1756554,17.8511467,38.1325645,17.7725334z
	 M35.6944542,14.3284416c-0.572876-0.1306152-1.1488037-0.0725098-1.7237549-0.0458984
	c-0.3686523,0.017334-0.7402954,0.034668-1.1034546,0.095459c-0.6754761,0.1130371-1.3421631,0.2827148-2.0193481,0.3806152
	c-0.4685669,0.067627-0.9494019,0.083252-1.4233398,0.0700684c-0.618042-0.017334-1.2353516-0.078125-1.8514404-0.1362305
	c-0.2474976-0.0234375-0.4893188-0.1123047-0.7366943-0.1308594c-0.6398315-0.048584-1.2446289-0.2341309-1.8549194-0.4155273
	c-0.3219604-0.0957031-0.6744385-0.2822266-0.9989014-0.0085449c-0.0880127,0.0744629-0.1811523,0.2443848-0.1530762,0.3310547
	c0.0343628,0.105957,0.1879272,0.1804199,0.3015137,0.2492676c0.0783691,0.0476074,0.1925659,0.0407715,0.2625732,0.0952148
	c0.2623901,0.2036133,0.4910278,0.4614258,0.7738647,0.6264648c0.3792114,0.2214355,0.7937012,0.3833008,1.1991577,0.5561523
	c0.460144,0.1960449,0.8839722,0.4794922,1.4015503,0.5380859c0.4616089,0.0517578,0.9181519,0.1494141,1.305542,0.2145996
	c0.423645-0.0505371,0.774353-0.0795898,1.1204224-0.1369629c0.6101074-0.1008301,1.2198486-0.2070313,1.8252563-0.333252
	c0.8101196-0.1689453,1.6286621-0.3024902,2.3781738-0.7004395c0.4728394-0.2509766,0.9585571-0.4853516,1.4802856-0.6298828
	c0.0671387-0.0185547,0.1407471-0.1318359,0.1533813-0.2104492C36.0654259,14.52351,35.9155235,14.3789787,35.6944542,14.3284416z
	 M38.0666466,24.9473381c-0.506958,0.1611328-0.8514404,0.5861816-1.1891479,0.9912109
	c-0.1828003,0.2192383-0.3728027,0.4155273-0.5897827,0.552002c-0.2514648,0.3708496-0.5109863,0.7390137-0.7052002,1.1530762
	c-0.456543,0.9729004-0.65448,1.7841797-1.1251221,2.9997559c-0.2061768,0.6989746-0.2511597,1.2197266-0.2628174,1.4401855
	c-0.0134888,0.2539063-0.041748,0.8061523-0.038208,0.8217773c0.0462036,0.2070313,0.0161743,0.2277832,0.244873,0.2946777
	c0.0697021,0.0205078,0.1414795,0.0073242,0.213623-0.0275879c0.3565674-0.453125,0.6735229-0.9377441,0.963562-1.4394531
	c0.3889771-0.6730957,0.6688843-1.4104004,0.9972534-2.1191406c0.0495605-0.1069336,0.0957642-0.2155762,0.1473999-0.3215332
	c0.3531494-0.7253418,0.6953735-1.4562988,1.0678101-2.1713867c0.1300049-0.2497559,0.3168335-0.4772949,0.5108643-0.6833496
	c0.3515625-0.3730469,0.8170776-0.6323242,1.0667725-1.1091309c0.1281128-0.244873,0.0750732-0.4462891-0.1860962-0.4587402
	C38.8105431,24.8523674,38.4135094,24.8372307,38.0666466,24.9473381z M17.4654503,16.6739006
	c0.0965576-0.4033203,0.1901855-0.8093262,0.2514648-1.2192383c0.0780029-0.5219727,0.2677612-0.9675293,0.6641846-1.329834
	c0.1953735-0.1784668,0.380127-0.3962402,0.3270874-0.7011719c0.060791-0.3063965-0.1193848-0.4963379-0.3269043-0.6447754
	c-0.0956421-0.0683594-0.2588501-0.0908203-0.3762207-0.0644531c-0.1419678,0.0317383-0.267334,0.1376953-0.4007568,0.2099609
	c-0.1746216,0.0947266-0.2975464,0.2229004-0.3293457,0.4338379c-0.043396,0.2868652-0.1079102,0.5705566-0.1529541,0.8574219
	c-0.1876221,1.1950684-0.4676514,2.3664551-0.8325806,3.5202637c-0.1737671,0.5493164-0.2904673,1.1184082-0.4074106,1.6838379
	c-0.0352783,0.1706543-0.0136719,0.3674316,0.0319214,0.5383301c0.2083139,0.7810059,0.4190073,1.5620117,0.6583872,2.3337402
	c0.2541504,0.8193359,0.5308838,1.6323242,1.0161743,2.3530273c0.1158447,0.1721191,0.2345581,0.3530273,0.2985229,0.5478516
	c0.1668701,0.5085449,0.3001099,1.0280762,0.4546509,1.5407715c0.1069946,0.3549805,0.2021484,0.7167969,0.3499756,1.0546875
	c0.0975342,0.2226563,0.3401489,0.2644043,0.5600586,0.1533203c0.1799316-0.0908203,0.3601685-0.1850586,0.2850342-0.4506836
	c-0.2423096-0.8566895-0.4512329-1.7177734-0.5981445-2.6010742c-0.151001-0.9082031-0.421814-1.7995605-0.6860352-2.684082
	c-0.1760864-0.5895996-0.3985596-1.1711426-0.6641846-1.7250977c-0.1943359-0.4052734-0.4019775-0.7993164-0.5230103-1.2348633
	c-0.0230103-0.0827637-0.1177979-0.1633301-0.1077271-0.234375c0.06073-0.4306641,0.12854-0.8613281,0.2210693-1.2856445
	C17.2559776,17.3709221,17.3809166,17.0271721,17.4654503,16.6739006z M42.3585777,5.4063225
	c0.1242676,0.0710449,0.2335815,0.2053223,0.3002319,0.3366699c0.524353,1.0339355,0.7268677,2.1652832,0.9534302,3.2885742
	c0.0251465,0.1245117,0.0349121,0.2580566,0.0880127,0.3696289c0.4102173,0.8632813,0.4609375,1.7919922,0.480835,2.7219238
	c0.0195313,0.909668,0.0267334,1.8120117,0.2698975,2.7050781c0.2501831,0.918457,0.4929199,1.8466797,0.4639282,2.8178711
	c0.0266113,0.0021973-0.0387573,0.8283691-0.1022339,1.2387695c-0.1148071,0.7419434-0.3106079,1.4309082-0.9542236,1.9199219
	c-0.534729,0.4060059-0.7484131,1.0263672-0.7202759,1.6635742c0.0270996,0.6123047,0.3187256,0.8237305,0.880249,0.5683594
	c0.3334351-0.1513672,0.6237183-0.3613281,0.8386841-0.6928711c0.3497314-0.5393066,0.6385498-1.1013184,0.7705078-1.7294922
	c0.1002808-0.4770508,0.1867676-0.9648438,0.2041016-1.4506836c0.0303955-0.8520508,0.0560303-1.7106934-0.0125732-2.5585938
	c-0.104187-1.2885742-0.2988892-2.5698242-0.6975098-3.8063965c-0.1431274-0.4438477-0.1211548-0.8581543,0.0308838-1.300293
	c0.2441406-0.7099609,0.109436-1.3955078-0.2295532-2.0541992C44.7369957,9.082592,44.52911,8.7185783,44.4283409,8.3299065
	c-0.1408081-0.5432129-0.1845703-1.1115723-0.2814941-1.6669922C44.0523033,6.1209221,44.0601768,5.551342,43.7841148,5.05476
	c-0.2706909-0.4868164-0.5595093-0.9538574-1.2080078-0.9958496c-0.2585449-0.0166016-0.4329834,0.0766602-0.5877686,0.2597656
	c-0.1433105,0.1691895-0.1192627,0.3535156-0.0479126,0.5400391C42.0258141,5.0818596,42.1340904,5.2781487,42.3585777,5.4063225z
	 M19.0472374,14.8667717c-0.0397339,0.177002-0.0797729,0.3544922-0.1082764,0.5336914
	c-0.0741577,0.4663086-0.1811523,0.9316406-0.2012329,1.4008789c-0.0187988,0.4382324,0.0402222,0.8830566,0.0966797,1.3208008
	c0.0499268,0.3864746,0.1486816,0.7663574,0.2164917,1.1508789c0.0724487,0.4104004,0.1825562,0.8220215,0.1890259,1.2346191
	c0.0100708,0.6364746-0.0786133,1.2744141-0.0776367,1.9116211c0.0006104,0.3959961,0.062561,0.7978516,0.1471558,1.1860352
	c0.0665283,0.3054199,0.3901367,0.4182129,0.6146851,0.2512207c0.2327881-0.1728516,0.4016113-0.3964844,0.4256592-0.6982422
	c0.0216675-0.2719727,0.0266724-0.5454102,0.0372314-0.8183594c0.020752-0.5351563,0.0019531-1.0751953,0.0692139-1.6040039
	c0.1062012-0.8354492,0.1185303-1.6450195-0.241333-2.4316406c-0.0799561-0.1748047-0.0876465-0.3886719-0.1034546-0.5869141
	c-0.0319214-0.3996582-0.0545044-0.8005371-0.065918-1.2011719c-0.0089722-0.3168945-0.0488892-0.6464844,0.0197754-0.9484863
	c0.1179199-0.5185547,0.3092651-1.0202637,0.4707642-1.5285645c0.1680298-0.5288086-0.2887573-1.1889648-0.8483276-1.2246094
	c-0.2348633-0.0148926-0.3295898,0.0537109-0.2988892,0.2993164c0.0603027,0.4821777,0.0532227,0.9375-0.2340698,1.359375
	C19.0825768,14.579174,19.0771446,14.7332268,19.0472374,14.8667717z M40.1999474,27.9512444
	c-0.1501465,0.3554688-0.3115234,0.7143555-0.5266724,1.03125c-0.1801147,0.2651367-0.4794312,0.4467773-0.6655884,0.7089844
	c-0.5263062,0.7414551-0.9385376,1.5515137-1.2374878,2.4121094c-0.203064,0.5844727-0.4477539,1.1069336-1.0610962,1.3652344
	c-0.1956177,0.0822754-0.3015747,0.4057617-0.2362061,0.5617676c0.1262817,0.3015137,0.3320313,0.4116211,0.6223145,0.3483887
	c0.267395-0.0583496,0.43573-0.239502,0.5880127-0.4484863c0.1940918-0.2663574,0.4029541-0.5007324,0.7472534-0.5898438
	c0.5245972-0.1357422,0.9301147-0.4519043,1.2352905-0.9084473c0.1911011-0.2858887,0.3911743-0.5693359,0.6168823-0.8271484
	c0.6293335-0.7197266,0.8165894-1.5805664,0.8199463-2.503418c0.0015259-0.4165039-0.0532227-0.8312988,0.098938-1.2397461
	c0.2469482-0.6635742,0.4838867-1.331543,0.7008667-2.0058594c0.1721191-0.534668,0.3123169-1.0803223,0.4575806-1.6235352
	c0.0535889-0.2006836,0.0811768-0.4082031,0.1206055-0.612793c-0.0101318-0.001709-0.0203247-0.003418-0.0305176-0.005127
	c0-0.1003418,0.0089722-0.201416-0.0018311-0.3005371c-0.0220947-0.2019043-0.2265625-0.4182129-0.4146118-0.4516602
	c-0.1590576-0.0280762-0.4453735,0.1291504-0.5012207,0.3100586c-0.1095581,0.3540039-0.2369995,0.7099609-0.2833862,1.0749512
	c-0.1130981,0.888916-0.3404541,1.7434082-0.6500244,2.579834C40.4609947,27.2000237,40.3543053,27.5857658,40.1999474,27.9512444z
	 M41.3980064,17.9986076c-0.0795288,0.6279297-0.2595215,1.2563477-0.2850342,1.8771973
	c0.0153809,0.2197266,0.0731201,0.4099121,0.1179199,0.6030273c0.0543823,0.2341309,0.3120728,0.3986816,0.5316162,0.3664551
	c0.2219238-0.0327148,0.3983765-0.2368164,0.3919678-0.4819336c-0.0071411-0.2714844-0.024231-0.543457-0.0546265-0.8129883
	c-0.0407104-0.3618164-0.0839233-0.7109375,0.0472412-1.074707c0.2832031-0.7851563,0.5362549-1.5817871,0.7914429-2.3771973
	c0.0910645-0.2839355,0.1956177-0.5737305,0.2186279-0.8669434c0.0505371-0.6437988,0.0703735-1.2915039,0.069458-1.9375
	c-0.0007324-0.5239258-0.0213013-1.0585938-0.4128418-1.4724121c-0.0773315-0.0817871-0.2002563-0.157959-0.3070679-0.1652832
	c-0.305481-0.0217285-0.607605,0.1899414-0.7140503,0.4838867c-0.2183838,0.6032715-0.1830444,1.2133789-0.0491333,1.8308105
	c0.0509644,0.2351074,0.0722656,0.486084,0.0531616,0.7253418c-0.0296631,0.3708496-0.1164551,0.7363281-0.159729,1.1064453
	C41.5515099,16.5342522,41.4905357,17.268383,41.3980064,17.9986076z M38.8854942,22.8740959
	c-0.0631104,0.2705078,0.0574341,0.4296875,0.3287354,0.4943848c0.4852905,0.1152344,0.6980591,0.0092773,0.9268188-0.440918
	c0.4046021-0.7961426,0.6235962-1.6264648,0.4766846-2.5275879c-0.0817871-0.5021973-0.1675415-1.0036621-0.2476196-1.5058594
	c-0.1235962-0.7753906-0.0519409-1.5410156,0.0875244-2.3085938c0.1479492-0.8144531,0.2630005-1.6350098,0.3924561-2.4528809
	c-0.0476685-0.4909668-0.06427-0.9665527-0.4771729-1.3239746c-0.1589355-0.1376953-0.4251709-0.1906738-0.5339355-0.0134277
	c-0.2459106,0.4006348-0.4916382,0.8098145-0.5045776,1.302002c-0.0100708,0.3811035,0.0465698,0.7697754-0.0091553,1.142334
	c-0.0856323,0.5725098-0.1087036,1.1374512-0.0678101,1.7138672c0.0339966,0.4787598,0.090271,0.9760742,0.00177,1.4389648
	c-0.1627197,0.8510742-0.1478271,1.6789551,0.0459595,2.5141602c0.1107178,0.4770508,0.0957031,0.9304199-0.1947021,1.3596191
	C38.992794,22.4400139,38.9344444,22.664135,38.8854942,22.8740959z M29.7721519,31.6507072
	c-0.0674438-0.0808105-0.2371216-0.1132813-0.3554688-0.1044922c-0.2355957,0.0178223-0.2990723,0.2341309-0.4158325,0.4077148
	c-0.2446899,0.3637695-0.394165,0.7468262-0.4169922,1.3039551c0.0258179,0.1259766,0.0565186,0.3708496,0.1282959,0.6030273
	c0.1047974,0.3388672,0.5414429,0.5332031,0.8775024,0.4575195c0.3470459-0.078125,0.4786377-0.3422852,0.5776367-0.6228027
	c0.1519775-0.4304199,0.2516479-0.8864746,0.0750732-1.3266602C30.1372643,32.1072502,29.9546471,31.8697014,29.7721519,31.6507072z
	 M41.4396935,40.0799065c0.1847534-0.237793,0.3299561-0.5148926,0.4519653-0.7927246
	c0.222229-0.5058594,0.4348145-1.0180664,0.6126709-1.5410156c0.210083-0.6176758,0.3588257-1.2568359,0.5708008-1.8740234
	c0.2856445-0.8312988,0.6408081-1.6394043,0.9002686-2.4785156c0.1920166-0.6206055,0.3379517-1.269043,0.395752-1.9147949
	c0.0560303-0.6262207,0.2073364-1.1704102,0.6374512-1.6325684c0.0963745-0.1032715,0.1389771-0.2578125,0.2268677-0.4289551
	c-0.0962524-0.173584-0.1447754-0.3964844-0.2762451-0.4716797c-0.34729-0.1984863-0.6922607-0.0788574-0.8428345,0.3071289
	c-0.2397461,0.6149902-0.4436646,1.2456055-0.630127,1.8793945c-0.317688,1.0800781-0.5935669,2.1728516-0.9191895,3.2502441
	c-0.1972046,0.6525879-0.4123535,1.3063965-0.6977539,1.9228516c-0.2770386,0.5983887-0.6606445,1.145752-0.9854126,1.7224121
	c-0.3317261,0.5888672-0.6811523,1.1535645-1.2938843,1.4985352c-0.1685791,0.0949707-0.2940063,0.2646484-0.4534302,0.380127
	c-0.2034912,0.1474609-0.4343872,0.2578125-0.6295776,0.4145508c-0.2404175,0.1931152-0.4619751,0.3046875-0.7872925,0.1821289
	c-0.3216553-0.1210938-0.6106567,0.1616211-0.5693359,0.5097656c0.0303345,0.255127,0.1936035,0.4077148,0.3832397,0.5639648
	c0.3771362,0.3110352,0.906189,0.3515625,1.3227539,0.0939941c0.3354492-0.2075195,0.6837158-0.3967285,1.0378418-0.5700684
	C40.454525,40.8267326,41.0425987,40.5913811,41.4396935,40.0799065z M37.7367516,42.6580315
	c-0.324707,0.0456543-0.6369629,0.1838379-0.9533081,0.2854004c-0.0482178,0.0153809-0.0899658,0.0534668-0.1327515,0.0837402
	c-0.1465454,0.104248-0.2788696,0.2453613-0.440979,0.307373c-0.3330078,0.1281738-0.6794434,0.2231445-1.0245361,0.315918
	c-1.2299805,0.3303223-2.4796143,0.5168457-3.7546997,0.5400391c-0.7924805,0.0146484-1.5843506,0.0646973-2.3765259,0.0993652
	c-0.6019897,0.0266113-1.2080688,0.1113281-1.8050537,0.0681152c-0.9319458-0.0673828-1.857666-0.2219238-2.786377-0.3366699
	c-0.0876465-0.0109863-0.1777954,0.0012207-0.2666016-0.0021973c-0.460144-0.0178223-0.8071289,0.2861328-1.2000122,0.4489746
	c-0.3685303,0.152832-0.4567871,0.5634766-0.2211914,0.7956543c0.0997925,0.0983887,0.2297974,0.1811523,0.361145,0.2282715
	c0.4916382,0.1762695,0.9910889,0.3305664,1.484314,0.5026855c0.1945801,0.0678711,0.3795776,0.1633301,0.5708618,0.2416992
	c0.4234619,0.1730957,0.8401489,0.3686523,1.274231,0.5090332c0.6528931,0.2111816,1.2901611,0.4431152,1.8662109,0.8312988
	c0.1829224,0.123291,0.397522,0.2373047,0.6104126,0.2697754c0.8373413,0.1271973,1.6747437,0.2163086,2.5291138,0.0983887
	c0.5109253-0.0705566,0.9423218-0.2915039,1.3764038-0.527832c0.1467896-0.0800781,0.2913208-0.1938477,0.2139893-0.4165039
	c-0.0748901-0.2155762-0.1929321-0.371582-0.4349976-0.3869629c-0.0715942-0.0046387-0.1442871,0.0043945-0.2161865,0.0107422
	c-0.2866211,0.0251465-0.5726929,0.0615234-0.8598633,0.0754395c-1.027771,0.0500488-2.0214844-0.2124023-3.0296631-0.3439941
	c-0.788269-0.1030273-1.3779907-0.6999512-2.1401978-0.8662109c-0.029541-0.0065918-0.0473633-0.0678711-0.0706177-0.1035156
	c0.0461426-0.0117188,0.0946655-0.0393066,0.1381226-0.0327148c0.5927734,0.0893555,1.1895752,0.1601563,1.7761841,0.28125
	c1.3548584,0.2792969,2.7227173,0.2939453,4.093689,0.2351074c0.6015625-0.0258789,1.8067627-0.1159668,1.8095093-0.0952148
	c0.5233154-0.079834,1.0485229-0.1491699,1.5695801-0.2421875c0.9298096-0.1655273,1.8320923-0.4038086,2.538269-1.1000977
	c0.0307007-0.0302734,0.0758057-0.0454102,0.1137695-0.0683594c0.3800659-0.2294922,0.6479492-0.5446777,0.6945801-1.0026855
	c0.010498-0.1030273-0.0333252-0.2536621-0.1071167-0.3166504C38.5935631,42.7517815,38.1813927,42.5955315,37.7367516,42.6580315z
	 M21.1825523,43.816967c-0.0580444-0.2626953-0.2225952-0.4150391-0.4383545-0.4667969
	c-0.4212646-0.1005859-0.5869751-0.4362793-0.7473145-0.7644043c-0.2142944-0.4387207-0.4177856-0.8718262-0.7122803-1.2724609
	c-0.6758423-0.9196777-1.2897949-1.8815918-1.7767944-2.9248047c-0.2756348-0.590332-0.6483765-1.1335449-0.9492188-1.7128906
	c-0.2750854-0.5297852-0.5176392-1.0773926-0.7641611-1.6218262c-0.1411133-0.3115234-0.3856812-0.4921875-0.6826172-0.6281738
	c-0.4229736-0.1936035-0.6497192-0.5803223-0.7107544-0.9968262c-0.0639648-0.4375-0.0089722-0.8996582,0.0427856-1.3452148
	c0.0649414-0.559082,0.1880493-1.1113281,0.2704468-1.6689453c0.0940552-0.6367188,0.1311035-1.2854004,0.4508667-1.8669434
	c0.1089478-0.197998,0.1995239-0.4064941,0.3096313-0.6037598c0.0681763-0.1220703,0.1536255-0.2351074,0.2380371-0.3469238
	c0.0997925-0.1323242,0.2589111-0.2436523,0.3009043-0.390625c0.1226196-0.4294434-0.1851816-0.9489746-0.6048594-1.0876465
	c-0.1939087-0.0639648-0.5776978,0.0930176-0.65448,0.2858887c-0.1665039,0.4182129-0.4051514,0.815918-0.3816528,1.2927246
	c0.0025635,0.052002-0.0203247,0.105957-0.0354614,0.157959c-0.2186279,0.7495117-0.4289551,1.5014648-0.6600342,2.2468262
	c-0.177124,0.5712891-0.3435059,1.1508789-0.5828857,1.6962891c-0.2375488,0.5412598-0.4108276,1.0859375-0.4425659,1.621582
	c-0.0144043,0.4838867,0.2233276,1.1298828,0.5785522,1.5234375c0.3498535,0.3876953,0.6506958,0.8015137,0.8204346,1.3000488
	c0.3831177,1.1252441,0.9343262,2.1699219,1.5241089,3.1921387c0.2203369,0.3818359,0.5476694,0.6992188,0.8002939,1.064209
	c0.4500732,0.6501465,0.9680786,1.2346191,1.5654297,1.7485352c0.1751099,0.1506348,0.3610229,0.2895508,0.526062,0.4506836
	c0.3988037,0.388916,0.6063843,0.8847656,0.7902832,1.4050293c0.1054688,0.2983398,0.2664185,0.6123047,0.4906616,0.8234863
	c0.282959,0.2668457,0.6661377,0.4216309,0.9863892,0.6525879c0.2093506,0.151123,0.421814,0.1994629,0.6190186,0.0559082
	c0.2203369-0.1604004,0.2323608-0.4174805,0.1606445-0.6696777C21.4044762,44.5828362,21.2684288,44.2056389,21.1825523,43.816967z
	 M20.4709435,24.8775139c-0.0691528,0.019043-0.1558838,0.0849609-0.1776733,0.1491699
	c-0.1005859,0.2961426-0.1854248,0.6140137,0.0150757,0.8908691c0.25354,0.3500977,0.5332642,0.6831055,0.8228149,1.0039063
	c0.4491577,0.4978027,0.9208984,0.972168,1.1729126,1.6186523c0.1412964,0.3623047,0.3049927,0.7189941,0.4944458,1.0576172
	c0.229187,0.4101563,0.4990845,0.7966309,0.7466431,1.1962891c0.3042603,0.4912109,0.6983643,1.440918,0.9788208,1.5112305
	c0.1192627,0.0500488,0.293335-0.0444336,0.3226318-0.0598145c0.3204346-0.1699219,0.2435303-0.7941895,0.2124023-1.2961426
	c-0.0321655-0.5158691-0.1651611-1.098877-0.2895508-1.588623c-0.1651001-0.5668945-0.3574219-0.8452148-0.5645142-1.1416016
	c-0.2730103-0.3908691-0.6965332-1.1262207-1.0927124-1.467041c-0.0846558-0.072998-0.1624146-0.1491699-0.2366333-0.2275391
	c-0.1116333-0.0544434-0.2166138-0.1262207-0.3083496-0.2299805c-0.293396-0.3317871-0.598877-0.6557617-0.8618774-1.0112305
	C21.3576012,24.8130608,20.9497032,24.7454338,20.4709435,24.8775139z M59.7356529,41.2166252
	c-0.1603394-0.2370605-0.3527222-0.4597168-0.5631104-0.6533203c-0.3255005-0.2998047-0.6679077-0.5666504-1.135437-0.6418457
	c-0.8344116-0.1337891-1.5061035-0.5632324-2.032959-1.2336426c-0.0736694-0.09375-0.2177734-0.1777344-0.3328857-0.1828613
	c-0.3720093-0.0166016-0.7269897,0.065918-0.9541016,0.4018555c-0.1359863,0.2011719-0.2611084,0.4160156-0.3521118,0.640625
	c-0.2403564,0.59375-0.6033325,1.0776367-1.1722412,1.3754883c-0.4210815,0.220459-0.8560791,0.4140625-1.2868652,0.6152344
	c-0.2601929,0.121582-0.4036255,0.3210449-0.3739624,0.5383301c0.0466919,0.3417969,0.6230469,0.6750488,0.9034424,0.4785156
	c0.2678223-0.1877441,0.5640869-0.1604004,0.8428955-0.2441406c0.2122192-0.0637207,0.4511719-0.1135254,0.6153564-0.2480469
	c0.4111328-0.3364258,0.7815552-0.7233887,1.1796875-1.0769043c0.1026611-0.0910645,0.2522583-0.1967773,0.3720703-0.1875
	c0.5098267,0.0393066,0.9865723,0.2094727,1.4036865,0.5136719c0.3705444,0.2700195,0.7084961,0.5893555,1.0939331,0.8339844
	c0.3155518,0.2001953,0.6663818,0.3769531,1.0254517,0.4663086c0.6162109,0.1533203,0.9697266-0.1376953,1.0314941-0.7907715
	C59.9142418,41.6182365,59.8566856,41.3955803,59.7356529,41.2166252z M52.0029869,39.5042229
	c0.2874756-0.4487305,0.4950562-0.9501953,0.7311401-1.4318848c0.0387573-0.0791016,0.0482788-0.1726074,0.06073-0.2197266
	c-0.0236816-0.3310547-0.0343018-0.607666-0.2145996-0.8681641c-0.1930542-0.2790527-0.2617798-0.3688965-0.5845947-0.2692871
	c-0.3325195,0.1022949-0.6539917,0.248291-0.9695435,0.3984375c-0.6442261,0.3063965-1.0200806,0.8859863-1.1615601,1.5307617
	c-0.182312,0.8310547-0.4976196,1.5842285-0.9682617,2.2634277c-0.2727051,0.3937988-0.6436157,0.7338867-1.0200195,1.0349121
	c-0.5444336,0.4348145-1.2318726,0.583252-1.8709717,0.8232422c-0.2219238,0.083252-0.3677979,0.2304688-0.4243164,0.456543
	c-0.0792236,0.3164063,0.168396,0.5864258,0.4801636,0.5214844c0.2010498-0.041748,0.4029541-0.0944824,0.5932007-0.1711426
	c0.3596191-0.1445313,0.7178345-0.2961426,1.0639648-0.470459c0.3032227-0.152832,0.6091309-0.314209,0.8780518-0.5192871
	c0.4649658-0.3552246,0.9035034-0.7458496,1.3508301-1.1245117c0.4193726-0.3549805,0.84729-0.7006836,1.2496338-1.074707
	C51.4879112,40.1135979,51.7910728,39.8352776,52.0029869,39.5042229z M47.409481,38.159008
	c0.1924438-0.279541,0.4025269-0.565918,0.5071411-0.8820801c0.1151123-0.3481445,0.1222534-0.7331543,0.1691895-1.1030273
	c0.0514526-0.4057617-0.1112061-0.7385254-0.3344116-1.0644531c-0.289917-0.4233398-0.5581665-0.862793-0.8170776-1.3063965
	c-0.1168213-0.2001953-0.2015381-0.4226074-0.2782593-0.6428223c-0.1932983-0.5554199-0.5378418-1.0869141-0.2915649-1.7199707
	c0.0192261-0.0495605,0.0174561-0.1071777,0.0212402-0.1330566c-0.0003052-0.3706055-0.1875-0.5339355-0.5057983-0.4199219
	c-0.164978,0.0593262-0.3398438,0.1848145-0.4348145,0.3305664c-0.2518921,0.3862305-0.2947388,0.8383789-0.2575684,1.2880859
	c0.0205688,0.2490234,0.0626221,0.5146484,0.1714478,0.7338867c0.2295532,0.4628906,0.5103149,0.8996582,0.7675171,1.3486328
	c0.0310059,0.0539551,0.0568848,0.1152344,0.0672607,0.1762695c0.1229248,0.7197266,0.3869629,1.4279785,0.0921631,2.1726074
	c-0.196228,0.4953613-0.3342896,1.0141602-0.5249023,1.5119629c-0.1552124,0.4057617-0.4002075,0.7817383-0.5134888,1.1965332
	c-0.1286621,0.4707031-0.1900635,0.6557617-0.8699951,0.8200684c-0.2162476,0.0522461-0.4612427,0.0981445-0.6255493,0.2319336
	c-0.394043,0.3203125-0.7620239,0.6772461-1.1141357,1.045166c-0.3363037,0.3515625-0.6368408,0.737793-0.9577637,1.1044922
	c-0.3221436,0.3684082-0.6585083,0.7243652-0.9689941,1.1022949c-0.0713501,0.0869141-0.1259155,0.2910156-0.0773926,0.3540039
	c0.1052856,0.137207,0.2767334,0.248291,0.4776611,0.1657715c0.3737793-0.1538086,0.7590332-0.2883301,1.1116943-0.4821777
	c0.2367554-0.1303711,0.5302124-0.3103027,0.6130371-0.5371094c0.1509399-0.4130859,0.4401855-0.7060547,0.673584-1.0463867
	c0.1390381-0.2026367,0.3149414-0.3515625,0.6001587-0.3535156c0.1555176-0.0012207,0.328064-0.0993652,0.4605713-0.1982422
	c0.1565552-0.1164551,0.2755737-0.2836914,0.4152832-0.4243164c0.5455322-0.5493164,0.9555664-1.201416,1.3894653-1.8369141
	C46.7071495,39.1045647,47.0754356,38.6436272,47.409481,38.159008z M17.4482994,44.488842
	c-0.0335083-0.029541-0.0794678-0.0441895-0.1144409-0.0722656c-0.1020508-0.0820313-0.2127686-0.1572266-0.3000488-0.253418
	c-0.4789429-0.5288086-0.9508057-1.0639648-1.4276133-1.5944824c-0.1563721-0.1740723-0.3388062-0.3271484-0.4768677-0.5144043
	c-0.3496094-0.4736328-0.6486206-0.9887695-1.0276489-1.435791c-0.4535522-0.534668-0.9788208-1.0065918-1.4550171-1.5227051
	c-0.4299316-0.4658203-0.753479-1.0083008-0.8657227-1.6396484c-0.0938721-0.5283203-0.1577759-1.0585938-0.4614868-1.5170898
	c-0.2719727-0.4104004-0.6092529-0.7329102-1.0880127-0.7929688c-0.3035889-0.0124512-0.7685547,0.3117676-0.7996826,0.5986328
	c-0.0404663,0.3725586-0.0748291,0.7680664,0.005249,1.1274414c0.2373657,1.0639648,0.8759155,1.9072266,1.6216431,2.6591797
	c0.4969482,0.5012207,1.0740967,0.9208984,1.5733643,1.4199219c0.4963989,0.4960938,0.9480591,1.0390625,1.4049683,1.5739746
	c0.3933105,0.4602051,0.7276611,0.9787598,1.157959,1.3981934c0.5570679,0.543457,1.1747446,1.0246582,1.9849253,1.1538086
	c0.2016602,0.0322266,0.3800049,0.0219727,0.4696045-0.1625977C17.7434044,44.7212639,17.5767784,44.601635,17.4482994,44.488842z
	 M21.0964928,5.4116936c0.3829956-0.1469727,0.5231323-0.4921875,0.3881226-0.9125977
	c-0.0300293-0.09375-0.0415649-0.2348633,0.0073242-0.3051758c0.1638794-0.2363284,0.3379517-0.4736331,0.5462646-0.6689456
	c0.5269775-0.4943848,1.1702881-0.7961426,1.8579102-0.965332c0.4856567-0.1196289,0.9996338-0.1157227,1.4932251-0.2089844
	c1.1200562-0.2114258,2.2466431-0.307373,3.3864136-0.2929688c0.4936523,0.0380859,0.9875488,0.0727539,1.480835,0.1152344
	c1.2772217,0.1103516,2.5490723,0.279541,3.78302,0.6291504c0.9086914,0.2575684,1.7901611,0.6130371,2.6829224,0.9274902
	c0.3173828,0.1118164,0.4420166,0.2714846,0.4363403,0.6083987c-0.0053711,0.3244629-0.053772,0.6481934-0.0581665,0.9726563
	c-0.0016479,0.123291,0.0283813,0.2927246,0.1099854,0.3632813c0.3538818,0.3051758,1.1243286,0.0754395,1.2182007-0.3876953
	c0.0834961-0.4118652,0.0828247-0.847168,0.0683594-1.2705078c-0.0072632-0.213135-0.0924072-0.444092-0.2039185-0.6291506
	c-0.2224731-0.3693848-0.5284424-0.6501465-0.9488525-0.8078613c-0.3358154-0.1259766-0.6455688-0.3212891-0.9725952-0.4731445
	c-0.2038574-0.0947266-0.416626-0.1711425-0.6282959-0.2475585c-0.4472656-0.1611328-0.9095459-0.2878418-1.3411255-0.4838867
	c-0.4072876-0.1850586-0.7801514-0.4462891-1.1738281-0.6633301c-0.2831421-0.15625-0.6019287-0.2595215-0.8564453-0.451416
	c-0.2422485-0.1831055-0.487793-0.2651367-0.7741699-0.2590332c-0.62146,0.0136719-1.2444458,0.0100098-1.8635254,0.0571289
	c-0.5717163,0.0437012-1.1379395,0.1564941-1.7089233,0.2145996c-0.3449707,0.0354004-0.6981812,0.0615234-1.0410156,0.026123
	c-0.505188-0.052002-1.0013428-0.092041-1.4971924,0.0549316c-0.3092041,0.0917969-0.6210938,0.1748047-0.93396,0.2526856
	c-0.784668,0.1955566-1.5248413,0.4816895-2.1063843,1.0766602c-0.3865356,0.3955077-0.8655396,0.6342772-1.342041,0.8923339
	c-0.2554321,0.1386719-0.5076904,0.3620605-0.6506958,0.6118164c-0.1595459,0.2783203-0.2238159,0.6257324-0.272522,0.9516604
	c-0.0388794,0.2602539-0.0340576,0.5437012,0.0265503,0.798584C20.2916832,5.287426,20.7932091,5.5279045,21.0964928,5.4116936z
	 M16.5850182,33.7051506c0.0592041,0.1665039,0.1976318,0.3112793,0.3220825,0.4453125
	c0.1721802,0.1850586,0.3926392,0.3293457,0.5441284,0.5288086c0.5361938,0.704834,1.0516357,1.4260254,1.5753174,2.140625
	c0.0802612,0.1096191,0.1582642,0.2211914,0.2443848,0.3259277c0.4483643,0.5456543,0.9154053,1.0766602,1.3427734,1.6384277
	c0.2563477,0.3371582,0.4205322,0.746582,0.6820679,1.0786133c0.4365234,0.5539551,0.9036255,1.0854492,1.3845825,1.6008301
	c0.4282227,0.4589844,0.9049072,0.8649902,1.5269775,1.0441895c0.2677612,0.0769043,0.5342407,0.1589355,0.8034668,0.2304688
	c0.4334106,0.1149902,0.8632813,0.2619629,1.3045044,0.3234863c0.5032959,0.0703125,1.0135498,0.0957031,1.5258789,0.112793
	c1.1350708,0.0378418,2.2446289-0.123291,3.3580933-0.2702637c0.3527222-0.0466309,2.8040771-0.861084,3.6025391-1.3452148
	c0.2008057-0.121582,0.3858032-0.3132324,0.5078125-0.5161133c0.3779907-0.6279297,0.7213745-1.2770996,1.0797119-1.9169922
	c0.4883423-0.8723145,1.1281738-1.5905762,2.0372925-2.0327148c0.4782104-0.232666,0.9672852-0.4450684,1.4330444-0.7006836
	c0.7371826-0.4047852,1.1774902-1.020752,1.3383179-1.8752441c0.1356201-0.7207031,0.3468018-1.4299316,0.5701294-2.1296387
	c0.2042236-0.6394043,0.4718018-1.2580566,0.7072754-1.8874512c0.184082-0.4921875,0.3650513-0.9855957,0.5411987-1.4807129
	c0.1156616-0.3251953,0.2067261-0.659668,0.3327637-0.9804688c0.2472534-0.6291504,0.3395386-1.3215332,0.7807007-1.875
	c0.097229-0.1218262,0.1037598-0.3378906,0.1062012-0.5114746c0.0030518-0.213623-0.1550903-0.2810059-0.3543091-0.2019043
	c-0.395752,0.1567383-0.6392822,0.4453125-0.7832031,0.8410645c-0.3693848,1.015625-0.7469482,2.0283203-1.1181641,3.0432129
	c-0.2957764,0.8088379-0.5744019,1.6242676-0.8844604,2.4274902c-0.218689,0.5661621-0.4564819,1.1271973-0.7248535,1.6711426
	c-0.1999512,0.4052734-0.4528809,0.7854004-0.6998291,1.1650391c-0.241394,0.3710938-0.4723511,0.7583008-0.7695923,1.0805664
	c-0.2260742,0.244873-0.5287476,0.4448242-0.8341064,0.5803223c-0.3158569,0.1403809-0.6726074,0.1992188-1.0174561,0.2573242
	c-0.869812,0.1467285-1.5136108,0.6638184-2.0582886,1.3068848c-0.4853516,0.5727539-0.8723145,1.2329102-1.3745728,1.7880859
	c-0.4518433,0.4995117-0.9896851,0.9233398-1.5113525,1.3537598c-0.3944702,0.3254395-0.9155884,0.2224121-1.375061,0.329834
	c-0.3112183,0.072998-2.0655518,0.0793457-2.6107788,0.0793457c-1.0489502-0.0456543-2.0267944-0.3425293-2.9753418-0.7600098
	c-0.3493652-0.1535645-0.638916-0.3920898-0.8297119-0.717041c-0.2920532-0.4973145-0.6856689-0.8793945-1.1513672-1.2038574
	c-0.3476563-0.2421875-0.6741333-0.5151367-1.015686-0.7666016c-0.3630371-0.267334-0.7362061-0.5205078-1.0982666-0.7890625
	c-0.2645264-0.1960449-0.5499878-0.3771973-0.7705688-0.6171875c-0.6056519-0.6586914-1.1546631-1.3723145-1.7786865-2.0119629
	c-0.5053101-0.5178223-0.7227173-1.1274414-0.8206177-1.815918c-0.0350342-0.246582-0.0668945-0.5119629-0.182312-0.7229004
	c-0.0977783-0.1787109-0.0991821-0.3427734-0.0929565-0.5168457c0.0222168-0.6169434-0.0650024-1.2429199,0.1248169-1.8469238
	c0.1364136-0.4343262,0.1533813-0.875,0.1079102-1.3237305c-0.0286865-0.2839355-0.1239014-0.4172363-0.3538208-0.4245605
	c-0.2243042-0.0073242-0.3157959,0.1662598-0.3538818,0.3479004c-0.0557861,0.265625-0.0974121,0.5371094-0.1138916,0.8081055
	c-0.0280762,0.4609375,0.0031738,0.9277344-0.0560303,1.3830566c-0.0544434,0.4191895-0.1421509,0.8513184-0.3140259,1.2321777
	c-0.1517944,0.3359375-0.2085571,0.6599121-0.1494141,0.9997559C16.3598595,32.9942131,16.4608727,33.3560295,16.5850182,33.7051506
	z M17.7615929,7.2920647c0.4325562,0.2563477,0.8768311,0.4953613,1.2915039,0.7783203
	c0.3534546,0.2412109,0.6755371,0.5302734,1.005127,0.8056641c0.2349854,0.1967773,0.4310913,0.465332,0.6959229,0.5944824
	c0.3132935,0.1525879,1.038208,0.2231445,1.0440674,0.1962891c0.3327026,0.0222168,0.6677856,0.026123,0.9976807,0.0700684
	c1.0012207,0.1330566,2.0012817,0.2763672,3.000061,0.4272461c0.3652344,0.0551758,0.7315063,0.121582,1.0869141,0.2209473
	c0.6151733,0.1716309,1.218689,0.3857422,1.8343506,0.5554199c0.2839355,0.078125,0.5856323,0.1330566,0.8780518,0.1279297
	c0.5217285-0.0090332,1.0426025-0.0708008,1.5636597-0.1123047c0.1799316-0.0141602,0.3629761-0.0163574,0.5383911-0.0537109
	c0.6864014-0.1455078,1.3693848-0.307373,2.0554199-0.4545898c0.4936523-0.105957,0.9979248-0.1696777,1.4836426-0.3032227
	c0.7652588-0.2109375,1.5216064-0.4560547,2.2758789-0.704834c0.2531128-0.083252,0.5133057-0.1872559,0.7268066-0.3425293
	c0.5317383-0.3867188,1.0390015-0.8078613,1.5550537-1.2165527c0.2545166-0.201416,0.5281372-0.3842773,0.7555542-0.6135254
	c0.524231-0.5288086,0.6617432-1.255127,0.3621826-1.8225098c-0.1062622-0.201416-0.2476196-0.4013672-0.503479-0.407959
	c-0.3276978-0.0083008-0.5837402,0.1699219-0.6744995,0.4821777c-0.0516357,0.1777344-0.0527954,0.3754883-0.0490112,0.5637207
	c0.0056763,0.2788086-0.0789185,0.4716797-0.3308716,0.6306152c-0.5189819,0.3271484-1.0498657,0.6520996-1.5073853,1.0571289
	c-0.5193481,0.4594727-1.0960693,0.6694336-1.7647095,0.7219238c-0.7266235,0.057373-1.4522095,0.1335449-2.1755371,0.2233887
	c-0.3358765,0.041748-0.6673584,0.2028809-0.9973145,0.1928711c-0.8710327-0.0268555-1.7410278,0.0913086-2.6140747-0.0266113
	c-0.4771729-0.0644531-0.9699707,0.0004883-1.453125-0.0322266c-1.0231323-0.0698242-2.0450439-0.1606445-3.0666504-0.2519531
	c-1.0132446-0.0905762-2.0269165-0.1799316-3.0375977-0.2946777c-0.4887085-0.0556641-0.9768066-0.1225586-1.4360962-0.3439941
	c-0.4198608-0.2021484-0.8657227-0.3505859-1.3031006-0.5146484c-0.4232178-0.1586914-0.7476196-0.4291992-0.9711914-0.8259277
	c-0.0843506-0.1496582-0.175354-0.2956543-0.2703247-0.4384766c-0.15271-0.2297363-0.2613525-0.4641113-0.090332-0.7304688
	c0.0908813-0.1413574,0.1761475-0.2939453,0.2954712-0.407959c0.4060669-0.387207,0.3782959-0.8093262-0.1392822-0.9841309
	c-0.354248-0.119385-0.7625122-0.1035159-1.1452026-0.0939944c-0.1324463,0.003418-0.2977295,0.1445315-0.383728,0.2680666
	c-0.2077026,0.2990723-0.3533325,0.630127-0.3115234,1.0163574c0.031311,0.2885742,0.0220337,0.5842285,0.0772095,0.8674316
	C17.1513634,6.5867424,17.3159752,7.0283928,17.7615929,7.2920647z M14.0324659,12.8130608
	c0.0115356,0.4611816-0.0543823,0.9282227-0.0062256,1.3840332c0.0792847,0.7504883,0.1640625,1.4936523,0.0563965,2.2492676
	c-0.0846558,0.59375-0.1675415,1.1911621-0.1912842,1.7893066c-0.0324707,0.8183594-0.0081177,1.6391602-0.0081177,2.6503906
	c0.0198364,0.2912598,0.0404663,0.7729492,0.0904541,1.2514648c0.0232544,0.2229004,0.0935059,0.442627,0.1599121,0.6582031
	c0.1334839,0.4328613,0.3066406,0.8554688,0.411377,1.2949219c0.0978394,0.4106445,0.4212036,0.6184082,0.673645,0.892334
	c0.0325317,0.0356445,0.1190186,0.0354004,0.1777954,0.0283203c0.2538452-0.0297852,0.4661865-0.277832,0.4124756-0.5432129
	c-0.1126709-0.5571289-0.1294556-1.1394043-0.4072876-1.6569824c-0.0898438-0.1669922-0.2012329-0.3422852-0.2233276-0.5234375
	c-0.0877686-0.71875-0.1888428-1.440918-0.2019653-2.1630859c-0.0213623-1.1821289-0.1040649-2.3647461,0.2104492-3.5397949
	c0.1571655-0.5871582,0.1183472-1.2282715,0.1629639-1.845459c0.0229492-0.3173828-0.0188599-0.6508789,0.0636597-0.9501953
	c0.1182251-0.4289551,0.1722412-0.8588867,0.144043-1.2919922c-0.0250244-0.3852539-0.1218872-0.7658691-0.1922607-1.1474609
	c-0.0792236-0.4296875-0.3699341-0.7419434-0.6152344-1.0725098c-0.3030396-0.4084473-0.5568237-0.4274902-0.7932739-0.0893555
	c-0.0644531,0.0922852-0.1186523,0.220459-0.1133423,0.3288574c0.0185547,0.3789063,0.0675659,0.7563477,0.1005249,1.1345215
	C13.9775343,12.0381584,14.0228224,12.4251213,14.0324659,12.8130608z M16.0961876,9.3618889
	c0.2556152,0.145752,0.3699341,0.3537598,0.4778442,0.5952148c0.1140137,0.255127,0.206604,0.5268555,0.3598633,0.7561035
	c0.286377,0.4287109,0.7780762,0.6030273,1.1935425,0.8571777c0.3467407,0.2121582,0.7595215,0.3205566,1.1513062,0.4492188
	c0.4355469,0.1428223,0.8762817,0.2753906,1.3225708,0.3776855c0.4353638,0.0998535,0.8842163,0.1386719,1.3207397,0.2341309
	c0.7816772,0.1711426,1.5532227,0.3637695,2.3652954,0.3757324c0.8201904,0.0119629,1.6425171,0.0974121,2.4075928,0.4465332
	c0.5372925,0.2451172,1.0814819,0.4321289,1.6878052,0.3752441c0.4576416-0.0432129,1.3788452-0.0568848,1.3793335-0.0473633
	c0.4134521-0.0280762,0.8380737-0.0053711,1.237854-0.0952148c0.8207397-0.1845703,1.637207-0.3825684,2.4837036-0.3398438
	c1.1277466,0.0571289,2.2109375-0.1320801,3.258667-0.5454102c0.7973022-0.3146973,1.5861206-0.6523438,2.3898926-0.9489746
	c1.043335-0.3847656,2.0133057-0.8916016,2.8511963-1.6347656c0.3063965-0.2719727,0.5582275-0.5761719,0.6878662-0.9902344
	c0.2008667-0.6411133-0.0115356-1.2421875-0.1173706-1.8535156c-0.0127563-0.0737305-0.1685791-0.1630859-0.2651978-0.1728516
	c-0.2781372-0.027832-0.5861816,0.2219238-0.6540527,0.5031738c-0.0512695,0.2124023-0.1096802,0.425293-0.1342163,0.6413574
	c-0.0365601,0.3222656-0.2055664,0.5334473-0.4752197,0.6848145c-0.282959,0.1589355-0.5638428,0.3220215-0.8427124,0.4880371
	c-0.3238525,0.192627-0.6264648,0.4365234-0.9709473,0.5756836c-0.5149536,0.208252-1.0604248,0.3381348-1.5893555,0.512207
	c-0.9171753,0.3017578-1.8274536,0.6257324-2.7487183,0.9140625c-0.6522217,0.2041016-1.3084106,0.4316406-1.9797974,0.5273438
	c-0.791626,0.1130371-1.6012573,0.1071777-2.4037476,0.1286621c-0.3769531,0.0100098-0.7617188,0.0004883-1.1318359-0.0646973
	c-0.7687378-0.1352539-1.5108032-0.3691406-2.2996826-0.4572754c-1.0674438-0.1188965-2.1310425-0.2609863-3.2041626-0.25
	c-0.7454834,0.0075684-1.4434204-0.1188965-2.1195679-0.435791c-0.8476563-0.3974609-1.7498169-0.6196289-2.6737671-0.734375
	c-0.6918335-0.0856934-1.2625122-0.5693359-1.4190674-1.2502441c-0.0279541-0.121582-0.072876-0.246582-0.1399536-0.3500977
	c-0.3236694-0.4997559-0.7738037-0.7944336-1.3781128-0.7861328c-0.1828012,0.0024414-0.3388681,0.0915527-0.4130869,0.2958984
	C15.5388746,8.6165276,15.6625929,9.1148186,16.0961876,9.3618889z M11.1262159,42.487133
	c-0.2831421-0.0961914-0.4740601-0.2756348-0.5866699-0.5512695c-0.1156616-0.2832031-0.274231-0.5288086-0.564209-0.6657715
	c-0.1856689-0.0874023-0.3783569-0.1708984-0.5426025-0.2912598c-0.5299683-0.3884277-1.0532227-0.7866211-1.5692744-1.1936035
	c-0.3955688-0.3117676-0.7819214-0.6362305-1.1620483-0.9672852c-0.2984009-0.2597656-0.5998535-0.5209961-0.8655396-0.8134766
	c-0.2897949-0.3188477-0.578125-0.6206055-0.989624-0.7817383c-0.2987061-0.1169434-0.4216919-0.1049805-0.6485596,0.1257324
	c-0.2983401,0.3034668-0.5556033,0.6340332-0.7236941,1.0332031c-0.043396,0.1027832-0.1350708,0.1943359-0.2238159,0.2668457
	c-0.3077393,0.2521973-0.6322021,0.4838867-0.9334717,0.7431641c-0.1480713,0.1274414-0.262085,0.2961426-0.3862914,0.4506836
	c-0.1236572,0.1538086-0.242981,0.3110352-0.3601685,0.4702148c-0.1963501,0.2661133-0.4763794,0.5092773-0.5629272,0.8085938
	c-0.1184692,0.4099121-0.3225098,0.6313477-0.7106934,0.7490234c-0.2531738,0.0766602-0.3599243,0.3745117-0.2587891,0.6037598
	c0.1171265,0.265625,0.4747314,0.4536133,0.6775513,0.345459c0.3751831-0.2001953,1.2985839-0.7851563,1.4021605-0.8149414
	c0.3414307-0.0983887,0.640625-0.2641602,0.8612061-0.5698242c0.2263184-0.3139648,0.4633789-0.6279297,0.7416992-0.8925781
	c0.2352905-0.2236328,0.5515749-0.3579102,0.8027956-0.567627c0.1627808-0.1357422,0.3200073-0.2028809,0.5168457-0.1567383
	c0.1563721,0.036377,0.3099976,0.0895996,0.4599609,0.1481934c0.8609009,0.3354492,1.604248,0.8369141,2.2407227,1.5219727
	c0.4082026,0.4394531,0.8522944,0.861084,1.3389277,1.2062988c0.6312256,0.447998,1.3978882,0.4963379,2.1471558,0.5378418
	c0.0993042,0,0.2086182,0.0263672,0.2952271-0.0068359c0.0966797-0.0373535,0.2258301-0.1176758,0.2432251-0.2001953
	c0.0181274-0.0861816-0.0546875-0.2336426-0.1329956-0.2895508C11.4808912,42.6275139,11.303401,42.5474358,11.1262159,42.487133z"
	/>
</svg>
