<?xml version="1.0" encoding="utf-8"?>
<svg version="1.1" id="_x37_" xmlns="http://www.w3.org/2000/svg" x="0px" y="0px"
	 width="20px" height="20px" viewBox="0 0 20 20" style="enable-background:new 0 0 20 20;" xml:space="preserve">
<path d="M14.3075867,0H5.6922913C2.5533752,0,0,2.5535889,0,5.6922607v8.6154785C0,17.4466553,2.5533752,20,5.6922913,20h8.6152954
	C17.4463501,20,20,17.4466553,20,14.3077393V5.6922607C20,2.5535889,17.4463501,0,14.3075867,0z M19,14.3077393
	C19,16.8950195,16.894989,19,14.3075867,19H5.6922913C3.10495,19,1,16.8950195,1,14.3077393V5.6922607
	C1,3.1049805,3.10495,1,5.6922913,1h8.6152954C16.894989,1,19,3.1049805,19,5.6922607V14.3077393z M10,5
	c-2.7569885,0-5,2.243042-5,5c0,2.7570801,2.2430115,5,5,5c2.756958,0,5-2.2429199,5-5C15,7.243042,12.756958,5,10,5z M10,14
	c-2.2055969,0-4-1.7944336-4-4s1.7944031-4,4-4s4,1.7944336,4,4S12.2055969,14,10,14z M17,4.2501221
	C17,4.9405518,16.4403687,5.5,15.750061,5.5C15.0596313,5.5,14.5,4.9405518,14.5,4.2501221C14.5,3.5595703,15.0596313,3,15.750061,3
	C16.4403687,3,17,3.5595703,17,4.2501221z"/>
</svg>
