<?xml version="1.0" encoding="utf-8"?>
<!-- Generator: Adobe Illustrator 23.0.0, SVG Export Plug-In . SVG Version: 6.00 Build 0)  -->
<svg version="1.1" id="_x37_" xmlns="http://www.w3.org/2000/svg" xmlns:xlink="http://www.w3.org/1999/xlink" x="0px" y="0px"
	 width="32.0000343px" height="16px" viewBox="0 0 32.0000343 16" style="enable-background:new 0 0 32.0000343 16;"
	 xml:space="preserve">
<style type="text/css">
	.st0{fill:url(#SVGID_1_);}
</style>
<linearGradient id="SVGID_1_" gradientUnits="userSpaceOnUse" x1="23.2665215" y1="16.7554874" x2="5.7555175" y2="-0.7555173">
	<stop  offset="0" style="stop-color:#E0B073"/>
	<stop  offset="0.1708543" style="stop-color:#A0714C"/>
	<stop  offset="0.3743719" style="stop-color:#E0B073"/>
	<stop  offset="0.4698492" style="stop-color:#A0714C"/>
	<stop  offset="0.6090404" style="stop-color:#FFD492"/>
	<stop  offset="0.6479115" style="stop-color:#F1C687"/>
	<stop  offset="0.7215229" style="stop-color:#CBA169"/>
	<stop  offset="0.7700779" style="stop-color:#AF8552"/>
	<stop  offset="1" style="stop-color:#FFD492"/>
</linearGradient>
<path class="st0" d="M31.999939,8.0019531c-0.0014648,0.0339355-0.038208,0.0625-0.0935059,0.0786133
	c-2.298584,0.6279297-3.8501587,2.0449219-5.4881592,3.5419922C24.2961426,13.5654297,22.1066284,15.5615234,18.0668945,16H15
	c0-0.0505371,0.0764771-0.0900879,0.1744995-0.0900879c0.0020142,0,0.0055542,0,0.0055542,0
	c4.949707-0.0021973,7.37854-2.2246094,9.7289429-4.3757324c1.6033325-1.4682617,3.1221313-2.8554688,5.3730469-3.5390625
	c-2.1337891-0.7490234-3.6088867-2.0834961-5.171936-3.4956055c-2.3981323-2.1689453-4.87677-4.407959-9.9356079-4.407959
	C15.0764771,0.0915527,15,0.0498047,15,0h3.0895386c4.1321411,0.4394531,6.3654785,2.4516602,8.5318604,4.4094238
	c1.5977783,1.4445801,3.1070557,2.8088379,5.2926025,3.5124512C31.9698486,7.9396973,32.0020142,7.9702148,31.999939,8.0019531z
	 M23.93396,8.0302734c0.0390015-0.0058594,0.0649414-0.0166016,0.065979-0.0292969
	c0.0014648-0.0119629-0.0212402-0.0234375-0.0606689-0.0302734c-1.5427246-0.2636719-2.6080933-0.7753906-3.7359619-1.3171387
	C18.6741333,5.9194336,17.0976563,5.1650391,14.1808472,5H12c0,0.0187988,0.0539551,0.0344238,0.1231689,0.0344238
	c3.5709229,0,5.3205566,0.8395996,7.0133667,1.6530762c1.1033325,0.5292969,2.1445923,1.0297852,3.6507568,1.310791
	c-1.5888672,0.2563477-2.6609497,0.7766113-3.7927246,1.3271484c-1.6591187,0.8066406-3.3735962,1.6401367-6.8674927,1.6408691
	c0,0-0.0025024,0-0.0039063,0C12.0539551,10.9663086,12,10.9812012,12,11h2.164856
	c2.8515625-0.1643066,4.3970947-0.9128418,5.8950806-1.6413574C21.2161865,8.7971191,22.3114014,8.2658691,23.93396,8.0302734z
	 M17.93396,8.0302734c0.0390015-0.0058594,0.0649414-0.0166016,0.065979-0.0292969
	c0.0014648-0.0119629-0.0212402-0.0234375-0.0606689-0.0302734c-1.5427246-0.2636719-2.6080933-0.7753906-3.7359619-1.3171387
	C12.6741333,5.9194336,11.0976563,5.1650391,8.1808472,5H6c0,0.0187988,0.0539551,0.0344238,0.1231689,0.0344238
	c3.5709229,0,5.3205566,0.8395996,7.0133667,1.6530762c1.1033325,0.5292969,2.1445923,1.0297852,3.6507568,1.310791
	c-1.5888672,0.2563477-2.6609497,0.7766113-3.7927246,1.3271484c-1.6591187,0.8066406-3.3735962,1.6401367-6.8674927,1.6408691
	c0,0-0.0025024,0-0.0039063,0C6.0539551,10.9663086,6,10.9812012,6,11h2.164856
	c2.8515625-0.1643066,4.3970947-0.9128418,5.8950806-1.6413574C15.2161865,8.7971191,16.3114014,8.2658691,17.93396,8.0302734z
	 M11.93396,8.0302734c0.0390015-0.0058594,0.0649414-0.0166016,0.065979-0.0292969
	c0.0014648-0.0119629-0.0212402-0.0234375-0.0606689-0.0302734c-1.5427246-0.2636719-2.6080933-0.7753906-3.7359619-1.3171387
	C6.6741333,5.9194336,5.0976563,5.1650391,2.1808472,5H0c0,0.0187988,0.0539551,0.0344238,0.1231689,0.0344238
	c3.5709229,0,5.3205566,0.8395996,7.0133667,1.6530762c1.1033325,0.5292969,2.1445923,1.0297852,3.6507568,1.310791
	C9.1984253,8.2546387,8.1263428,8.7749023,6.9945679,9.3254395c-1.6591187,0.8066406-3.3735962,1.6401367-6.8674927,1.6408691
	c0,0-0.0025024,0-0.0039063,0C0.0539551,10.9663086,0,10.9812012,0,11h2.164856
	c2.8515625-0.1643066,4.3970947-0.9128418,5.8950806-1.6413574C9.2161865,8.7971191,10.3114014,8.2658691,11.93396,8.0302734z"/>
</svg>
