<?xml version="1.0" encoding="utf-8"?>
<!-- Generator: Adobe Illustrator 23.0.0, SVG Export Plug-In . SVG Version: 6.00 Build 0)  -->
<svg version="1.1" id="_x32_" xmlns="http://www.w3.org/2000/svg" xmlns:xlink="http://www.w3.org/1999/xlink" x="0px" y="0px"
	 width="80px" height="80px" viewBox="0 0 80 80" style="enable-background:new 0 0 80 80;" xml:space="preserve">
<style type="text/css">
	.st0{fill:url(#SVGID_1_);}
	.st1{fill:url(#SVGID_2_);}
</style>
<linearGradient id="SVGID_1_" gradientUnits="userSpaceOnUse" x1="56.9935913" y1="56.9935913" x2="23.0064087" y2="23.0064087">
	<stop  offset="0" style="stop-color:#E0B073"/>
	<stop  offset="0.1708543" style="stop-color:#A0714C"/>
	<stop  offset="0.3743719" style="stop-color:#E0B073"/>
	<stop  offset="0.4698492" style="stop-color:#A0714C"/>
	<stop  offset="0.6090404" style="stop-color:#FFD492"/>
	<stop  offset="0.6479115" style="stop-color:#F1C687"/>
	<stop  offset="0.7215229" style="stop-color:#CBA169"/>
	<stop  offset="0.7700779" style="stop-color:#AF8552"/>
	<stop  offset="1" style="stop-color:#FFD492"/>
</linearGradient>
<path class="st0" d="M54.5638428,42h-9.1276855C43.5384521,42,42,43.5383301,42,45.4362793v9.1276855
	C42,56.4616699,43.5384521,58,45.4361572,58h9.1276855C56.4615479,58,58,56.4616699,58,54.5639648v-9.1276855
	C58,43.5383301,56.4615479,42,54.5638428,42z M57,54.5639648C57,55.9072266,55.9071045,57,54.5638428,57h-9.1276855
	C44.0928955,57,43,55.9072266,43,54.5639648v-9.1276855C43,44.0930176,44.0928955,43,45.4361572,43h9.1276855
	C55.9071045,43,57,44.0930176,57,45.4362793V54.5639648z M54.5638428,22h-9.1276855C43.5384521,22,42,23.5383301,42,25.4360352
	v9.1276855C42,36.4616699,43.5384521,38,45.4361572,38h9.1276855C56.4615479,38,58,36.4616699,58,34.5637207v-9.1276855
	C58,23.5383301,56.4615479,22,54.5638428,22z M57,34.5637207C57,35.9069824,55.9071045,37,54.5638428,37h-9.1276855
	C44.0928955,37,43,35.9069824,43,34.5637207v-9.1276855C43,24.0927734,44.0928955,23,45.4361572,23h9.1276855
	C55.9071045,23,57,24.0927734,57,25.4360352V34.5637207z M34.5638428,42h-9.1276855C23.5384521,42,22,43.5383301,22,45.4362793
	v9.1276855C22,56.4616699,23.5384521,58,25.4361572,58h9.1276855C36.4615479,58,38,56.4616699,38,54.5639648v-9.1276855
	C38,43.5383301,36.4615479,42,34.5638428,42z M37,54.5639648C37,55.9072266,35.9071045,57,34.5638428,57h-9.1276855
	C24.0928955,57,23,55.9072266,23,54.5639648v-9.1276855C23,44.0930176,24.0928955,43,25.4361572,43h9.1276855
	C35.9071045,43,37,44.0930176,37,45.4362793V54.5639648z M34.5638428,22h-9.1276855C23.5384521,22,22,23.5383301,22,25.4360352
	v9.1276855C22,36.4616699,23.5384521,38,25.4361572,38h9.1276855C36.4615479,38,38,36.4616699,38,34.5637207v-9.1276855
	C38,23.5383301,36.4615479,22,34.5638428,22z M37,34.5637207C37,35.9069824,35.9071045,37,34.5638428,37h-9.1276855
	C24.0928955,37,23,35.9069824,23,34.5637207v-9.1276855C23,24.0927734,24.0928955,23,25.4361572,23h9.1276855
	C35.9071045,23,37,24.0927734,37,25.4360352V34.5637207z M33.8533936,47.1464844
	c0.1953125,0.1953125,0.1953125,0.5117188,0,0.7070313l-5,5C28.7557373,52.9511719,28.6278076,53,28.4998779,53
	s-0.2558594-0.0488281-0.3535156-0.1464844l-2-2c-0.1953125-0.1953125-0.1953125-0.5117188,0-0.7070313
	s0.5117188-0.1953125,0.7070313,0l1.6464844,1.6464844l4.6464844-4.6464844
	C33.3416748,46.9511719,33.6580811,46.9511719,33.8533936,47.1464844z M53.8533936,27.1464844
	c0.1953125,0.1953125,0.1953125,0.5117188,0,0.7070313l-5,5C48.7557373,32.9511719,48.6278076,33,48.4998779,33
	s-0.2558594-0.0488281-0.3535156-0.1464844l-2-2c-0.1953125-0.1953125-0.1953125-0.5117188,0-0.7070313
	s0.5117188-0.1953125,0.7070313,0l1.6464844,1.6464844l4.6464844-4.6464844
	C53.3416748,26.9511719,53.6580811,26.9511719,53.8533936,27.1464844z M33.8533936,27.1464844
	c0.1953125,0.1953125,0.1953125,0.5117188,0,0.7070313l-5,5C28.7557373,32.9511719,28.6278076,33,28.4998779,33
	s-0.2558594-0.0488281-0.3535156-0.1464844l-2-2c-0.1953125-0.1953125-0.1953125-0.5117188,0-0.7070313
	s0.5117188-0.1953125,0.7070313,0l1.6464844,1.6464844l4.6464844-4.6464844
	C33.3416748,26.9511719,33.6580811,26.9511719,33.8533936,27.1464844z"/>
<linearGradient id="SVGID_2_" gradientUnits="userSpaceOnUse" x1="80" y1="80" x2="6.536993e-13" y2="6.394885e-13">
	<stop  offset="0" style="stop-color:#E0B073"/>
	<stop  offset="0.1708543" style="stop-color:#A0714C"/>
	<stop  offset="0.3743719" style="stop-color:#E0B073"/>
	<stop  offset="0.4698492" style="stop-color:#A0714C"/>
	<stop  offset="0.6090404" style="stop-color:#FFD492"/>
	<stop  offset="0.6479115" style="stop-color:#F1C687"/>
	<stop  offset="0.7215229" style="stop-color:#CBA169"/>
	<stop  offset="0.7700779" style="stop-color:#AF8552"/>
	<stop  offset="1" style="stop-color:#FFD492"/>
</linearGradient>
<path class="st1" d="M0,0v80h80V0H0z M79,79H1V1h78V79z"/>
</svg>
