<?xml version="1.0" encoding="utf-8"?>
<!-- Generator: Adobe Illustrator 23.0.0, SVG Export Plug-In . SVG Version: 6.00 Build 0)  -->
<svg version="1.1" id="_x32_" xmlns="http://www.w3.org/2000/svg" xmlns:xlink="http://www.w3.org/1999/xlink" x="0px" y="0px"
	 width="80px" height="80px" viewBox="0 0 80 80" style="enable-background:new 0 0 80 80;" xml:space="preserve">
<style type="text/css">
	.st0{fill:url(#SVGID_1_);}
	.st1{fill:url(#SVGID_2_);}
</style>
<linearGradient id="SVGID_1_" gradientUnits="userSpaceOnUse" x1="54.4668655" y1="55.822319" x2="23.1777267" y2="24.5331802">
	<stop  offset="0" style="stop-color:#E0B073"/>
	<stop  offset="0.1708543" style="stop-color:#A0714C"/>
	<stop  offset="0.3743719" style="stop-color:#E0B073"/>
	<stop  offset="0.4698492" style="stop-color:#A0714C"/>
	<stop  offset="0.6090404" style="stop-color:#FFD492"/>
	<stop  offset="0.6479115" style="stop-color:#F1C687"/>
	<stop  offset="0.7215229" style="stop-color:#CBA169"/>
	<stop  offset="0.7700779" style="stop-color:#AF8552"/>
	<stop  offset="1" style="stop-color:#FFD492"/>
</linearGradient>
<path class="st0" d="M54.3721924,24H25.6278076C23.0718994,24,21,26.0720215,21,28.6276855v20.7446289
	C21,51.9282227,23.0718994,54,25.6278076,54H27v8l8-8h19.3721924C56.9281006,54,59,51.9282227,59,49.3723145V28.6276855
	C59,26.0720215,56.9281006,24,54.3721924,24z M58,49.3723145C58,51.3725586,56.3725586,53,54.3721924,53H35h-0.4141846H28h-1
	h-1.3721924C23.6274414,53,22,51.3725586,22,49.3723145V28.6276855C22,26.6274414,23.6274414,25,25.6278076,25h28.7443848
	C56.3725586,25,58,26.6274414,58,28.6276855V49.3723145z M45,38H29v-1h16V38z M29,43h12v1H29V43z M29,34h20v1H29V34z M29,40h17v1H29
	V40z"/>
<linearGradient id="SVGID_2_" gradientUnits="userSpaceOnUse" x1="80" y1="80" x2="6.536993e-13" y2="6.394885e-13">
	<stop  offset="0" style="stop-color:#E0B073"/>
	<stop  offset="0.1708543" style="stop-color:#A0714C"/>
	<stop  offset="0.3743719" style="stop-color:#E0B073"/>
	<stop  offset="0.4698492" style="stop-color:#A0714C"/>
	<stop  offset="0.6090404" style="stop-color:#FFD492"/>
	<stop  offset="0.6479115" style="stop-color:#F1C687"/>
	<stop  offset="0.7215229" style="stop-color:#CBA169"/>
	<stop  offset="0.7700779" style="stop-color:#AF8552"/>
	<stop  offset="1" style="stop-color:#FFD492"/>
</linearGradient>
<path class="st1" d="M0,0v80h80V0H0z M79,79H1V1h78V79z"/>
</svg>
