<?xml version="1.0" encoding="utf-8"?>
<!-- Generator: Adobe Illustrator 23.0.0, SVG Export Plug-In . SVG Version: 6.00 Build 0)  -->
<svg version="1.1" id="_x32_" xmlns="http://www.w3.org/2000/svg" xmlns:xlink="http://www.w3.org/1999/xlink" x="0px" y="0px"
	 width="80px" height="80px" viewBox="0 0 80 80" style="enable-background:new 0 0 80 80;" xml:space="preserve">
<style type="text/css">
	.st0{fill:url(#SVGID_1_);}
	.st1{fill:url(#SVGID_2_);}
</style>
<linearGradient id="SVGID_1_" gradientUnits="userSpaceOnUse" x1="58" y1="58" x2="27" y2="27">
	<stop  offset="0" style="stop-color:#E0B073"/>
	<stop  offset="0.1708543" style="stop-color:#A0714C"/>
	<stop  offset="0.3743719" style="stop-color:#E0B073"/>
	<stop  offset="0.4698492" style="stop-color:#A0714C"/>
	<stop  offset="0.6090404" style="stop-color:#FFD492"/>
	<stop  offset="0.6479115" style="stop-color:#F1C687"/>
	<stop  offset="0.7215229" style="stop-color:#CBA169"/>
	<stop  offset="0.7700779" style="stop-color:#AF8552"/>
	<stop  offset="1" style="stop-color:#FFD492"/>
</linearGradient>
<path class="st0" d="M34,20L24,30v30h32V20H34z M55,59H25V30.4143066L25.4143066,30H34v-8.5859375L34.4141846,21H55V59z M40,44h-8
	v-1h8V44z M32,37h15v1H32V37z M32,40h14v1H32V40z M32,46h11v1H32V46z"/>
<linearGradient id="SVGID_2_" gradientUnits="userSpaceOnUse" x1="80" y1="80" x2="6.536993e-13" y2="6.394885e-13">
	<stop  offset="0" style="stop-color:#E0B073"/>
	<stop  offset="0.1708543" style="stop-color:#A0714C"/>
	<stop  offset="0.3743719" style="stop-color:#E0B073"/>
	<stop  offset="0.4698492" style="stop-color:#A0714C"/>
	<stop  offset="0.6090404" style="stop-color:#FFD492"/>
	<stop  offset="0.6479115" style="stop-color:#F1C687"/>
	<stop  offset="0.7215229" style="stop-color:#CBA169"/>
	<stop  offset="0.7700779" style="stop-color:#AF8552"/>
	<stop  offset="1" style="stop-color:#FFD492"/>
</linearGradient>
<path class="st1" d="M0,0v80h80V0H0z M79,79H1V1h78V79z"/>
</svg>
