<?xml version="1.0" encoding="utf-8"?>
<!-- Generator: Adobe Illustrator 23.0.0, SVG Export Plug-In . SVG Version: 6.00 Build 0)  -->
<svg version="1.1" id="_x32_" xmlns="http://www.w3.org/2000/svg" xmlns:xlink="http://www.w3.org/1999/xlink" x="0px" y="0px"
	 width="80px" height="80px" viewBox="0 0 80 80" style="enable-background:new 0 0 80 80;" xml:space="preserve">
<style type="text/css">
	.st0{fill:url(#SVGID_1_);}
	.st1{fill:url(#SVGID_2_);}
</style>
<linearGradient id="SVGID_1_" gradientUnits="userSpaceOnUse" x1="54.4687729" y1="58.5312271" x2="25.5312271" y2="29.5936813">
	<stop  offset="0" style="stop-color:#E0B073"/>
	<stop  offset="0.1708543" style="stop-color:#A0714C"/>
	<stop  offset="0.3743719" style="stop-color:#E0B073"/>
	<stop  offset="0.4698492" style="stop-color:#A0714C"/>
	<stop  offset="0.6090404" style="stop-color:#FFD492"/>
	<stop  offset="0.6479115" style="stop-color:#F1C687"/>
	<stop  offset="0.7215229" style="stop-color:#CBA169"/>
	<stop  offset="0.7700779" style="stop-color:#AF8552"/>
	<stop  offset="1" style="stop-color:#FFD492"/>
</linearGradient>
<path class="st0" d="M50,29.25c-1,0-1.875,0.1247559-2.75,0.375c1.5,4.3747559,2,10.375,0.875,15.875h-2.5
	c1.25-6,0.6248779-16.1252441-3.25-19.2502441C43.2498779,25.625,43.75,24.75,43.75,23.625c0-1.7502441-1.375-3.125-3.125-3.125
	c-1.7501221,0-3.125,1.3747559-3.125,3.125c0,1.125,0.5,2,1.3748779,2.6247559c-3.9998779,3.25-4.5,13.6252441-3.25,19.2502441
	H33.125c-1-5.125-0.7501221-11,0.75-15.5c-1.25-0.5002441-2.5001221-0.75-3.875-0.75c-5.5,0-10,4.4997559-10,10
	c0,3.75,1.9998779,6.875,5,8.6247559V49.25c0,0.625,0.625,1.25,1.2498779,1.25H53.75c0.75,0,1.2498779-0.625,1.2498779-1.25
	v-1.3752441C58,46.125,60,42.875,60,39.25C60,33.7497559,55.5,29.25,50,29.25z M54.4960938,47.0109863l-0.4962158,0.2893066
	v0.5744629V49.25c0,0.0666504-0.0592041,0.25-0.2498779,0.25l-27.49646,0.0002441
	C26.1661377,49.4902344,26.0096436,49.3337402,26,49.25v-1.3752441V47.300293l-0.4962158-0.2893066
	C22.6837158,45.3662109,21,42.4648438,21,39.25c0-4.9626465,4.0373535-9,9-9c0.9228516,0,1.7783203,0.1206055,2.6348877,0.3752441
	c-1.2845459,4.4807129-1.4741211,10.0300293-0.491333,15.0661621L32.3012695,46.5H33.125h2.4998779h1.246582l-0.2703857-1.217041
	c-1.1912842-5.3608398-0.6405029-15.376709,2.9044189-18.2570801l1.0183105-0.8273926l-1.067749-0.7624512
	C38.8127441,24.9765625,38.5,24.3842773,38.5,23.625c0-1.1916504,0.9333496-2.125,2.125-2.125s2.125,0.9333496,2.125,2.125
	c0,0.7590332-0.3127441,1.3515625-0.9561768,1.8110352l-1.0717773,0.7653809l1.0251465,0.8266602
	c3.2327881,2.6071777,4.2127686,11.9609375,2.8988037,18.2680664L44.3951416,46.5H45.625h2.5h0.8161621l0.1635742-0.7995605
	c1.0244141-5.0083008,0.8044434-10.6533203-0.5716553-15.3388672C49.00354,30.2861328,49.4849854,30.25,50,30.25
	c4.9626465,0,9,4.0373535,9,9C59,42.416748,57.2741699,45.390625,54.4960938,47.0109863z M53.75,53h-27.5
	C25.5,53,25,53.5,25,54.2497559V58h30v-3.7502441C55,53.5,54.5001221,53,53.75,53z M54,57H26v-2.7502441
	C26,54.0512695,26.0513916,54,26.25,54h27.5c0.1986084,0,0.25,0.0512695,0.25,0.2497559V57z"/>
<linearGradient id="SVGID_2_" gradientUnits="userSpaceOnUse" x1="80" y1="80" x2="6.536993e-13" y2="6.394885e-13">
	<stop  offset="0" style="stop-color:#E0B073"/>
	<stop  offset="0.1708543" style="stop-color:#A0714C"/>
	<stop  offset="0.3743719" style="stop-color:#E0B073"/>
	<stop  offset="0.4698492" style="stop-color:#A0714C"/>
	<stop  offset="0.6090404" style="stop-color:#FFD492"/>
	<stop  offset="0.6479115" style="stop-color:#F1C687"/>
	<stop  offset="0.7215229" style="stop-color:#CBA169"/>
	<stop  offset="0.7700779" style="stop-color:#AF8552"/>
	<stop  offset="1" style="stop-color:#FFD492"/>
</linearGradient>
<path class="st1" d="M0,0v80h80V0H0z M79,79H1V1h78V79z"/>
</svg>
