<?xml version="1.0" encoding="utf-8"?>
<!-- Generator: Adobe Illustrator 23.0.0, SVG Export Plug-In . SVG Version: 6.00 Build 0)  -->
<svg version="1.1" id="_x32_" xmlns="http://www.w3.org/2000/svg" xmlns:xlink="http://www.w3.org/1999/xlink" x="0px" y="0px"
	 width="80px" height="80px" viewBox="0 0 80 80" style="enable-background:new 0 0 80 80;" xml:space="preserve">
<style type="text/css">
	.st0{fill:url(#SVGID_1_);}
	.st1{fill:url(#SVGID_2_);}
</style>
<linearGradient id="SVGID_1_" gradientUnits="userSpaceOnUse" x1="60.0437279" y1="64.5264816" x2="26.4151382" y2="30.897892">
	<stop  offset="0" style="stop-color:#E0B073"/>
	<stop  offset="0.1708543" style="stop-color:#A0714C"/>
	<stop  offset="0.3743719" style="stop-color:#E0B073"/>
	<stop  offset="0.4698492" style="stop-color:#A0714C"/>
	<stop  offset="0.6090404" style="stop-color:#FFD492"/>
	<stop  offset="0.6479115" style="stop-color:#F1C687"/>
	<stop  offset="0.7215229" style="stop-color:#CBA169"/>
	<stop  offset="0.7700779" style="stop-color:#AF8552"/>
	<stop  offset="1" style="stop-color:#FFD492"/>
</linearGradient>
<path class="st0" d="M28.5803089,45.1909981c-0.0492859-0.2832336-0.0019608-0.5531197,0.1245098-0.8332558
	c0.1432571-0.3173523,0.2163162-0.6774292,0.2617149-1.0266457c0.049345-0.3795967,0.0232944-0.7686043,0.0466576-1.1525078
	c0.013731-0.2258263,0.04842-0.4520493,0.0949306-0.6735535c0.0317612-0.1512833,0.107996-0.2959099,0.2949162-0.2899437
	c0.1915665,0.0061226,0.2709084,0.1172371,0.2948627,0.3538513c0.0378551,0.3738937,0.0237217,0.7412338-0.0899582,1.1030579
	c-0.1581974,0.5035095-0.0854816,1.0250702-0.1039982,1.5391426c-0.0052128,0.1449738-0.0040493,0.281868,0.077467,0.4308014
	c0.0961914,0.175766,0.1227131,0.3968887,0.1519222,0.6023102c0.0815678,0.5737991,0.262743,1.0816841,0.6838455,1.5133133
	c0.520031,0.5329895,0.9775181,1.1276779,1.4822598,1.6767502c0.1837864,0.1999207,0.4217014,0.3508606,0.6420918,0.5142822
	c0.3017387,0.223732,0.6127396,0.4347038,0.9152374,0.657383c0.2846413,0.2095566,0.5567093,0.4370575,0.8464165,0.6389198
	c0.3880997,0.2704391,0.716095,0.5886688,0.9594727,1.0031624c0.1589775,0.2707329,0.4002838,0.4696007,0.6914139,0.5977135
	c0.7904778,0.3478317,1.6053467,0.5952377,2.4794655,0.6332283c0.454361,0,1.9162827-0.0053101,2.1756248-0.0660515
	c0.3829308-0.0896912,0.8171577-0.0038223,1.1458855-0.2749519c0.4347572-0.3585892,0.8829651-0.7118187,1.259491-1.1281281
	c0.4185333-0.462738,0.7410278-1.0127945,1.1454544-1.4901581c0.4539337-0.5358086,0.9904022-0.9666786,1.7152557-1.0889626
	c0.2873878-0.0484848,0.5846825-0.0975914,0.8478699-0.2144127c0.2544746-0.1129646,0.5067215-0.2796555,0.6951218-0.4837646
	c0.2476997-0.2683792,0.4401321-0.5910378,0.6412849-0.9003105c0.20578-0.316433,0.4165573-0.6332474,0.5832291-0.9709854
	c0.2236023-0.4531021,0.4217873-0.9206467,0.6040001-1.3925819c0.2583923-0.669281,0.4905739-1.3488693,0.7370758-2.0228882
	c0.3093224-0.8457947,0.6239853-1.6896172,0.9317932-2.535965c0.1199455-0.3298149,0.3228836-0.5703735,0.6526566-0.7010269
	c0.16605-0.0657959,0.2978172-0.0096664,0.2952919,0.1684189c-0.0020447,0.1445198-0.0074997,0.3246269-0.0885277,0.4262657
	c-0.36763,0.4612007-0.4445152,1.0381432-0.6505508,1.5624199c-0.1050415,0.267292-0.1809196,0.5461006-0.2773132,0.8170547
	c-0.1467934,0.41259-0.2975883,0.8237991-0.4510231,1.2339363c-0.1962166,0.5245171-0.4192123,1.0400772-0.5893593,1.5729485
	c-0.1861382,0.5829277-0.3621101,1.1740875-0.4751282,1.774601c-0.1340141,0.7120438-0.500927,1.2253418-1.1152916,1.5626793
	c-0.3881073,0.2131157-0.7956734,0.3900604-1.1941833,0.5838966c-0.7575989,0.3685493-1.2907944,0.9669876-1.6977386,1.6938515
	c-0.2986298,0.53339-0.5847511,1.0744019-0.8997688,1.5976944c-0.1016693,0.1689186-0.2558403,0.3286934-0.4231644,0.4301262
	c-0.6653786,0.4033737-2.7081909,1.081974-3.002121,1.1207924c-0.9278641,0.1225281-1.8525276,0.256916-2.798439,0.2253418
	c-0.4269066-0.0142479-0.8521347-0.0354271-1.2715302-0.0939598c-0.3676834-0.0512848-0.7259064-0.1738472-1.0870743-0.2696419
	c-0.2243805-0.0595169-0.4464417-0.1279068-0.6695976-0.1921425c-0.5183716-0.1491928-0.915596-0.4876022-1.2724419-0.8700714
	c-0.400795-0.429554-0.7900696-0.8724213-1.15382-1.334034c-0.2179718-0.2766113-0.3547745-0.6178207-0.5684204-0.8987045
	c-0.3561325-0.4682007-0.7453289-0.9107056-1.1189861-1.3653984c-0.0717392-0.087307-0.136734-0.180336-0.2036209-0.2716141
	c-0.4363918-0.595623-0.8659611-1.1964989-1.3127537-1.7840271c-0.1262646-0.16605-0.3099728-0.2862587-0.4534798-0.4406204
	c-0.1037159-0.1115837-0.2190475-0.2323456-0.2683926-0.3710747C28.7173939,45.7967682,28.6332417,45.495121,28.5803089,45.1909981z
	 M28.4134827,25.801527c0.2130203,0.121439,0.3083038,0.2948895,0.3981934,0.4960403
	c0.0950432,0.2126675,0.1721859,0.4389248,0.2998962,0.6301174c0.238636,0.357275,0.6484032,0.5025234,0.994648,0.7143078
	c0.2889309,0.1767197,0.6329002,0.2671185,0.9593945,0.3742905c0.3629742,0.1191044,0.730238,0.2296314,1.1021671,0.3148079
	c0.3628006,0.0831032,0.7368507,0.1155415,1.1006203,0.195118c0.6513824,0.1425152,1.294342,0.3031864,1.9710617,0.3130093
	c0.683506,0.0099583,1.3687706,0.0811996,2.0063362,0.372076c0.4477158,0.2042465,0.9012375,0.360302,1.4064941,0.3127327
	c0.3813705-0.0359306,1.1490631-0.0472908,1.1494637-0.0393887c0.3444977-0.0235176,0.6983643-0.0045319,1.0315285-0.0794373
	c0.6839409-0.1538086,1.3643417-0.3188362,2.0697594-0.2831478c0.9398003,0.0475693,1.842453-0.1100426,2.7155266-0.4545059
	c0.6644554-0.2621727,1.3217964-0.5436077,1.9916077-0.7907372c0.8694305-0.3207893,1.6777573-0.7429771,2.3759842-1.3624954
	c0.2553406-0.2265511,0.46521-0.4800091,0.5732498-0.8249569c0.167347-0.5343914-0.0096397-1.0352192-0.0978432-1.5447636
	c-0.0106087-0.0612812-0.1404686-0.1358757-0.2210083-0.1439857c-0.2317543-0.0233097-0.4884758,0.1850014-0.5450478,0.4193687
	c-0.0427208,0.1769772-0.091362,0.3543358-0.111824,0.5344772c-0.0304832,0.2683811-0.1713028,0.4444256-0.3960266,0.570652
	c-0.2357941,0.1324539-0.4698372,0.2681904-0.7022667,0.4065742c-0.2698746,0.1606541-0.5220375,0.3639145-0.809124,0.4799232
	c-0.4291153,0.173399-0.8836594,0.2816772-1.3244591,0.4267349c-0.7643089,0.2515049-1.5228653,0.5214233-2.2905617,0.7616539
	c-0.5435333,0.1700954-1.0903587,0.3597832-1.6498566,0.4396c-0.6597061,0.0941334-1.3343964,0.0892239-2.0031166,0.1071377
	c-0.3141327,0.0084381-0.6347733,0.0003967-0.943203-0.0538464c-0.6406212-0.1126709-1.2590179-0.3078213-1.91642-0.3811378
	c-0.8895111-0.0991821-1.7758484-0.2175598-2.6701012-0.2083435c-0.6212654,0.0064144-1.2028656-0.0989761-1.7663116-0.3631039
	c-0.7063942-0.3311653-1.4582024-0.516407-2.2281628-0.6119423c-0.5765076-0.0715179-1.0520821-0.4745121-1.1825504-1.0419827
	c-0.0232868-0.1012573-0.0607147-0.2054558-0.1166248-0.2917747c-0.2697029-0.4163952-0.6448326-0.6620197-1.1484032-0.6550865
	c-0.1523666,0.0020924-0.2824326,0.0764446-0.3442497,0.2466621C27.9490871,25.1804199,28.0521603,25.5955696,28.4134827,25.801527z
	 M29.2162819,23.0960407c0.0765343,0.3928623,0.2137127,0.760807,0.5850506,0.9807186
	c0.3604736,0.2134628,0.7306824,0.4126606,1.0762596,0.6485157c0.2945213,0.2010117,0.5629387,0.4417953,0.837574,0.6714783
	c0.1958466,0.163784,0.3592663,0.3877258,0.5799503,0.4952602c0.2610703,0.1272144,0.8651619,0.1860733,0.8700867,0.1637154
	c0.2772522,0.0184498,0.5564842,0.0216484,0.8313751,0.0582199c0.8343773,0.1109943,1.6677475,0.2303562,2.5000725,0.3561687
	c0.3043594,0.0459957,0.6095543,0.1013985,0.9057541,0.1840172c0.5126343,0.1429996,1.0155678,0.3215847,1.528614,0.4628906
	c0.2365913,0.0651894,0.4880066,0.1108551,0.7317009,0.1066189c0.4347649-0.0075397,0.8688393-0.0590153,1.3030815-0.0935287
	c0.1499023-0.0119133,0.3024406-0.0137291,0.448658-0.0447674c0.5719643-0.1213512,1.1411171-0.2561913,1.7128143-0.378891
	c0.4113846-0.0882893,0.8316154-0.1413059,1.2363739-0.2527313c0.6377106-0.1755772,1.2680244-0.3799438,1.8965912-0.5872173
	c0.2109146-0.0695629,0.4277191-0.1560555,0.6056671-0.2854977c0.4431038-0.3223305,0.8658485-0.6732426,1.2958908-1.0138149
	c0.2120705-0.1679344,0.4400787-0.3202896,0.6295853-0.5113583c0.4368706-0.4404659,0.5514908-1.0457687,0.3018303-1.5186901
	c-0.0885468-0.1677265-0.2063332-0.3344326-0.4195709-0.3398457c-0.2730904-0.006916-0.4864197,0.1415482-0.5620575,0.4017487
	c-0.0430603,0.1481361-0.0440178,0.3128548-0.0408325,0.469635c0.0047226,0.2323627-0.0658073,0.3932762-0.2757378,0.5255909
	c-0.4325066,0.2726002-0.8749084,0.5435047-1.2561417,0.8809299c-0.4327888,0.3830051-0.9133911,0.5578899-1.4706345,0.601759
	c-0.6054802,0.0476723-1.210144,0.111166-1.8129349,0.1861076c-0.2798653,0.03479-0.5561333,0.1691093-0.8310928,0.1606369
	c-0.7258339-0.0223236-1.45084,0.07617-2.1783791-0.0220985c-0.3976364-0.0537071-0.8083305,0.0004158-1.2109222-0.0270252
	c-0.8526497-0.0581169-1.7042122-0.1337852-2.5555496-0.2098846c-0.8443871-0.0754776-1.6891174-0.1498642-2.5313721-0.2455902
	c-0.4072189-0.0462723-0.8139725-0.1020184-1.1967468-0.2865009c-0.349884-0.1686268-0.7214088-0.2922421-1.0858822-0.4289837
	c-0.352684-0.1322784-0.6230106-0.3576393-0.8093643-0.6882687c-0.0702419-0.1246014-0.1460915-0.2463684-0.2252541-0.3654366
	c-0.1272316-0.1913643-0.2177734-0.3867741-0.0752506-0.6086235c0.0757122-0.1178589,0.146759-0.2450542,0.246212-0.3399143
	c0.3383865-0.3227806,0.315237-0.6746082-0.1160946-0.8201332c-0.2951965-0.0995998-0.6353817-0.0864048-0.9543362-0.078331
	c-0.1103573,0.0027847-0.248085,0.1202793-0.3197327,0.2233715c-0.1731262,0.2490997-0.2944508,0.5250549-0.2595997,0.8468647
	C29.1779881,22.6137486,29.1702995,22.8599796,29.2162819,23.0960407z M35.4493637,47.6229706
	c-0.1394348-0.2050781-0.3062325-0.3927231-0.4725647-0.5773125c-0.4498749-0.4992371-0.902565-0.9960022-1.3610954-1.4871483
	c-0.3345108-0.3582764-0.6950188-0.6928329-1.0160179-1.0626984c-0.2615852-0.3013878-0.4663124-0.6528893-0.7254238-0.9568176
	c-0.1938801-0.2274017-0.4212055-0.4284325-0.7568874-0.4350014c-0.2842216-0.0055695-0.5515785,0.2271385-0.5094757,0.5091286
	c0.025528,0.1709442,0.0960522,0.3606796,0.2074299,0.4871178c0.1810894,0.2055779,0.4109402,0.3677177,0.6227722,0.5450745
	c0.1092873,0.091507,0.2566814,0.1545868,0.3306732,0.2679138c0.2966938,0.4544716,0.5653706,0.9274788,0.8557148,1.3863258
	c0.4021645,0.6355629,0.6268883,1.3877411,1.3049774,1.8400841c0.6689262,0.4462051,1.1307259,1.1479073,1.8289795,1.5722923
	c0.3055725,0.1857262,0.5699081,0.4393921,0.8631439,0.647583c0.1899071,0.1348534,0.3909073,0.2584534,0.5995865,0.3607826
	c0.7469215,0.3662529,1.56604,0.3769035,2.3676643,0.4666786c0.1350479,0,0.2719612,0.014698,0.4048195-0.0025215
	c0.618576-0.0800972,1.1937904-0.3024292,1.747612-0.5802689c0.2559052-0.1283722,0.4762268-0.3038445,0.6484032-0.5488281
	c0.2118149-0.3013916,0.431221-0.6061707,0.6940231-0.8602486c0.4985542-0.4820175,1.0267525-0.9332199,1.5511322-1.3872223
	c0.1141853-0.0988388,0.2072792-0.1962395,0.1449814-0.3426476c-0.063839-0.1500206-0.2045898-0.2245483-0.366024-0.1923866
	c-0.2257652,0.0449753-0.4538612,0.0940666-0.6688347,0.1744728c-0.3234329,0.1209373-0.6393051,0.2640381-0.9530258,0.4095116
	c-0.3942642,0.1828423-0.7828102,0.3782501-1.1744804,0.5668297c-0.1216164,0.0585518-0.2434006,0.1175652-0.3685722,0.1675224
	c-0.2954865,0.1179428-0.591713,0.2342796-0.8902054,0.3441658c-0.2378883,0.0876007-0.4758034,0.1800232-0.7208366,0.2411842
	c-0.1728096,0.0431404-0.3603287,0.0228233-0.5363808,0.0567131c-0.3592949,0.0692024-0.7114639,0.0244179-1.0448608-0.0938568
	c-0.4445839-0.1577148-0.8741951-0.3584862-1.3102455-0.5407372C36.2326431,48.3839302,35.7735901,48.0998306,35.4493637,47.6229706
	z M46.4472961,53.5483627c-0.2705841,0.0380058-0.5307846,0.1531677-0.794445,0.2376862
	c-0.0401764,0.012867-0.0749512,0.0446129-0.1105995,0.0699615c-0.1221123,0.0869064-0.2323914,0.2043152-0.367485,0.2562065
	c-0.2775154,0.1066208-0.5661926,0.1859169-0.8537788,0.2631264c-1.0249939,0.2752266-2.0663681,0.4307632-3.1289139,0.4501648
	c-0.6604233,0.0120354-1.3203201,0.0537415-1.9804268,0.082737c-0.5016937,0.022049-1.0067291,0.0926476-1.5042534,0.0566826
	c-0.776619-0.0561295-1.5480423-0.1849327-2.3219566-0.2805862c-0.0730247-0.0090294-0.1481705,0.0009995-0.2221718-0.0018692
	c-0.3834419-0.014801-0.6726112,0.2386208-1.0000229,0.3742905c-0.3071175,0.1272659-0.380661,0.4694633-0.1843185,0.6629372
	c0.0831795,0.0819778,0.1915245,0.1510391,0.3009834,0.1902924c0.4096985,0.1469574,0.8258705,0.2754173,1.2368965,0.4187698
	c0.162178,0.056572,0.3163185,0.1362572,0.4757042,0.2014732c0.3528976,0.1443825,0.7001534,0.3072166,1.0618591,0.4242516
	c0.5440903,0.1760635,1.0751648,0.3692932,1.5551987,0.692749c0.1524544,0.102726,0.3312721,0.1978493,0.5086975,0.2247963
	c0.6977654,0.105938,1.3956146,0.1802635,2.1075592,0.0820122c0.4257851-0.0587654,0.7852898-0.2429428,1.147007-0.4398651
	c0.1223526-0.0666084,0.2428017-0.1615906,0.1783562-0.347126c-0.0624084-0.1796684-0.1608162-0.3095512-0.3625298-0.3224792
	c-0.0596352-0.0038185-0.1202278,0.003746-0.1801376,0.0089836c-0.2388725,0.0208817-0.4772606,0.0513229-0.7165565,0.0629692
	c-0.8564644,0.0416985-1.6845856-0.1770744-2.5247269-0.2867889c-0.6568794-0.0857925-1.1483269-0.5833359-1.7835045-0.7218208
	c-0.0246124-0.0053596-0.0394478-0.0564575-0.0588379-0.0862503c0.038475-0.0097542,0.078907-0.0327339,0.1151276-0.0272675
	c0.4939804,0.0745087,0.9913101,0.1335411,1.4801369,0.234333c1.1290474,0.2328033,2.2689056,0.2449837,3.4114151,0.196022
	c0.5012779-0.0214729,1.5056076-0.0967026,1.5079002-0.0793076c0.4361191-0.0666313,0.8737793-0.1244202,1.3080139-0.2018051
	c0.7748184-0.1381073,1.5267258-0.3365974,2.1152191-0.9169312c0.0255623-0.0252113,0.0631599-0.0377998,0.0947838-0.0569077
	c0.3167114-0.1912422,0.539978-0.453846,0.5788383-0.8354683c0.0087471-0.0859375-0.0277824-0.211338-0.0892754-0.2638512
	C47.1613007,53.6264839,46.8178291,53.4962807,46.4472961,53.5483627z M32.5803986,22.509655
	c0.3191948-0.122303,0.4359741-0.4099808,0.3234634-0.7604771c-0.0250397-0.0780201-0.0346451-0.1955833,0.0060806-0.2543049
	c0.1365967-0.1969681,0.2816544-0.3946266,0.4552422-0.5574589c0.4391327-0.4119511,0.9752235-0.6633854,1.5482483-0.8043976
	c0.4046898-0.0995998,0.8330345-0.0965557,1.2443771-0.1741943c0.9333611-0.1761475,1.8722-0.256052,2.821991-0.244154
	c0.4113503,0.0318508,0.8229675,0.0605888,1.2340088,0.0961399c1.0643425,0.0919895,2.1242523,0.2328796,3.1525116,0.5242577
	c0.7572441,0.214571,1.491848,0.51091,2.235817,0.7728939c0.2644806,0.0931301,0.3683128,0.2261887,0.3636131,0.5069504
	c-0.0045204,0.2704029-0.0448341,0.5402355-0.0484695,0.8106041c-0.0013809,0.1026421,0.0236435,0.2439823,0.0916443,0.3026352
	c0.2948685,0.2543221,0.9369202,0.0629234,1.0151672-0.3231087c0.0695572-0.3431301,0.0690002-0.7059402,0.0569725-1.0585804
	c-0.0060616-0.177721-0.0770302-0.3701057-0.1699409-0.5243454c-0.185421-0.3078575-0.4403915-0.5418453-0.7907372-0.6732597
	c-0.2798309-0.1049938-0.5379677-0.2676373-0.8104591-0.3943138c-0.1698914-0.0789871-0.347187-0.1425858-0.5235939-0.2062168
	c-0.3727417-0.1344242-0.7579727-0.2398853-1.1175995-0.4032192c-0.3394394-0.1541538-0.650116-0.3719215-0.9782219-0.5528774
	c-0.2359276-0.1301174-0.5015907-0.2161255-0.7136955-0.3762436c-0.2018509-0.1523724-0.4064713-0.2209148-0.6451492-0.2157097
	c-0.517849,0.0112896-1.0370255,0.0084019-1.5529404,0.0476379c-0.4764137,0.0362415-0.948246,0.1302719-1.4240952,0.1788616
	c-0.2874413,0.0293255-0.5817833,0.0511303-0.8675041,0.0216827c-0.4210052-0.0433655-0.8344307-0.0766697-1.247673,0.0458221
	c-0.2576485,0.0763607-0.5175667,0.1455956-0.7782898,0.2105751c-0.653862,0.1629562-1.2707024,0.4013348-1.7553101,0.8971329
	c-0.3221283,0.3295574-0.7212639,0.5285816-1.1183624,0.7437553c-0.2128487,0.1153336-0.4230881,0.3015289-0.5422707,0.5096302
	c-0.1329441,0.2321033-0.1864834,0.521492-0.2270794,0.7931767c-0.032402,0.2168846-0.0283699,0.4530697,0.022131,0.6655121
	C31.9097195,22.4061832,32.3276978,22.6064873,32.5803986,22.509655z M32.6521225,54.5141411
	c-0.0483437-0.2188225-0.1854897-0.3458824-0.3652687-0.3889389c-0.3510914-0.084034-0.4891529-0.3637047-0.6227627-0.6371346
	c-0.178606-0.3655586-0.3481884-0.7264328-0.5935879-1.0603638c-0.5631866-0.7663918-1.0748119-1.5679703-1.4806843-2.4373322
	c-0.2296715-0.4919052-0.5403042-0.9446106-0.7909851-1.4274063c-0.2292595-0.4415207-0.4313583-0.8977203-0.6367931-1.351429
	c-0.1176186-0.2597504-0.3214016-0.4103432-0.5688629-0.5235481c-0.3524704-0.1612625-0.5414429-0.4835396-0.5922699-0.8307686
	c-0.0533333-0.364418-0.0075245-0.7495995,0.035614-1.1209183c0.0541382-0.4660378,0.1567497-0.9260941,0.2253742-1.3907127
	c0.0783825-0.5307465,0.1092701-1.0712929,0.3757458-1.555851c0.0907879-0.165081,0.1662445-0.3388062,0.2580338-0.5032654
	c0.056776-0.1017265,0.1280041-0.1958618,0.1983738-0.2890778c0.0831432-0.1101303,0.215744-0.2029152,0.2507401-0.3254433
	c0.1021919-0.3577576-0.1543274-0.7908058-0.5040569-0.9063835c-0.1615791-0.0533943-0.4814053,0.0775032-0.5454235,0.2382965
	c-0.1387463,0.3484879-0.3375912,0.6798439-0.3180294,1.0770988c0.00214,0.0433846-0.0169334,0.0885315-0.0295696,0.1318283
	c-0.1821842,0.6245003-0.3574333,1.251194-0.5500031,1.872406c-0.1475811,0.4760666-0.2862587,0.9590149-0.4857292,1.4134521
	c-0.1979866,0.4510651-0.3423576,0.9049301-0.3688278,1.351429c-0.0120125,0.4032364,0.1861382,0.9415703,0.4821148,1.2694855
	c0.2915497,0.3230209,0.5422478,0.6678123,0.6837425,1.0833588c0.3192539,0.9375763,0.7786045,1.8082352,1.2700863,2.6601486
	c0.1835976,0.3182335,0.4563828,0.5825653,0.6668949,0.8867226c0.3750362,0.5418968,0.8067112,1.0289268,1.3045006,1.4570961
	c0.1459217,0.1255035,0.3008995,0.2413712,0.4384308,0.3755531c0.3323078,0.3242493,0.5052986,0.7373581,0.6585293,1.1708908
	c0.087904,0.2486839,0.222044,0.5101814,0.4089108,0.6863289c0.2358017,0.2222633,0.5550995,0.3513641,0.821991,0.5438347
	c0.1744461,0.1258125,0.3514862,0.1661682,0.5158119,0.0465202c0.1836166-0.1336861,0.1936417-0.3478928,0.1338768-0.5579491
	C32.8370705,55.1523514,32.7236824,54.8380241,32.6521225,54.5141411z M50.2988358,22.5053139
	c0.1035423,0.0591373,0.1946487,0.1710987,0.2501678,0.2805538c0.4369545,0.8616314,0.6057091,1.8042908,0.7945518,2.7404156
	c0.020916,0.1036797,0.0290909,0.2149315,0.0733414,0.3080463c0.3418198,0.7193584,0.3840866,1.4932537,0.4007034,2.2681351
	c0.0162544,0.7582283,0.0222473,1.5099907,0.2249107,2.2542133c0.2084427,0.76544,0.410759,1.5390759,0.3865662,2.3483849
	c0.0221748,0.0017967-0.0322647,0.6903076-0.0851784,1.0322456c-0.0956879,0.6183243-0.2588234,1.1924362-0.7951965,1.5998573
	c-0.4455948,0.3384972-0.6236877,0.8554573-0.6001968,1.386425c0.0225754,0.5102196,0.2655678,0.68647,0.7334976,0.4737511
	c0.2778854-0.1263123,0.519783-0.3013535,0.6989365-0.5775681c0.2914162-0.449337,0.5320969-0.9176559,0.642067-1.4411011
	c0.0835571-0.3977051,0.155674-0.8041573,0.1700974-1.2090187c0.0253067-0.7100563,0.0466995-1.4255219-0.0104523-2.132103
	c-0.0868568-1.0738659-0.2490959-2.1414738-0.5813026-3.1719742c-0.1192436-0.369915-0.1009254-0.7152767,0.0257759-1.0836887
	c0.2034531-0.5915394,0.0911674-1.162796-0.1912918-1.7117138c-0.1550102-0.3012505-0.3282166-0.6047153-0.4121971-0.9286194
	c-0.117363-0.4526367-0.1538315-0.9262142-0.2345886-1.3891239c-0.0787849-0.4516697-0.0722542-0.9262676-0.3022842-1.340086
	c-0.225563-0.4057941-0.4662361-0.7949905-1.0066757-0.8299026c-0.215435-0.0139179-0.3607979,0.063858-0.4898109,0.2163677
	c-0.1194191,0.1411514-0.0993576,0.2947159-0.0399208,0.450079C50.0215149,22.2348595,50.1117439,22.3984699,50.2988358,22.5053139z
	 M24.6935997,53.6128769c-0.1262054-0.0900726-0.2741203-0.156662-0.4217434-0.2068939
	c-0.2359829-0.0802841-0.395052-0.2298203-0.4888802-0.4594994c-0.0964203-0.2359962-0.2285404-0.4406738-0.4702148-0.5546608
	c-0.1546783-0.0729523-0.3152637-0.1424789-0.4521694-0.2428207c-0.4416065-0.3236465-0.8776379-0.6554489-1.3077221-0.9945679
	c-0.3296204-0.2599258-0.6515942-0.5302963-0.9683304-0.8061638c-0.2487125-0.2165909-0.4998798-0.4341507-0.7213345-0.6778069
	c-0.2414856-0.2657166-0.4817638-0.5172195-0.8246632-0.6514702c-0.2489166-0.0974731-0.3514252-0.0876846-0.5404568,0.1046982
	c-0.2486095,0.2530098-0.4629993,0.5284271-0.6030998,0.8609581c-0.0361519,0.0858192-0.1125412,0.1619339-0.1865063,0.2225075
	c-0.2564507,0.2100029-0.526804,0.40308-0.7778778,0.6191864c-0.1233807,0.1061707-0.2184315,0.2468185-0.321907,0.3755035
	c-0.103056,0.1281433-0.2024822,0.2594032-0.3001537,0.3918381c-0.1636429,0.2219009-0.396987,0.4244537-0.469121,0.6740379
	c-0.0987072,0.341507-0.2687349,0.5259018-0.5922518,0.6240311c-0.2109489,0.0639954-0.2998972,0.3121109-0.2156572,0.5031281
	c0.0976534,0.2214508,0.3956413,0.3780785,0.5646505,0.2879372c0.3126621-0.1667747,1.0821495-0.6543427,1.1684513-0.6791878
	c0.284523-0.0819283,0.5338936-0.2200699,0.7176781-0.4748764c0.1885891-0.2614288,0.3861485-0.5231705,0.6181145-0.7436714
	c0.1960526-0.186367,0.4596004-0.2983971,0.6689739-0.4730415c0.1356564-0.1131363,0.2666645-0.1690903,0.4307175-0.130703
	c0.1302795,0.030468,0.2583065,0.0748024,0.3833141,0.1235275c0.7173767,0.2795868,1.3368607,0.6973991,1.867218,1.268364
	c0.3402004,0.36623,0.7102718,0.7174873,1.115818,1.0052185c0.5260086,0.3732185,1.1648827,0.413662,1.7892723,0.448246
	c0.0827579,0,0.1738453,0.0220108,0.246048-0.0058632c0.0805588-0.0310898,0.1881599-0.0980072,0.2026539-0.1668091
	C24.8195305,53.7823486,24.7588673,53.6594429,24.6935997,53.6128769z M54.5079155,49.7990799
	c0.1603699-0.2327957,0.3354492-0.4715729,0.4226151-0.7350769c0.0959167-0.289978,0.1018677-0.6109581,0.1409721-0.9192123
	c0.0428734-0.3379097-0.0926704-0.6153679-0.2786903-0.8870163c-0.2415733-0.3527794-0.4650955-0.7189598-0.6808472-1.0886154
	c-0.0973663-0.1668129-0.1679764-0.3521423-0.2318916-0.5357437c-0.1610985-0.4628029-0.4482155-0.9057236-0.2429924-1.4332161
	c0.016037-0.0412216,0.0145378-0.0893631,0.0177116-0.1108398c-0.0002365-0.308876-0.1562691-0.4449768-0.4215202-0.3498726
	c-0.1374779,0.0492783-0.2831764,0.1538582-0.3623161,0.2752457c-0.209938,0.3220329-0.2456284,0.6988487-0.214653,1.073555
	c0.0171547,0.2074966,0.0521698,0.428791,0.1428719,0.6116333c0.1913033,0.3856506,0.4252625,0.7496529,0.6396179,1.1237679
	c0.025795,0.0450096,0.0473595,0.0961075,0.0560417,0.1469612c0.1024055,0.5995789,0.3224792,1.1899109,0.0767822,1.81036
	c-0.1635056,0.4128838-0.2785721,0.8451729-0.4374008,1.2601318c-0.1293488,0.337944-0.3334999,0.6513519-0.4279366,0.9969559
	c-0.1071968,0.3923073-0.1583748,0.5465126-0.7249527,0.6834602c-0.1802177,0.0435371-0.3844032,0.0818214-0.5213165,0.1931458
	c-0.3283691,0.2669792-0.6349983,0.564476-0.9284286,0.8711052c-0.2802925,0.2928848-0.530735,0.6147461-0.7981415,0.9204407
	c-0.2684784,0.3069229-0.5487823,0.6036949-0.8075066,0.918644c-0.0594749,0.0723801-0.1049423,0.2423897-0.0644722,0.2950249
	c0.0877228,0.11409,0.2305679,0.2068214,0.3980103,0.1379509c0.3115082-0.1281281,0.6325493-0.2401428,0.926445-0.4018173
	c0.1972771-0.1085548,0.4418106-0.2585945,0.5108719-0.4475708c0.1257782-0.3442039,0.3667755-0.5883255,0.5612946-0.8719406
	c0.1158714-0.1689339,0.2624626-0.293087,0.5001373-0.2947121c0.1295853-0.0009003,0.2734108-0.0827255,0.3838196-0.1649971
	c0.1304512-0.0972099,0.2296104-0.236496,0.3460846-0.3537483c0.454567-0.4575996,0.796257-1.0011368,1.1578789-1.5307732
	C53.9226379,50.5871353,54.229557,50.2031097,54.5079155,49.7990799z M49.5330963,51.3999023
	c0.1539421-0.1982117,0.2749329-0.4291916,0.3766289-0.6606712c0.1851807-0.4214973,0.3623581-0.8483543,0.5105629-1.2841644
	c0.1750641-0.514801,0.2990341-1.0473785,0.4756699-1.5615387c0.2380028-0.6928177,0.5339851-1.3663177,0.7502251-2.0654106
	c0.159977-0.5172195,0.2816124-1.05756,0.3297768-1.5958595c0.0466919-0.5217857,0.1727562-0.9752884,0.5312195-1.3602829
	c0.0802917-0.0862503,0.1157875-0.2150192,0.1890678-0.3576202c-0.0802078-0.1445236-0.1206818-0.3303719-0.2302284-0.3930016
	c-0.2894249-0.1654778-0.5768852-0.0657082-0.7023544,0.2559814c-0.1997948,0.5123138-0.3697357,1.0379562-0.5250969,1.5661201
	c-0.2647476,0.9000359-0.4946518,1.8106232-0.7660141,2.7085152c-0.1643333,0.5437622-0.3436356,1.0887375-0.5814476,1.6023598
	c-0.2308693,0.4986343-0.5505524,0.9547653-0.8211861,1.4353294c-0.2764168,0.4908142-0.5676308,0.9613342-1.0782127,1.2487335
	c-0.1404915,0.0790901-0.2450371,0.2206383-0.3778954,0.3168831c-0.1695404,0.1228218-0.3619804,0.2148972-0.5246391,0.3455162
	c-0.2003326,0.160862-0.3849487,0.2538567-0.6560707,0.1517181c-0.2680435-0.1009827-0.5088959,0.1347313-0.4744453,0.4247627
	c0.0252609,0.2126656,0.1613617,0.3397255,0.3193474,0.4699631c0.3143044,0.2591133,0.7551804,0.2929878,1.1023026,0.0782967
	c0.2795639-0.1729164,0.5697517-0.3306808,0.8649063-0.4749794C48.7121162,52.0223083,49.2021828,51.8259964,49.5330963,51.3999023z
	 M30.3177433,28.6491508c-0.0796928-0.0569763-0.2157001-0.0757198-0.313509-0.0538807
	c-0.1183109,0.0263863-0.2228146,0.1148491-0.3339863,0.175127c-0.1455097,0.0789356-0.2479324,0.1857109-0.2744713,0.3614254
	c-0.0361271,0.2391415-0.0898895,0.4755497-0.1274109,0.7145176c-0.1563911,0.9960213-0.3897533,1.9720879-0.6938362,2.9334908
	c-0.1447983,0.4578094-0.2420597,0.9320412-0.3395081,1.4033394c-0.029398,0.1421356-0.0114193,0.3060226,0.0266075,0.4486084
	c0.1735802,0.650795,0.3491821,1.3016281,0.5486259,1.944664c0.211813,0.682888,0.4424191,1.3603516,0.8468094,1.960865
	c0.0965672,0.1433983,0.195488,0.2942314,0.2487793,0.456562c0.1390724,0.4236908,0.2501163,0.8566704,0.3788815,1.2839394
	c0.0891438,0.2958069,0.1684513,0.5975075,0.2916527,0.8789597c0.0812588,0.1856079,0.2834587,0.2203979,0.4667225,0.1278191
	c0.14991-0.0757217,0.300127-0.1542587,0.2375393-0.3755722c-0.2019424-0.7139778-0.3760376-1.4314537-0.4984493-2.1675491
	c-0.1258793-0.7569313-0.3515377-1.4996338-0.5717411-2.2369232c-0.1467152-0.4912338-0.3321362-0.9758759-0.5534439-1.4374352
	c-0.1619473-0.3377533-0.3350048-0.6661186-0.4358616-1.0291519c-0.0191593-0.0689583-0.0981503-0.1359787-0.0897865-0.1952896
	c0.0505943-0.3587646,0.1071053-0.7175941,0.1842136-1.0713768c0.064394-0.2955132,0.1685467-0.5819969,0.2389851-0.8764172
	c0.0804386-0.3361969,0.1584721-0.6744175,0.209528-1.0160103c0.065012-0.4349651,0.2231655-0.8062649,0.5535145-1.1081562
	c0.1627941-0.1487923,0.3167534-0.3301449,0.2725353-0.5843811C30.6408234,28.9310703,30.4906826,28.7727489,30.3177433,28.6491508z
	 M44.7453613,29.9403534c-0.4773827-0.1088505-0.9573135-0.060503-1.4364319-0.0381966
	c-0.3072433,0.0142822-0.6169014,0.0288067-0.9195366,0.0794373c-0.5628967,0.0941677-1.1184883,0.2356815-1.6828346,0.3172283
	c-0.390461,0.0564041-0.791153,0.0693035-1.1860924,0.0583057c-0.515007-0.0143337-1.0294342-0.0650845-1.542881-0.1134663
	c-0.2062225-0.019453-0.4077568-0.0935116-0.6139107-0.1091442c-0.5331841-0.0404263-1.037178-0.1949768-1.5457649-0.346138
	c-0.2683067-0.0797672-0.5620079-0.235302-0.8323936-0.0071068c-0.0733604,0.0619202-0.1509819,0.203537-0.1275597,0.2758312
	c0.028595,0.088274,0.1566048,0.1504879,0.2512398,0.2077923c0.0653114,0.0395622,0.1604729,0.0338554,0.2188225,0.0791779
	c0.2186737,0.1698875,0.4091873,0.3847504,0.6448593,0.5222874c0.3160439,0.1844292,0.6614227,0.3194065,0.9993401,0.4633408
	c0.3834419,0.1633339,0.7366142,0.3996391,1.1679649,0.4482803c0.3846321,0.0433846,0.7650871,0.1245499,1.0879021,0.179018
	c0.3530693-0.0422421,0.6452942-0.0663643,0.9336929-0.1140881c0.5084152-0.0841751,1.0165825-0.1725349,1.5210419-0.277771
	c0.6751366-0.1408215,1.3572464-0.252039,1.9818382-0.5836372c0.3940163-0.2091732,0.7987938-0.4044628,1.2335434-0.525053
	c0.0559883-0.0155277,0.1173325-0.1096973,0.1278229-0.1753006C45.0545044,30.1027718,44.9295998,29.9823532,44.7453613,29.9403534z
	 M26.6937428,28.6774044c0.0095978,0.3844566-0.0453472,0.773653-0.0052128,1.1535454
	c0.0660725,0.6253967,0.1367435,1.2446384,0.0469818,1.8743229c-0.0705166,0.4947243-0.1396122,0.9925613-0.1593781,1.4910583
	c-0.0270519,0.6819916-0.0067635,1.3659363-0.0067635,2.2086487c0.0165138,0.2427406,0.0337296,0.6441765,0.0753956,1.0430031
	c0.0193825,0.1855736,0.0778961,0.3687057,0.1332588,0.5483627c0.1111984,0.3608398,0.2554913,0.7129097,0.3427696,1.0791245
	c0.0815773,0.3423004,0.3510494,0.5153198,0.5613899,0.7437744c0.0271378,0.02948,0.0991879,0.0293274,0.1481895,0.0235519
	c0.2115231-0.0249367,0.3884678-0.2315865,0.3437195-0.4527931c-0.0938873-0.4642067-0.107893-0.9494743-0.3394222-1.3806725
	c-0.0748482-0.1393852-0.1676731-0.2852211-0.1861229-0.4363136c-0.0731258-0.5990448-0.1573658-1.2006302-0.1682644-1.8025436
	c-0.0178223-0.9850082-0.0867214-1.9706192,0.175354-2.9498501c0.1309547-0.4892616,0.0986385-1.0235481,0.1357918-1.537796
	c0.019125-0.2646446-0.0157089-0.54245,0.0530872-0.7920341c0.0985107-0.3573799,0.1434975-0.7157097,0.1200314-1.0765648
	c-0.0208702-0.3209286-0.1016178-0.6381912-0.1602516-0.9562511c-0.0659866-0.3579311-0.3082771-0.6182365-0.512661-0.8936901
	c-0.2525368-0.3403645-0.4640522-0.3562031-0.6610813-0.0744038c-0.0537357,0.0768604-0.098877,0.1835651-0.0944519,0.2739124
	c0.015461,0.3157768,0.0562801,0.6302376,0.0837593,0.9455471C26.6479683,28.0317936,26.6856785,28.3542957,26.6937428,28.6774044z
	 M29.5402508,55.0739861c-0.027916-0.0245552-0.0662346-0.0367622-0.0953846-0.0602112
	c-0.0850449-0.0684395-0.1772804-0.1309967-0.250021-0.2112656c-0.3991356-0.4404984-0.7923546-0.8864632-1.1896744-1.32864
	c-0.1303062-0.1450233-0.2823219-0.272686-0.3974056-0.4286194c-0.2913189-0.3946953-0.5405006-0.8241081-0.8563728-1.1965332
	c-0.3779297-0.4455643-0.8156834-0.8387718-1.2124901-1.2688103c-0.3583069-0.3883133-0.627924-0.8403969-0.721426-1.3665237
	c-0.0782547-0.4403267-0.1315212-0.8821907-0.3845825-1.2641602c-0.2266579-0.3420944-0.5077286-0.610836-0.9066849-0.6608772
	c-0.2530174-0.0104103-0.6404495,0.259819-0.6664047,0.4987869c-0.0337315,0.3104515-0.0623589,0.6402702,0.0043907,0.9395485
	c0.1977921,0.8867722,0.7299194,1.58955,1.3513737,2.2161751c0.4141159,0.4175873,0.89505,0.7673912,1.3111267,1.1832161
	c0.413662,0.4134026,0.7900429,0.865818,1.1708069,1.3115196c0.3277283,0.3836288,0.6063938,0.8156052,0.9649506,1.1653404
	c0.4642143,0.4528122,0.9789543,0.8537483,1.6540928,0.9615059c0.1680603,0.0268364,0.3166599,0.0181236,0.3913364-0.1355629
	C29.7861881,55.2677002,29.6472969,55.1680832,29.5402508,55.0739861z M48.4999847,41.2925568
	c-0.1251259,0.2963409-0.2596359,0.5955009-0.438942,0.8595428c-0.1500549,0.2209663-0.3995056,0.3722153-0.5546265,0.590744
	c-0.4386177,0.6179237-0.7821159,1.2929153-1.0312386,2.0100403c-0.169239,0.4872055-0.3731194,0.9225159-0.8842468,1.1376572
	c-0.1630249,0.0686111-0.2513161,0.3382187-0.1968422,0.4682503c0.1052475,0.2512436,0.2766724,0.343029,0.5185776,0.2902565
	c0.2228584-0.0486259,0.3631096-0.1995277,0.4900246-0.3736687c0.1617584-0.2219543,0.3358116-0.4171753,0.6226959-0.4914589
	c0.4371948-0.1131897,0.7751312-0.3767776,1.029438-0.7571907c0.1592522-0.2382088,0.3259735-0.4743233,0.5140419-0.6893387
	c0.5244293-0.5995636,0.6805153-1.3169327,0.6833038-2.0861778c0.0012512-0.3468666-0.0443459-0.6925583,0.0824242-1.0331116
	c0.2058296-0.5529289,0.4032784-1.1096077,0.5840492-1.6713219c0.1434479-0.4457207,0.2602806-0.9003792,0.3813286-1.3531227
	c0.0446815-0.1671219,0.0676651-0.3401413,0.1005402-0.510479c-0.0084839-0.0014839-0.0169487-0.0029716-0.0254326-0.0044594
	c0-0.083519,0.0074654-0.167881-0.0015602-0.2503967c-0.0184059-0.1682129-0.1887741-0.3484573-0.3455162-0.376297
	c-0.132515-0.0235176-0.371109,0.107605-0.4176788,0.258194c-0.0912666,0.295063-0.1974983,0.5918198-0.2361603,0.8958359
	c-0.094223,0.7408676-0.2836761,1.4528961-0.5416565,2.1499481C48.7175179,40.6666946,48.6285706,40.9880371,48.4999847,41.2925568z
	 M64.7797394,52.3471794c-0.133667-0.1976776-0.2939758-0.3831291-0.4692688-0.5445251
	c-0.2712402-0.2497597-0.5565872-0.4722633-0.946228-0.5347214c-0.695343-0.1114616-1.2550964-0.469429-1.6941414-1.0281143
	c-0.0613747-0.0781212-0.1814384-0.1481514-0.2773666-0.1524048c-0.3100395-0.0137482-0.6058617,0.0550194-0.7950745,0.3348312
	c-0.1133385,0.1676216-0.2175941,0.3466568-0.2934418,0.5339775c-0.200325,0.4947929-0.5027657,0.898098-0.97686,1.1462631
	c-0.3509102,0.1837044-0.713398,0.3450699-1.072422,0.5126762c-0.2168312,0.101223-0.3363495,0.2675476-0.3116264,0.448555
	c0.0389099,0.2848244,0.5192108,0.5624237,0.7528877,0.3986893c0.2231674-0.1563683,0.4700623-0.1335068,0.7024231-0.2033463
	c0.1768074-0.053154,0.3759613-0.0947075,0.5127716-0.2066841c0.342617-0.280468,0.6512947-0.6028137,0.9830894-0.8974266
	c0.0855179-0.0759087,0.2101784-0.1641312,0.3100243-0.1564178c0.4248619,0.0328522,0.8221664,0.1746788,1.1697388,0.4280663
	c0.3088074,0.2251015,0.590435,0.4913177,0.9116325,0.6950645c0.2629471,0.1667938,0.5553436,0.3140984,0.8545647,0.3885384
	C64.6539307,53.6379662,64.9485321,53.3955574,65,52.8512764C64.9285202,52.6818886,64.8805695,52.496315,64.7797394,52.3471794z
	 M58.3358345,50.9202194c0.2395363-0.3740311,0.4125175-0.7918243,0.6092873-1.1932297
	c0.0322914-0.0658798,0.0401955-0.1439667,0.0505791-0.1832199c-0.0197411-0.2757301-0.0285835-0.5063286-0.1788025-0.7234726
	c-0.1608772-0.2325516-0.2181396-0.3073044-0.4871674-0.2244072c-0.277092,0.0853844-0.5450134,0.2069778-0.8079529,0.3320274
	c-0.5368881,0.2553596-0.8500977,0.7383804-0.9679718,1.2757301c-0.1519127,0.6925201-0.4146805,1.3201485-0.8068733,1.8862686
	c-0.2272758,0.3280716-0.5363388,0.6115646-0.8500366,0.862236c-0.4536781,0.3624992-1.0265732,0.4861488-1.5591393,0.6861267
	c-0.1849136,0.0694389-0.3064804,0.19207-0.3536072,0.3803596c-0.0660133,0.2637291,0.1403465,0.4887581,0.4001541,0.4346886
	c0.1675453-0.0348587,0.3357925-0.0788498,0.4943237-0.1426048c0.2996902-0.1205215,0.598217-0.2468338,0.8866348-0.3921852
	c0.2526741-0.1273346,0.507618-0.2616539,0.7316933-0.4327698c0.387516-0.2959251,0.7529488-0.6214905,1.1257057-0.9369545
	c0.3494987-0.2957687,0.7060776-0.584034,1.0413818-0.8955574C57.906601,51.4279327,58.1592484,51.1959648,58.3358345,50.9202194z
	 M30.8726864,30.3888245c-0.0330791,0.1475811-0.0664482,0.295475-0.0902061,0.4447689
	c-0.0618267,0.3885727-0.15098,0.7765579-0.1677246,1.1674671c-0.0156403,0.3652649,0.0335236,0.7358513,0.0806007,1.1005974
	c0.0415897,0.3221397,0.123867,0.6387291,0.1804218,0.959156c0.0603714,0.3420258,0.152092,0.685051,0.1575203,1.0288048
	c0.0083714,0.5305023-0.0655346,1.0620232-0.0647297,1.5930595c0.0005054,0.3300247,0.0521526,0.6648903,0.1226177,0.9883118
	c0.0554657,0.2545624,0.3251095,0.3485756,0.5122757,0.2094688c0.1939812-0.1441956,0.334671-0.3303719,0.3547039-0.5818062
	c0.0180721-0.2267075,0.0221996-0.4546089,0.0310249-0.682045c0.0173092-0.4459114,0.0016098-0.8959885,0.0576649-1.3368149
	c0.0885201-0.6961555,0.0987854-1.3706932-0.2010937-2.0261955c-0.0666389-0.1456795-0.0730343-0.3240585-0.0862179-0.4891052
	c-0.0266151-0.333065-0.0454159-0.6671181-0.0549259-1.0011387c-0.0075073-0.2639179-0.0407333-0.5386791,0.0164795-0.7903042
	c0.0982533-0.4321308,0.2577-0.8500977,0.3922863-1.273756c0.1400146-0.4407406-0.2406464-0.9907818-0.7069168-1.0204372
	c-0.1957531-0.0124493-0.2746925,0.0445271-0.2490883,0.2492561c0.0502529,0.4018707,0.0443382,0.7813492-0.1950684,1.1329346
	C30.902153,30.1493893,30.8975983,30.2776909,30.8726864,30.3888245z M47.404583,37.0617256
	c-0.052597,0.2253952,0.0478477,0.3581734,0.273941,0.4119148c0.4044075,0.0961418,0.5817108,0.0077477,0.7723312-0.3673553
	c0.3371849-0.6635399,0.5196877-1.3553352,0.397274-2.1063538c-0.0681953-0.4184189-0.1396103-0.8362999-0.2063599-1.2549629
	c-0.1029968-0.6459732-0.0432739-1.2840271,0.0729218-1.9237404c0.1232796-0.678688,0.2191925-1.3624268,0.3270607-2.0439854
	c-0.0397148-0.4092541-0.0535736-0.8055038-0.3976631-1.1034355c-0.1324196-0.1146755-0.3543091-0.1588726-0.4449501-0.0111523
	c-0.2048874,0.3339138-0.4096565,0.6749191-0.4204788,1.0850716c-0.0083809,0.3175049,0.0388412,0.6413574-0.007618,0.9518414
	c-0.071373,0.4770355-0.0905838,0.947916-0.0564842,1.428236c0.0283279,0.3989143,0.0752335,0.8134613,0.0014801,1.1991272
	c-0.1356125,0.7092438-0.1232262,1.3991013,0.0382919,2.0952377c0.0922279,0.3974953,0.0797386,0.775177-0.1622696,1.1329346
	C47.4940033,36.7000771,47.4453926,36.8867874,47.404583,37.0617256z M46.7771187,32.8103676
	c-0.1408424-0.256813-0.2755127-0.5259018-0.60289-0.5843124c-0.5097084-0.0909195-1.0190735-0.0586166-1.5233688,0.0366936
	c-0.6780014,0.1281471-1.3553047,0.2617912-2.0288239,0.4117432c-0.4322052,0.0962448-0.8614769,0.2118721-1.283947,0.3450317
	c-0.3984756,0.1256218-0.6386337,0.4554939-0.6437302,0.8394661c0.0338669,0.1903763,0.1126785,0.3684807,0.2921333,0.4966431
	c0.3486938,0.2490654,0.7123032,0.4117088,1.1435127,0.2359962c0.1147194-0.0467415,0.2195129-0.1182404,0.3341599-0.1651878
	c0.3054543-0.1250687,0.6335335-0.2079277,0.9169846-0.3708305c0.6456184-0.3710213,1.3287964-0.6255188,2.0477905-0.7978783
	c0.2841797-0.0681114,0.5482826-0.0770187,0.7851715,0.1321411c0.0549469,0.0485191,0.1305313,0.0737305,0.1976891,0.1074829
	c0.1594734,0.080162,0.2832108,0.0229263,0.4043045-0.092701c0.1273117-0.1215744,0.0723495-0.2145348,0.0422668-0.3832626
	C46.8395195,32.915638,46.8130264,32.8758507,46.7771187,32.8103676z M49.6974907,31.1690483
	c-0.0712357,0.6093674-0.1220245,1.2212601-0.1991234,1.8297958c-0.0662804,0.5231361-0.2162743,1.0469971-0.2375488,1.5643578
	c0.0127983,0.1830101,0.0609436,0.3415718,0.0982857,0.5024529c0.0452728,0.1950111,0.2600403,0.3322906,0.4429855,0.3054199
	c0.1849251-0.0271683,0.3320084-0.1974525,0.3266487-0.4017525c-0.0059319-0.22612-0.0202217-0.4527245-0.045517-0.6774254
	c-0.0339355-0.3014221-0.0699272-0.5924034,0.0393448-0.8954353c0.2360077-0.6544647,0.4469147-1.3183174,0.6595573-1.9811325
	c0.0758591-0.2364769,0.1630173-0.4781418,0.1821861-0.722435c0.0420914-0.5365372,0.058651-1.0762882,0.057888-1.6146736
	c-0.0006065-0.4363842-0.0177574-0.8820705-0.3440628-1.2269306c-0.0644302-0.0680943-0.1668434-0.1315193-0.2558594-0.1378136
	c-0.2545586-0.0180531-0.5063515,0.158493-0.5950432,0.4034443c-0.182003,0.5026779-0.1525536,1.0110989-0.0409737,1.5255871
	c0.0425072,0.195982,0.0602531,0.4051037,0.0442963,0.6045437C49.8058395,30.5559807,49.733551,30.8606548,49.6974907,31.1690483z
	 M33.5086327,32.2894974c-0.2450142,0.0644989-0.4814491,0.1631813-0.7202034,0.2507095
	c-0.2028847,0.0743866-0.2982979,0.2637634-0.2429771,0.4690132c0.0731201,0.2713203,0.3972855,0.4445457,0.72089,0.4045486
	c0.1762581-0.0217857,0.3670807-0.0523567,0.5328979-0.0082474c0.608345,0.1618309,1.2106133,0.3479195,1.8114777,0.5368805
	c0.1772461,0.055748,0.3404312,0.1556396,0.513279,0.227417c0.460968,0.191433,0.9421844,0.2992477,1.4380493,0.3420944
	c0.0598831,0,0.1280975,0.0189514,0.1781349-0.0034561c0.1716042-0.0768433,0.4339714,0.0300865,0.5097923-0.2411842
	c0.1974411-0.7063866-0.0328979-1.0169754-0.6599312-1.1987801c-0.4661255-0.1351318-0.9591904-0.1727409-1.4366493-0.2716141
	c-0.3441734-0.0712738-0.687149-0.1565552-1.0221901-0.2628441C34.6011391,32.3658905,34.0807381,32.1388741,33.5086327,32.2894974z
	 M39.8101234,44.3756027c-0.056221-0.0674362-0.1976128-0.0944977-0.2962265-0.0870438
	c-0.1963348,0.0148697-0.2492332,0.1949615-0.3465271,0.3396187c-0.2038956,0.3031387-0.3284836,0.622406-0.3474884,1.0866814
	c0.0215149,0.1048889,0.0471039,0.3090858,0.106926,0.502491c0.0873375,0.2823143,0.4512024,0.4442825,0.7312317,0.3813095
	c0.289196-0.065033,0.3988686-0.2853279,0.4813957-0.5190735c0.1266327-0.3586578,0.2096748-0.7386703,0.0625267-1.105423
	C40.1144104,44.7559471,39.9622154,44.5580292,39.8101234,44.3756027z M37.6033974,42.90168
	c0.4657555,0.2678452,0.9131737,0.5920601,1.4567375,0.6722565c0.2918777,0.0430756,0.8970222,0.0293465,0.898922,0.0401878
	c0.1223602-0.0245895,0.2506371-0.0331841,0.3660049-0.0766716c0.3846817-0.1450386,0.7668076-0.2977066,1.1446152-0.4600029
	c0.0659447-0.0283241,0.1742859-0.0994263,0.1584549-0.1784477c-0.0146904-0.0733681-0.132618-0.094429-0.1993675-0.0950508
	c-0.4182854-0.0040474-0.8366814,0.0059471-1.2550621,0.0102348c-0.397686,0.0041161-0.7970276,0.0310898-1.1926422,0.0037537
	c-0.4180145-0.0288963-0.8320694-0.1134491-1.248951-0.1645813c-0.0615768-0.0075569-0.1623154-0.0056725-0.1940346,0.0546608
	C37.5057602,42.7695045,37.5594711,42.8764343,37.6033974,42.90168z M32.0591431,38.7312813
	c-0.0576668,0.0159264-0.129921,0.0708771-0.1480694,0.1241875c-0.0838299,0.2467308-0.1545086,0.5117226,0.0125332,0.7423897
	c0.2112808,0.2917786,0.4444122,0.569252,0.6856918,0.8366814c0.3742828,0.4148407,0.7673988,0.81007,0.9774513,1.3488693
	c0.1177292,0.3018417,0.2541542,0.5991135,0.4120178,0.8814163c0.1910133,0.3416061,0.4159241,0.6638145,0.6222076,0.9969177
	c0.25354,0.4092369,0.5819626,1.2005615,0.8156815,1.2593002c0.0993996,0.0416031,0.2444572-0.0369339,0.2688828-0.0498848
	c0.2670059-0.1416512,0.202919-0.6619148,0.17696-1.0800934c-0.0267792-0.429966-0.1375999-0.9157028-0.2412872-1.3239326
	c-0.137558-0.4723854-0.2978363-0.7042999-0.4704208-0.9513435c-0.2275162-0.3256493-0.5804291-0.9384232-0.9106064-1.2225876
	c-0.0705414-0.06073-0.1353302-0.1241875-0.1971741-0.1895485c-0.0930061-0.0453568-0.1805344-0.1052017-0.2569656-0.1916428
	c-0.2444992-0.2765083-0.4990654-0.5464249-0.7182236-0.8426628C32.7979813,38.6776276,32.4580803,38.6212044,32.0591431,38.7312813
	z M36.8306961,46.3407936c-0.1730042-0.3638306-0.3957024-0.7472687-0.407959-0.7907219
	c-0.2328568-1.2737923-0.2019005-2.5704765-0.1768341-3.872364c0.0764999-0.3165016,0.1914902-0.6137085,0.3742828-0.8398628
	c0.1497116-0.1852264,0.6774063-0.6526833,0.7895203-0.7606163c0.1760101-0.1694183,0.3012047-0.3473129,0.4188652-0.5626259
	c0.2762794-0.505394,0.7102814-0.4282761,1.1146317-0.1611557c0.0928688,0.0613823,0.1609459,0.1601181,0.2511406,0.2269478
	c0.4918098,0.364521,1.1966782,0.2755051,1.6085625-0.1829414c0.0797157-0.0887222,0.2073097-0.1654968,0.3226433-0.1834297
	c0.1834068-0.028511,0.1801376-0.0533104,0.3585472-0.0192795c0.1738014-0.0125542,0.4832268,0.5280113,0.8585358,0.7907028
	c0.6454239,0.4517899,1.0498428,1.4722786,1.0451851,2.2090836c-0.0113678,1.7778702-0.4644966,3.9160767-1.0606117,4.568985
	c-0.2279243,0.2790146-0.6149216,0.5704803-0.7390175,0.6580086c-0.5229683,0.3688965-0.7397575,0.4189873-1.3649101,0.4774323
	c-0.5360641,0.0354156-0.9523125-0.0049286-1.4365845-0.0939941c-0.4659882-0.0857162-0.8964996-0.3131332-1.2666054-0.6081581
	C37.4794769,47.1644173,37.0410919,46.7834511,36.8306961,46.3407936z M36.8648224,43.555954
	c0.0500641,0.4540405,0.0837593,0.9011803,0.1523819,1.3427849c0.0732841,0.4714661,0.1700706,0.9592247,0.5110016,1.3261147
	c0.1827927,0.1966896,0.4585571,0.431076,0.6903839,0.5300331c0.6675453,0.2849808,1.3835106,0.3304749,2.1013947,0.255722
	c0.3991432-0.0415497,0.7880821-0.1483574,1.1012039-0.4163933c0.1754646-0.1502113,0.3328133-0.3293495,0.472084-0.5155449
	c0.1320953-0.1765785,0.2003403-0.4620781,0.2975235-0.7241631c0.0632133-0.1703033,0.119648-0.3435822,0.1703987-0.5181236
	c0.2016258-0.6933174,0.3845558-1.3866348,0.2836723-2.1252022c-0.0358849-0.2627068-0.1830673-0.3970642-0.3835945-0.5185509
	c-0.2947693-0.1785889-0.5968666-0.3494606-0.8702011-0.5579262c-0.1636848-0.1248436-0.3177795-0.1932487-0.5159798-0.1588745
	c-0.2287483,0.0396652-0.4600296,0.1271973-0.6850128,0.1126366c-0.4474945-0.0289803-0.8903999-0.1232529-1.3373489-0.1696281
	c-0.1381378-0.0143166-0.2842903,0.0337334-0.4244843,0.0640106c-0.0560875,0.012104-0.1050568,0.055439-0.1588898,0.080925
	c-0.4504395,0.2131348-0.8716354,0.4718132-1.2224274,0.8317871c-0.0637627,0.0654488-0.1134834,0.1690063-0.1229324,0.2599258
	C36.8926277,42.9563065,36.8826981,43.259388,36.8648224,43.555954z M46.7221832,38.7894859
	c-0.4224281,0.1341972-0.7095261,0.4883804-0.9909401,0.8259087c-0.1523132,0.1827507-0.3106575,0.3463974-0.4914627,0.4599838
	c-0.2095718,0.3091545-0.4258537,0.6159401-0.5876884,0.9609375c-0.3804474,0.8106918-0.5453987,1.4868546-0.9375916,2.499752
	c-0.171833,0.5825691-0.2092972,1.0164604-0.2190208,1.2003212c-0.0112343,0.2113533-0.0347939,0.6716156-0.0318489,0.6847916
	c0.0384903,0.1723785,0.0134926,0.189724,0.2040939,0.2455063c0.058075,0.0169945,0.1178665,0.0060501,0.1779976-0.0229301
	c0.2971649-0.377697,0.5612526-0.7815018,0.8029442-1.1996269c0.3241501-0.5608673,0.5574188-1.1753349,0.8310928-1.7659225
	c0.0412979-0.0891533,0.0797882-0.1796913,0.1227989-0.2680016c0.2942886-0.6043701,0.5794678-1.2136497,0.8898506-1.809494
	c0.1083488-0.2080879,0.264019-0.3978081,0.4257164-0.5693741c0.2929916-0.3109169,0.6809006-0.5270424,0.8889656-0.9243317
	c0.1067734-0.2040024,0.0625992-0.3719368-0.155056-0.3821907C47.3421326,38.7102394,47.0112686,38.6976318,46.7221832,38.7894859z"
	/>
<linearGradient id="SVGID_2_" gradientUnits="userSpaceOnUse" x1="80" y1="80" x2="6.536993e-13" y2="6.394885e-13">
	<stop  offset="0" style="stop-color:#E0B073"/>
	<stop  offset="0.1708543" style="stop-color:#A0714C"/>
	<stop  offset="0.3743719" style="stop-color:#E0B073"/>
	<stop  offset="0.4698492" style="stop-color:#A0714C"/>
	<stop  offset="0.6090404" style="stop-color:#FFD492"/>
	<stop  offset="0.6479115" style="stop-color:#F1C687"/>
	<stop  offset="0.7215229" style="stop-color:#CBA169"/>
	<stop  offset="0.7700779" style="stop-color:#AF8552"/>
	<stop  offset="1" style="stop-color:#FFD492"/>
</linearGradient>
<path class="st1" d="M0,0v80h80V0H0z M79,79H1V1h78V79z"/>
</svg>
